<?xml version="1.0" encoding="utf-8"?>
<!-- Generator: Adobe Illustrator 28.0.0, SVG Export Plug-In . SVG Version: 6.00 Build 0)  -->
<svg version="1.1" id="Layer_1" xmlns="http://www.w3.org/2000/svg" xmlns:xlink="http://www.w3.org/1999/xlink" x="0px" y="0px"
	 viewBox="0 0 400 600" enable-background="new 0 0 400 600" xml:space="preserve">
<g id="logo">
	<g>
		<g>
			<g>
				<defs>
					<path id="SVGID_1_" d="M194.5,274.6c-0.8-26.8-0.1-61.9,10.4-99c-8.7-4.3-19.5-6.8-19.5-6.8c4.1,4,6,5.9,6,5.9
						c-9.5-4.8-16-5.7-18.6-6.2c3,1.8,6.9,6.2,6.9,6.2c-8.8-2.9-14.5-3.7-18.2-4.1c18.8,2.5,33.9,18.3,35.2,40.8
						c-4.9-8.9-14.2-18.1-14.2-18.1c1.3,5.4,2.1,8.2,2.1,8.2c-5.5-9.2-10.7-13.4-12.5-15.1c1.6,3.1,2.7,8.8,2.7,8.8
						c-8.6-10.1-13.6-13.3-16.5-15.3c1.4,1.9,3.3,4.9,3.9,7.2c-3.4-3.4-10.7-8.4-17.6-11.5C169.2,208.7,186.8,244.6,194.5,274.6
						 M141.1,167.9c4.8-22.4,28-34.5,51.5-25.7c-9.3,0.8-20.4,5.2-20.4,5.2c5.1,0.8,7.6,1.3,7.6,1.3c-9.8,1.2-15.1,4-17.2,4.9
						c3.3-0.2,8.3,1.1,8.3,1.1c-8.3,2.4-13,4.7-16,6.4c16.6-8,37.1-3.4,50.3,13.3c6.9-23.8,17.7-48.4,34.6-72
						c-6.6,3.3-13.6,8.6-16.9,11.9c0.5-2.3,2.3-5.4,3.6-7.4c-2.9,2.1-7.8,5.4-16,15.9c0,0,0.8-5.8,2.3-8.9
						c-1.8,1.8-6.8,6.2-12.1,15.6c0,0,0.6-2.8,1.7-8.3c0,0-9,9.5-13.6,18.7c0.4-18.6,10.4-33,24.5-39.3c1.9-1.3,4.2-2.4,6-3.3
						c-4.6,0.4-12.4,0.6-28.6,6.6c0,0,4.8-5.8,8.7-8.3c-3.3,0.7-11.7,2.2-23.9,8.9c0,0,2.5-2.7,7.6-8c0,0-16.5,4.3-27.9,11.3
						c17.1-26.3,47.5-33.8,71.3-20.9c0.4,0,0.6,0.1,1,0.1c-3.6-2.1-9.6-5.9-25-9.8c0,0,6.6-1.8,10.9-1.8c-2.8-1.1-10-4.3-22.6-5.5
						c0,0,3.3-0.7,9.8-2.1c0,0-14.7-5.2-26.8-5.8c30.6-12.8,61.7,2.5,68.5,32.2c-1-7.6-3.7-16-5.9-20.4c2.1,1.3,4.6,4.1,6,6.2
						c-1.1-3.5-2.7-9.5-10.3-21.1c0,0,5.4,2.8,8,5.3c-1.2-2.4-3.7-8.8-11.2-17.1c0,0,2.5,1.6,7.6,4.6c0,0-6.3-12.1-13.7-19.7
						c26,9.6,37,35.9,26.4,58.4c17.7-16.3,45.3-14.2,62.7,6.6c-9.6-4.5-23.2-6.4-23.2-6.4c4.5,3.7,6.8,5.7,6.8,5.7
						c-10.3-4.3-17.1-4.6-19.8-4.9c3.3,1.6,7.6,5.8,7.6,5.8c-13.4-3.3-19.7-2.8-23.3-2.7c0.5,0.1,1,0.2,1.4,0.5
						c23.9-0.6,45.1,17.1,49,44.7c-6.6-10.1-18.7-20.1-18.7-20.1c2.2,6.4,3.3,9.5,3.3,9.5c-7.5-10.4-14-14.7-16.3-16.6
						c2.2,3.5,4,10.3,4,10.3c-11.1-11.2-17.5-14.5-21.1-16.5c0.2,0.2,0.4,0.5,0.6,0.7c23.3,13.7,32.2,43.7,18.5,71.9
						c0.1-13.4-4.5-29.8-4.5-29.8c-1.9,7.1-2.9,10.6-2.9,10.6c-0.5-14-3.5-21.9-4.6-25.1c-0.1,4.6-2.7,11.7-2.7,11.7
						c-3.1-17-6.9-23.9-8.9-28c0.4,3.1,0.6,7.7-0.2,10.7c-0.4-1.4-1.1-3.3-1.8-5.1c2.8,15.9-4.5,33-21,43.4
						c5.5-8.7,9.2-21.3,9.2-21.3c-4.2,3.9-6.3,5.7-6.3,5.7c5.4-9.3,6.6-15.8,7.2-18.3c-1.9,2.9-6.5,6.6-6.5,6.6
						c4.8-12.4,5.2-18.6,5.5-22.1c-1.1,2.2-2.8,5.3-4.6,7c0.8-2.9,1.6-7.7,1.8-12.7c-32.3,56.6-34.4,134.7-28.5,183.2
						c-10.1,0-20.3,0-30.4,0c-0.2-3-0.8-9.6-1.1-11.6c-4.1-31-19.7-72.2-40.5-105.6c-0.5,7.5,0.8,16.4,2.3,21
						c-1.8-1.6-3.6-4.6-4.7-6.8c0.5,3.5,1,9.5,6.3,21.7c0,0-4.7-3.5-6.8-6.3c0.7,2.4,2.2,8.9,7.8,18c0,0-2.2-1.8-6.4-5.5
						c0,0,4.1,12.4,9.9,20.9c-20.1-11.6-27.5-33.4-19.9-51.7c0-0.1,0-0.2,0-0.4c-1.4,3.3-4.1,8.6-6.2,21.7c0,0-2.2-5.4-2.4-8.9
						c-0.7,2.4-2.9,8.7-2.8,19.4c0,0-0.8-2.7-2.5-8.1c0,0-3.1,12.7-2.7,22.9c-11.3-21.2-5.3-44.4,12.2-55.7c0.1-0.2,0.4-0.4,0.5-0.6
						c-2.8,1.7-7.6,4.3-15.8,13.3c0,0,1.2-5.2,2.8-8c-1.8,1.6-6.6,5.1-12.1,13.3c0,0,0.7-2.4,2.2-7.4c0,0-8.9,8-13.7,15.9
						c2.5-23.5,21.5-38.5,42.2-35.3c-3.4-0.6-6.5-1-8.6-0.8c1.4-0.8,3.9-1.6,5.5-1.9c-2.4-0.4-6.6-1.2-16,0c0,0,3.3-2.4,5.7-3.3
						c-1.8,0-6.5-0.4-13.7,1.8c0,0,1.7-1.1,4.9-3.3c0,0-9.3,0.2-16.2,2.5c13-12.4,31.4-12.1,42.1-0.4c-5.5-14,1-30,16.8-37.3
						c-4.7,5.5-8.3,14.1-8.3,14.1c3.3-2.3,4.9-3.5,4.9-3.5c-4.7,6-6.2,10.5-6.8,12.2c1.7-1.8,5.2-4,5.2-4
						c-4.6,8.2-5.3,12.4-5.9,14.8c0.8-1.4,2.4-3.5,3.7-4.5C142.8,160.1,141.7,164,141.1,167.9z"/>
				</defs>
				<clipPath id="SVGID_00000139279949496042421340000016118526135854123429_">
					<use xlink:href="#SVGID_1_"  overflow="visible"/>
				</clipPath>
				
					<linearGradient id="SVGID_00000137101637233603460820000017755085254080279194_" gradientUnits="userSpaceOnUse" x1="68.3152" y1="141.5926" x2="238.386" y2="524.7092" gradientTransform="matrix(1 0 0 -1 0 602)">
					<stop  offset="0" style="stop-color:#FF2254"/>
					<stop  offset="0.25" style="stop-color:#FF3F47"/>
					<stop  offset="0.46" style="stop-color:#F25F41"/>
					<stop  offset="0.68" style="stop-color:#FF7D2C"/>
					<stop  offset="1" style="stop-color:#F2C822"/>
				</linearGradient>
				
					<rect x="88.2" y="32.1" clip-path="url(#SVGID_00000139279949496042421340000016118526135854123429_)" fill="url(#SVGID_00000137101637233603460820000017755085254080279194_)" width="223.7" height="263.4"/>
			</g>
		</g>
		<g>
			<g>
				<defs>
					<path id="SVGID_00000050664959381493670720000003461773362462597805_" d="M262.3,291c-0.5-2.5-26.9-3.5-79.3-2.8
						c-1.1,0.1-24.7,1.2-36.8,3.4c-20.3,3.6,4.3,5.3,9.9,5.5c9.9,0.5,18.3,1.9-6.3,3c-42.1,1.2-36.1,9.8-0.1,8.7
						c7-0.2,25.2-2.9,11.3,4.6c-9.2,4.9-23.4,9.6,26.9,8.2c24.1-1.3,29.5,1.1,18.2,2.9c-15.3,3-17.1,3.9-7.5,6.6
						c23.2,1.7,43.5,1.4,61.4-1c4.5-4.2,0.2-6.6-12.7-7.1c-23.9-1.1-5.2-5.9,10.4-6.2c23.5-1.6,33.9-10.6-1.1-13.4
						C184.5,297.7,262.8,294,262.3,291"/>
				</defs>
				<clipPath id="SVGID_00000094602885760224429220000017495164118009369495_">
					<use xlink:href="#SVGID_00000050664959381493670720000003461773362462597805_"  overflow="visible"/>
				</clipPath>
				
					<linearGradient id="SVGID_00000060749549318237092710000012999351444446510006_" gradientUnits="userSpaceOnUse" x1="170.7693" y1="260.3731" x2="240.7557" y2="336.8045" gradientTransform="matrix(1 0 0 -1 0 602)">
					<stop  offset="0" style="stop-color:#036FDB"/>
					<stop  offset="1" style="stop-color:#1ACCC0"/>
				</linearGradient>
				
					<rect x="107.7" y="287.4" clip-path="url(#SVGID_00000094602885760224429220000017495164118009369495_)" fill="url(#SVGID_00000060749549318237092710000012999351444446510006_)" width="183.9" height="45.5"/>
			</g>
		</g>
	</g>
	<g>
		<path fill="#FFFFFF" d="M35,306.2c-11.2-16.3-20-34.4-26-53.7C3.1,233.8,0,213.9,0,193.4c0-17.4,2.2-34.2,6.4-50.4
			c4.3-16.6,10.7-32.4,18.9-47l5.7,3.1c-8,14.1-14.1,29.4-18.3,45.5c-4.1,15.6-6.2,32-6.2,48.7c0,19.9,3,39.1,8.6,57.2
			c5.8,18.7,14.4,36.2,25.2,52L35,306.2z M371.4,90.3c9.3,15.3,16.4,31.8,21.3,49.6c4.7,17,7.2,35,7.2,53.5
			c0,21.6-3.5,42.3-9.8,61.9c-6.5,20.1-16.3,39-28.5,55.7l-5.2-3.7c11.8-16.2,21.2-34.4,27.5-53.9c6.2-18.8,9.4-39,9.4-59.8
			c0-18-2.4-35.3-7-51.9c-4.7-17-11.7-33-20.6-47.9L371.4,90.3z"/>
		<g>
			<g>
				<path fill="#FFFFFF" d="M27.1,84.5c-5.2-5.1-4.6-13,2.1-19.1C33,61.9,37,59.8,40,59.7c0.1,2.9,0.1,4.3,0.4,7.1
					c-1.9,0.4-4.3,1.6-5.9,3.1c-2.4,2.2-2.7,5.2-0.6,7.4c2.2,2.3,4.9,2.2,7.4-0.1c2.1-1.8,3.3-4.8,3.5-8.2c3,0.6,4.6,0.8,7.5,1.6
					c-0.4,4.8-2.2,8.7-6.4,12.5C39.2,89.4,32.8,90,27.1,84.5z"/>
				<path fill="#FFFFFF" d="M45.9,55.6c4-3,5.9-4.3,10-7.1c6.9,4.7,10.3,7.1,16.8,12.1c-3.3,2.7-4.8,4-8,6.6
					c-1.1-1.1-1.7-1.6-2.8-2.7c-1.2,1-1.8,1.4-3.1,2.3c0.7,1.3,1.1,2.1,1.9,3.4c-3.4,2.3-5.1,3.5-8.4,6C49.6,68.1,48.2,64,45.9,55.6
					z M60.1,60.9c-2.3-1.8-3.5-2.7-5.8-4.5c-0.2,0.1-0.4,0.2-0.6,0.5c1.2,2.7,1.8,4,2.9,6.6C58,62.5,58.6,61.9,60.1,60.9z"/>
				<path fill="#FFFFFF" d="M83.9,46.5c3,0.4,4.5,0.6,7.4,1c-1.6,3.3-2.4,4.8-3.9,8.1c-4.1-1.4-6.2-2.1-10.4-3.3
					c-0.1,0.1-0.1,0.1-0.2,0.1c1.2,1.9,1.8,2.8,3,4.7c-3.1,1.8-4.7,2.8-7.8,4.7c-4.3-6.3-6.5-9.4-11-15.7c2.4-2.7,5.9-5.8,9.4-8
					c5.9-3.5,11.5-3.1,13.6,0.7C85.6,41.4,85.4,44.3,83.9,46.5C83.9,46.4,83.9,46.4,83.9,46.5z M75.5,48.1c1.6-1,2.2-2.3,1.3-3.6
					c-0.8-1.4-2.2-1.7-3.7-0.7c-1.1,0.7-1.6,1.3-1.8,1.9c1,1.4,1.4,2.2,2.4,3.5C74.4,48.8,74.6,48.6,75.5,48.1z"/>
				<path fill="#FFFFFF" d="M84.9,37.1c3.3-1.9,4.8-2.9,8.2-4.7c3,5.4,4.5,8.2,7.4,13.6c-3.9,1.6-5.7,2.4-9.4,4.1
					C88.5,44.9,87.3,42.3,84.9,37.1z M81.5,30.9c3.1-2.1,4.8-3,8.1-4.8c1.2,1.9,1.8,2.9,3,4.8c-3.6,1.8-5.4,2.8-8.9,4.8
					C82.8,33.8,82.4,32.8,81.5,30.9z"/>
				<path fill="#FFFFFF" d="M105.5,20.6c5.7-2.2,8.8-1.7,10.3,2.2c0.8,2.4-0.2,4.2-2.2,5.7v0.1c3.3-0.2,5.1,0.1,6.2,3
					c1.3,3.6-1.1,6.3-7.2,8.8c-3,1.2-9.4,3.6-12.2,4.5c-3-7.1-4.5-10.7-7.5-18C94.9,25.8,100.2,22.7,105.5,20.6z M106.7,36.9
					c0.6,0.1,1.3,0.1,2.5-0.4c1.7-0.7,2.4-1.9,1.8-3.4c-0.6-1.3-1.9-1.7-3.9-0.8c-0.8,0.4-1.1,0.5-1.9,0.8
					C105.9,34.7,106.1,35.5,106.7,36.9z M105.8,29.9c1.6-0.6,2.2-1.7,1.6-2.9c-0.5-1.2-1.4-1.9-3-1.2c-0.7,0.4-1.3,0.8-1.8,1.2
					c0.6,1.3,1,2.1,1.6,3.5C104.6,30.3,105,30.3,105.8,29.9z"/>
				<path fill="#FFFFFF" d="M128.2,12.7c5.9-1.6,8.9-0.8,10,3.1c0.6,2.4-0.6,4.1-2.7,5.4v0.1c3.1,0,5.1,0.6,5.8,3.6
					c1,3.7-1.6,6-8,8.1c-3.1,1-9.6,2.7-12.4,3.1c-2.3-7.5-3.5-11.1-5.7-18.6C117.2,16.6,122.8,14.1,128.2,12.7z M127.8,28.9
					c0.6,0.1,1.3,0.2,2.5-0.1c1.8-0.6,2.5-1.7,2.2-3.1c-0.5-1.4-1.7-1.9-3.7-1.2c-0.8,0.2-1.1,0.4-2.1,0.7
					C127.2,26.7,127.3,27.5,127.8,28.9z M127.6,21.9c1.6-0.5,2.3-1.4,1.8-2.8c-0.4-1.3-1.2-2.1-2.9-1.4c-0.7,0.2-1.4,0.7-1.9,1.1
					c0.5,1.4,0.7,2.2,1.2,3.6C126.4,22.2,126.9,22.1,127.6,21.9z"/>
				<path fill="#FFFFFF" d="M137,10.7c7.5-2.2,11.3-3,18.9-4.6c0.6,2.4,0.8,3.7,1.4,6.2c-3.9,0.5-5.9,0.8-9.8,1.4
					c0.2,0.8,0.4,1.3,0.5,2.3c2.8-0.7,4.1-1.1,6.9-1.8c0.2,1.7,0.4,2.5,0.6,4.2c-2.7,0.5-3.9,0.8-6.5,1.4c0.2,0.8,0.4,1.3,0.5,2.2
					c4-1.2,5.9-1.8,9.9-2.9c0.1,3,0.2,4.5,0.5,7.5c-7,1.1-10.6,1.7-17.5,3.4C140.2,22.3,139.2,18.5,137,10.7z"/>
				<path fill="#FFFFFF" d="M163.3,5.1c4.7-0.6,7-0.8,11.7-1.2c3.5,7.5,5.2,11.2,8.3,18.8c-4,0.6-5.9,1-9.8,1.8
					c-0.5-1.4-0.6-2.2-1.1-3.6c-1.4,0.1-2.2,0.2-3.7,0.5c0,1.6,0,2.3,0,3.9c-4,0.2-5.9,0.5-9.9,0.8C160.3,17.7,161.2,13.5,163.3,5.1
					z M172.6,16.8c-1.1-2.7-1.7-4.1-2.8-6.8c-0.2,0-0.5,0-0.7,0.1c-0.2,2.9-0.4,4.3-0.6,7.1C170,17,170.9,16.9,172.6,16.8z"/>
				<path fill="#FFFFFF" d="M181.6,3.9c3.5-0.5,5.3-0.7,8.8-1.2c1.9,3.6,2.8,5.5,4.6,9.2c0.2-0.1,0.4-0.1,0.6-0.2
					c-0.6-3.5-1-5.3-1.6-8.8c4,0,6,0,10.1,0.1c-0.4,7.8-0.5,11.8-0.8,19.7c-3.3,0.2-4.8,0.4-8.1,0.7c-2.4-4.1-3.6-6.3-6.3-10.3
					c-0.2,0-0.4,0.1-0.5,0.1c1.1,4.1,1.7,6.3,2.8,10.4c-4-0.1-6-0.1-10.1,0C181.2,15.6,181.4,11.7,181.6,3.9z"/>
				<path fill="#FFFFFF" d="M225.4,0.4c0.5,7.2,0.6,10.7,1,18c0.2,0,0.4,0,0.7,0.1c1.6-7.1,2.4-10.6,4.2-17.6
					c4.5,1,6.8,1.4,11.1,2.7c-4.5,8.7-6.5,13-10.4,21.8c-4.9-0.6-7.4-0.7-12.3-1.1c-1.9-9.8-3-14.6-5.5-24.2
					C218.6,0,220.9,0,225.4,0.4z"/>
				<path fill="#FFFFFF" d="M244.6,6.6c4.6,1,6.9,1.4,11.5,2.7c1,8.2,1.3,12.3,1.8,20.5c-4-0.7-5.9-1-9.9-1.4
					c0.1-1.6,0.1-2.3,0.1-3.9c-1.4-0.4-2.2-0.5-3.6-0.7c-0.5,1.4-0.8,2.2-1.3,3.7c-3.9-1-5.8-1.4-9.6-2.4
					C237.7,17.6,240,13.9,244.6,6.6z M249.6,20.6c-0.1-2.9-0.2-4.3-0.5-7.2c-0.2,0-0.5-0.1-0.7-0.1c-1.2,2.7-1.8,4-2.9,6.6
					C247.2,20.1,247.9,20.3,249.6,20.6z"/>
				<path fill="#FFFFFF" d="M256.9,19.8c1.6-6.2,7.6-9.3,14.7-7.1c4.5,1.3,7.4,3.4,9.2,6.5c-2.3,1.4-3.4,2.2-5.7,3.7
					c-1-1.7-2.7-3.1-4.6-3.7c-2.7-0.8-4.6,0.5-5.2,2.4c-0.6,2.2,0.4,4.1,3.1,4.9c1.8,0.6,4,0.2,6.4-0.8c0.8,2.7,1.2,4.1,1.9,6.8
					c-3.7,1.7-7.2,1.9-11.2,0.7C258.2,31,255.2,26.5,256.9,19.8z"/>
				<path fill="#FFFFFF" d="M287,18.5c4.5,1.8,6.6,2.8,11,4.7c-0.5,8.3-0.8,12.4-1.8,20.5c-3.9-1.4-5.8-2.1-9.6-3.3
					c0.4-1.4,0.5-2.3,0.8-3.7c-1.4-0.6-2.1-0.8-3.5-1.4c-0.7,1.3-1.2,2.1-1.9,3.4c-3.6-1.7-5.4-2.5-9.2-4.1
					C278.2,28.1,281.1,24.8,287,18.5z M289.5,33.2c0.4-2.9,0.5-4.3,0.8-7.2c-0.2-0.1-0.4-0.1-0.7-0.2c-1.7,2.4-2.4,3.5-4.1,5.9
					C287.2,32.2,288,32.6,289.5,33.2z"/>
				<path fill="#FFFFFF" d="M297.6,45.6c2.5-4.8,3.7-7.2,6.4-12.1c-2.8-1.3-4.1-1.9-6.9-3.1c1.4-2.5,2.2-3.9,3.7-6.5
					c8.4,4.1,12.5,6.4,20.6,11.3c-1,2.3-1.4,3.5-2.5,5.8c-2.7-1.4-4.1-2.2-6.8-3.6c-2.3,4.7-3.4,7.1-5.7,11.8
					C302.9,47.8,301.1,47,297.6,45.6z"/>
				<path fill="#FFFFFF" d="M319.7,40.4c3.4,1.7,5.1,2.7,8.4,4.5c-3,5.4-4.6,8.1-7.7,13.4c-3.4-2.4-5.1-3.6-8.6-5.9
					C315,47.6,316.6,45.2,319.7,40.4z M323.3,34.2c3.4,1.7,5.1,2.5,8.4,4.3c-1,2.1-1.6,3-2.5,5.1c-3.5-2.2-5.3-3.1-8.9-5.1
					C321.5,36.9,322.1,36.1,323.3,34.2z"/>
				<path fill="#FFFFFF" d="M342.1,47.5c6.2,4.3,8,11.1,4,16c-3.9,4.9-10.4,5.1-16,1.1c-5.7-4-7.6-10.1-4.3-15.4
					C329.2,43.8,336,43.1,342.1,47.5z M333.3,59.2c2.2,1.6,4.7,1.3,6.2-0.6c1.4-1.9,0.7-4.5-1.4-6c-2.3-1.6-4.8-1.3-6.2,0.6
					C330.4,55.2,331,57.6,333.3,59.2z"/>
				<path fill="#FFFFFF" d="M352.6,56.4c3.1,2.1,4.6,3.1,7.7,5.4c-1,4.1-1.6,6.2-2.7,10.1c0.2,0.1,0.4,0.1,0.6,0.2
					c1.9-3,2.9-4.6,4.7-7.6c3.3,2.9,4.8,4.3,7.8,7.5c-5.7,5.5-8.4,8.3-14,13.9c-2.8-2.2-4.1-3.3-6.9-5.4c1-4.8,1.3-7.2,2.1-12.1
					c-0.2-0.1-0.4-0.1-0.5-0.2c-1.9,3.9-2.9,5.8-4.9,9.6c-3.1-3-4.7-4.5-7.8-7.2C344.2,64.8,346.9,62,352.6,56.4z"/>
			</g>
		</g>
		<g>
			<g>
				<path fill="#FFFFFF" d="M59,305.2c6.6,6,10,8.8,17,13.9c-1.8,2.5-2.7,3.7-4.5,6.3c-3.5-2.9-5.3-4.5-8.7-7.6
					c-1.2,1.2-1.8,1.8-2.9,3.1c2.4,2.1,3.7,3,6.3,4.9c-1.7,1.8-2.5,2.8-4.2,4.6c-2.4-2.1-3.5-3.1-5.8-5.4c-2.9,3-4.3,4.6-7.1,7.7
					c-3.9-3.9-5.7-5.9-9.3-10C47.5,315.8,51.4,312.3,59,305.2z"/>
				<path fill="#FFFFFF" d="M75.2,319.6c7.1,5.2,10.9,7.6,18.5,11.8c-1.4,2.7-2.3,4-3.7,6.8c-4.1-2.7-6.2-4.1-10.1-7
					c-0.7,1-1.1,1.4-1.8,2.4c3.3,2.1,4.9,3,8.3,4.9c-1.1,2.1-1.6,3.1-2.7,5.2c-3.6-2.2-5.4-3.4-8.9-5.8c-0.8,1.1-1.2,1.6-2.1,2.7
					c4.6,2.8,6.9,4,11.6,6.4c-1.7,3.3-2.4,4.9-4.1,8.2c-9-5.8-13.4-8.9-21.7-15.8C65.1,331.5,68.5,327.5,75.2,319.6z"/>
				<path fill="#FFFFFF" d="M94.1,333c3.1,1.3,10.4,4.8,13.7,6.5c6.6,3.4,9.5,7,7.5,11.7c-1.3,3.1-4,4.5-7.7,3.9c0,0,0,0.1-0.1,0.1
					c2.8,2.5,3.9,5.2,2.7,7.8c-1.8,4.2-7.1,4.6-14.4,0.8c-5.2-2.7-12.1-6.9-14.1-8.6C86.6,346.3,89,341.9,94.1,333z M99.8,349.8
					c2.5,1.3,4.3,1.1,5.3-0.6c0.8-1.7,0-3.4-2.3-4.6c-1.6-0.8-2.7-1.1-3.5-1.1c-1,1.8-1.3,2.8-2.3,4.6
					C98.2,349,98.6,349.2,99.8,349.8z M94.4,355.9c0.4,0.6,1.2,1.3,2.2,1.8c1.4,0.7,2.8,0.4,3.5-1.1c0.7-1.3,0-2.5-1.9-3.6
					c-0.8-0.5-1.4-0.6-2.2-1C95.4,353.5,95,354.3,94.4,355.9z"/>
				<path fill="#FFFFFF" d="M116.9,345.7c3.6,0.6,9.9,2.1,13.7,3.5c7.5,2.8,11.3,7.1,9.9,12.2c-1.1,3.7-4.3,5.8-8.3,5.5v0.1
					c2.5,3,3.7,4.6,6.5,7.5c-4.1,1.9-6.3,2.9-10.6,4.6c-3.4-5.8-4.8-8.7-7.7-14.6c-0.1,0-0.1,0-0.2-0.1c-0.5,3.7-0.7,5.5-1.1,9.3
					c-4.5-1.8-6.6-2.8-11-4.8C111.4,359.7,113.2,355.1,116.9,345.7z M125.5,361.2c2.7,1,4.5,0.5,5.1-1.3c0.6-1.8-0.4-3.4-2.8-4.2
					c-1.7-0.6-2.8-0.6-3.6-0.5c-0.7,1.9-1,2.9-1.7,4.8C123.7,360.4,124.2,360.7,125.5,361.2z"/>
				<path fill="#FFFFFF" d="M143.7,354.4c4,0.7,5.9,1,9.8,1.4c-3.1,6.5-7.5,18-2.7,18.9c4.8,1.1,5.2-8.8,6-18.1
					c3.7,1,5.5,1.3,9.3,2.1c2.8,11.6-2.7,27.1-17.4,24C133,379.4,136.8,364.5,143.7,354.4z"/>
				<path fill="#FFFFFF" d="M173.4,359.2c5.4,0.7,8.1,1.1,13.6,1.4c2.4,10.4,3.9,15.6,7,25.8c-5.2,0.4-7.7,0.5-13,0.6
					c-0.2-1.7-0.4-2.5-0.5-4.2c-2.5-0.1-3.7-0.2-6.3-0.5c-0.7,1.7-1,2.5-1.7,4.2c-5.1-0.8-7.6-1.3-12.7-2.4
					C165.8,374.3,168.5,369.4,173.4,359.2z M181,377.4c-0.7-4.1-1.1-6.2-1.7-10.4c-0.4,0-0.5,0-0.7-0.1c-1.7,4-2.5,5.9-4.3,9.8
					C176.9,377.2,178.4,377.3,181,377.4z"/>
				<path fill="#FFFFFF" d="M192.7,362.3c3.5-0.8,9.8-1.9,13.9-2.1c7.8-0.4,13,2.2,13.6,7.4c0.5,3.9-1.8,7-5.5,8.3
					c0,0.1,0,0.1,0,0.1c3.5,1.8,5.2,2.8,8.8,4.5c-3,3.4-4.6,5.1-8,8.3c-5.3-4-7.8-6.2-12.5-10.5c-0.1,0-0.1,0-0.2,0
					c1,3.6,1.4,5.4,2.5,8.9c-4.7,0-7.1,0-11.8-0.1C193.2,377.2,192.9,372.3,192.7,362.3z M206.5,373.1c2.8-0.1,4.2-1.2,4.1-3.3
					c-0.1-1.9-1.7-2.9-4.2-2.8c-1.7,0.1-2.8,0.5-3.5,1c0.1,2.1,0.2,3.1,0.4,5.2C204.5,373.1,205.1,373.1,206.5,373.1z"/>
				<path fill="#FFFFFF" d="M227.2,358c2.1,4.2,3,6.3,5.2,10.5c0.4,0,0.5-0.1,0.7-0.1c0.1-4.7,0.1-7,0.1-11.7
					c4.7-0.5,7-0.8,11.6-1.6c-2.1,7.5-3.3,11.2-6,18.7c1,3.7,1.6,5.5,2.5,9.3c-5.1,0.7-7.6,1.1-12.7,1.6c-0.4-3.4-0.5-5.1-0.8-8.6
					c-5.2-6.3-7.6-9.5-12.2-16.2C220.4,359.4,222.7,358.9,227.2,358z"/>
				<path fill="#FFFFFF" d="M267.5,357.2c-0.5-1.3-1.7-1.7-3.4-1.1c-2.2,0.8-3.5,1.9-6.4,4.2c-1.6-2.7-2.3-3.9-3.9-6.5
					c2.9-2.4,5.8-4.1,8.8-5.2c0.5-0.2,1.1-0.4,1.6-0.5c4.7-1.4,9.4-0.6,11.6,2.1c3,3.7,1.1,10.3-5.4,15.7c4.6-1.6,6.9-2.4,11.5-4.3
					c0.8,3.3,1.2,4.8,2.1,8.2c-8.7,3.5-13,4.9-21.9,7.5c-1.3-3-2.1-4.6-3.4-7.6C264.3,364.7,268.3,359.5,267.5,357.2z"/>
				<path fill="#FFFFFF" d="M285.3,338.5c7.4-3.9,15-2.2,19.3,4.8s1.8,15.1-6.5,19.5c-8.3,4.3-16.3,1.7-19.5-5.8
					C275.1,349.4,278,342.2,285.3,338.5z M293.6,354.4c2.7-1.4,3.5-4.2,1.9-7c-1.6-2.8-4.2-3.6-6.8-2.3s-3.4,4-1.9,6.8
					C288.2,354.8,291,355.7,293.6,354.4z"/>
				<path fill="#FFFFFF" d="M311.6,333.9c-0.7-1.1-2.1-1.2-3.6-0.2c-2.1,1.3-3,2.8-5.3,5.8c-2.2-2.2-3.3-3.3-5.3-5.4
					c2.3-3.1,4.7-5.4,7.5-7.4c0.5-0.4,1-0.6,1.4-1c4.3-2.7,9.2-3.1,12.1-1c3.9,2.9,3.5,9.6-1.7,16.8c4.2-2.8,6.3-4.2,10.3-7.2
					c1.6,3,2.4,4.5,4,7.5c-7.7,5.7-11.8,8.3-19.9,13c-2.1-2.7-3.1-4-5.2-6.5C310.4,342.1,313.1,335.8,311.6,333.9z"/>
				<path fill="#FFFFFF" d="M328.9,328.5c-1.1-1.2-1.6-1.8-2.7-3c0.8-0.7,1.3-1.1,2.1-1.8c2.9-2.4,3.7-4.2,2.7-5.5
					c-0.7-0.8-2.2-0.4-4.3,1.4c-1.7,1.4-2.8,3-4.5,6.2c-2.4-1.9-3.6-2.8-5.9-4.7c2.3-4,5.1-7.1,8-9.4c4.7-3.6,9.6-5.1,12.7-3.4
					c2.9,1.7,3,5.1,1.2,9c0.1,0.1,0.1,0.1,0.1,0.1c3.7-1.6,6.6-1.4,8.7,0.4c2.9,2.8,1.3,8.3-4.2,13.9c-0.5,0.5-1,1-1.6,1.4
					c-3.1,2.8-7,5.1-11.1,6.4c-1.2-2.8-1.8-4.2-3.1-7c3.9-1.3,5.8-2.3,8-4.1c2.3-1.9,2.7-3.3,1.7-4.2c-0.8-1-2.7,0-5.8,2.5
					C330.1,327.5,329.6,327.9,328.9,328.5z"/>
			</g>
		</g>
	</g>
</g>
<g>
	<path fill="#FFFFFF" d="M241.1,461c0-3.2-2-4.8-5.8-4.8c-1.7,0-2.1,0-3.9,0.1l-0.3,8.4c1,0.7,2.2,1.3,4.5,1.3
		C239.2,466,241.1,464.2,241.1,461z"/>
	<path fill="#FFFFFF" d="M192.5,450.2c3,0,4.7-1.5,4.7-4.5c0-2.8-1-4.8-4.2-4.8c-1.4,0-2.7,0.5-3.8,0.9l0.1,8.1
		C190.4,450,191.2,450.2,192.5,450.2z"/>
	<path fill="#FFFFFF" d="M286.5,501.1c-4.9,0-8.3,3.4-8.3,8.5c0,5,3.4,8.6,8.3,8.6c4.8,0,8.2-3.5,8.2-8.6
		C294.7,504.4,291.3,501.1,286.5,501.1z"/>
	<polygon fill="#FFFFFF" points="189.1,499.4 186.2,514.3 194,514.3 190.4,499.4 	"/>
	<polygon fill="#FFFFFF" points="111.8,499.4 108.9,514.3 116.7,514.3 113.1,499.4 	"/>
	<polygon fill="#FFFFFF" points="314.1,444.4 312.8,444.4 309.9,459.3 317.7,459.3 	"/>
	<path fill="#FFFFFF" d="M199.1,461c0-3.2-2-4.8-5.8-4.8c-1.7,0-2.1,0-3.9,0.1l-0.3,8.4c1,0.7,2.2,1.3,4.5,1.3
		C197.2,466,199.1,464.2,199.1,461z"/>
	<path fill="#FFFFFF" d="M234.6,450.2c3,0,4.7-1.5,4.7-4.5c0-2.8-1-4.8-4.2-4.8c-1.4,0-2.7,0.5-3.8,0.9l0.1,8.1
		C232.4,450,233.2,450.2,234.6,450.2z"/>
	<path fill="#FFFFFF" d="M232.5,555.1c-1.7,0-3.2,0.1-4.7,0.7l0.2,15.5c0.7,0.8,2.8,1.3,4.3,1.3c3,0,5.7-3.7,5.7-8.8
		C238,558.9,235.7,555.1,232.5,555.1z"/>
	<path fill="#FFFFFF" d="M273.6,556.1c-4.9,0-8.3,3.4-8.3,8.5c0,5,3.4,8.6,8.3,8.6c4.8,0,8.2-3.5,8.2-8.6
		C281.8,559.4,278.4,556.1,273.6,556.1z"/>
	<polygon fill="#FFFFFF" points="89.8,444.4 88.5,444.4 85.6,459.3 93.4,459.3 	"/>
	<path fill="#FFFFFF" d="M129,455.2c3.4,0,5.4-1.7,5.4-5.2c0-3.5-1.8-5.4-5.1-5.4c-2.2,0-3.6,0.6-4.5,1.4l0.3,9.1
		C126.7,455.2,127.4,455.2,129,455.2z"/>
	<path fill="#FFFFFF" d="M64.2,556.1c-4.9,0-8.3,3.4-8.3,8.5c0,5,3.4,8.6,8.3,8.6c4.8,0,8.2-3.5,8.2-8.6
		C72.4,559.4,69,556.1,64.2,556.1z"/>
	<path fill="#FFFFFF" d="M48,476.6c7.7,0,13.6-2.1,18.6-6.2l-1.5,4.4l18.9,1.4l1.1-8.2h7.1l1.2,8l17.1-1.7l0,1.5l16.9,0.7l-0.2-11.9
		l0.4-0.1l13.5,17.2L152,473l-0.1,2.1l19.4,1.4l-1.2-32.8l-16.7,1.1l-1.1,23.7l-8.5-7.2V461c4.3-2.4,7.1-7.5,7.1-13.3
		c0-9.3-8-15.6-19.9-15.8c-7.1-0.1-15,1.6-20.9,3.4l0.5,31.9l-10.2-34.3l-20.7-0.6l-10.1,29.8l-6.3-9.5c-4.2,5.1-9.2,8.1-14,8.1
		c-5.8,0-9.4-4-9.4-10.6c0-6.3,3.7-10.4,9.3-10.4c3.8,0,8.1,1.4,11,3.5l7.4-12c-4-3.9-11.2-6-19.8-6C33,425,23,435.5,23,450.9
		C23,467.7,31.6,476.6,48,476.6z M129.3,444.6c3.3,0,5.1,1.9,5.1,5.4c0,3.5-2,5.2-5.4,5.2c-1.7,0-2.3,0-4-0.1l-0.3-9.1
		C125.7,445.2,127.1,444.6,129.3,444.6z M88.5,444.4h1.3l3.6,14.9h-7.8L88.5,444.4z"/>
	<polygon fill="#FFFFFF" points="169.5,428.6 153.4,429.9 152.7,440.9 170.4,440.5 	"/>
	<path fill="#FFFFFF" d="M214.6,468.9l-0.2,5.3c5.3,0.9,18.2,1.9,24.4,1.9c10.7,0,16.6-2.6,18.2-8.3l0.1,7.5l34.3,0.9l0.1-1.3
		l16.8,1.3l1.1-8.2h7.1l1.2,8l14.8-1.5l-0.1,0.6l19.4,1.4l-4.3-22.2l1-0.2l11.2,22.2l15.6-1.5l0.9-41.8l-17.9-0.2l2.6,18.8l-1.2,0.5
		l-7.8-19.8l-15.6,1.5l-2.8,29.6l-9.1-30.5l-20.7-0.6l-11.3,33.5l0.5-5.3l-19.2,2l-0.1-4.8l12.3-0.2l0.4-9l-12.9,0.9l-0.1-4.9
		l17.8,0.9l-0.6-13.3l-34.3,0.9l0.5,27c-1.1-3.3-3.9-4.9-8-6.3v-0.3c4.3-1.3,7.3-4.1,7.3-9.5c0-8.7-4.9-11.8-15.6-12.1
		c-9.9-0.3-20.6,0.9-24.4,1.2l-1.2,27.5c-1-3.6-3.8-5.3-8.2-6.7v-0.3c4.3-1.3,7.3-4.1,7.3-9.5c0-8.7-4.9-11.8-15.6-12.1
		c-9.9-0.3-20.6,0.9-24.4,1.2l-1.8,41.1c5.3,0.9,18.2,1.9,24.4,1.9C206.8,476.2,212.6,473.8,214.6,468.9z M312.8,444.4h1.3l3.6,14.9
		h-7.8L312.8,444.4z M235.1,440.9c3.2,0,4.2,2,4.2,4.8c0,3-1.7,4.5-4.7,4.5c-1.4,0-2.2-0.2-3.2-0.3l-0.1-8.1
		C232.4,441.5,233.7,440.9,235.1,440.9z M231.4,456.3c1.8-0.1,2.2-0.1,3.9-0.1c3.8,0,5.8,1.7,5.8,4.8c0,3.2-1.9,5-5.5,5
		c-2.4,0-3.5-0.6-4.5-1.3L231.4,456.3z M193,440.9c3.2,0,4.2,2,4.2,4.8c0,3-1.7,4.5-4.7,4.5c-1.4,0-2.2-0.2-3.2-0.3l-0.1-8.1
		C190.3,441.5,191.6,440.9,193,440.9z M189.1,464.7l0.3-8.4c1.8-0.1,2.2-0.1,3.9-0.1c3.8,0,5.8,1.7,5.8,4.8c0,3.2-1.9,5-5.5,5
		C191.2,466,190.1,465.4,189.1,464.7z"/>
	<polygon fill="#FFFFFF" points="74.4,517.6 73.1,517.6 67.9,480 48.2,480.8 61.5,531.3 85.2,530.6 97.8,481.4 78,479.5 	"/>
	<path fill="#FFFFFF" d="M246.4,488.8l-40.6-1.7l-1.1,13.5l-3.8-12.8l-20.7-0.6l-10.8,31.9l-5.3-8.7c-3.6,3.7-7.2,5.8-10.7,5.8
		c-5.4,0-8.1-3.5-8.1-8.2c0-4.4,2.7-8.1,7.7-8.1c3.5,0,7.2,1.7,9.9,4.5l7.4-11.3c-5-4.8-10.8-7.1-18.9-7.1c-12.6,0-21.3,8.6-22,21.3
		l-5.8-19.6l-20.7-0.6l-14.4,42.5l18.9,1.4l1.1-8.2h7.1l1.2,8l19.1-1.9l-1.1-3.7c3.8,4.1,9.5,6.2,17.2,6.2c5.7,0,10.5-1.5,14.9-4.6
		l-1,2.9l18.9,1.4l1.1-8.2h7.1l1.2,8l19.1-1.9l-7.8-26.3l12.6-0.2l-0.9,28.9l17.9-1.4l-1-27.7l13.6-0.2L246.4,488.8z M108.9,514.3
		l2.9-14.9h1.3l3.6,14.9H108.9z M186.2,514.3l2.9-14.9h1.3l3.6,14.9H186.2z"/>
	<polygon fill="#FFFFFF" points="264.5,483.6 248.4,484.9 247.7,495.9 265.4,495.5 	"/>
	<polygon fill="#FFFFFF" points="265,498.8 248.3,499.8 246.9,530.1 266.2,531.5 	"/>
	<path fill="#FFFFFF" d="M333.8,531.3l15.6-1.5l0.9-41.8l-17.9-0.2l2.6,18.8l-1.2,0.5l-7.8-19.8l-15.6,1.5l-1.5,15.5
		c-1.9-10.7-10.4-17.5-21.6-17.5c-12.8,0-21.9,8.8-21.9,22.1s9.1,22.1,21.9,22.1c9.5,0,17-4.9,20.2-12.8l-1.1,11.9l19.4,1.4
		l-4.3-22.2l1-0.2L333.8,531.3z M286.5,518.1c-4.9,0-8.3-3.5-8.3-8.6c0-5.1,3.4-8.5,8.3-8.5c4.8,0,8.2,3.4,8.2,8.5
		C294.7,514.6,291.3,518.1,286.5,518.1z"/>
	<path fill="#FFFFFF" d="M381.8,542.8l2.6,18.8l-1.2,0.5l-7.8-19.8l-14.8,1.4l0.2-0.9l-19.4-1.9l-2.6,29.6h-1.3l-4-27.2l-14.7,0.7
		l-3.7,24.2h-1.3l-4.1-26.1l-19,0.9l2.1,8c-3.8-5.8-10.4-9.2-18.3-9.2c-9.7,0-17.3,5.1-20.4,13.3c-2.8-8-9.7-11.6-18.2-12.9
		c-2.2-0.3-4.5-0.5-6.8-0.5c-5.9,0-11.9,1-17.6,2.5l0,1.3l-0.2-1.8l-40.6-1.7l-0.8,9.3l0.2-8.5l-17.9-0.2l2.6,18.8l-1.2,0.5
		l-7.8-19.8l-15.6,1.5l-1.4,14.3c-0.5-4.7-1.7-9.8-3.7-15.2l-15-0.8c1.9,18,3.7,29.3-3.5,29.3s-5.3-15.8-2.4-29.5l-15.5,1.9
		c-1.4,4.1-2.5,7.9-3.2,11.4c-3.1-8.3-10.7-13.3-20.4-13.3c-12.8,0-21.9,8.8-21.9,22.1c0,1.5,0.1,2.9,0.3,4.2l-3.7-5.7
		c-4.2,5.1-9.2,8.1-14,8.1c-5.8,0-9.4-4-9.4-10.6c0-6.3,3.7-10.4,9.3-10.4c3.8,0,8.1,1.4,11,3.5l7.4-12c-4-3.9-11.2-6-19.8-6
		c-14.6,0-24.6,10.4-24.6,25.8c0,16.8,8.6,25.7,25.1,25.7c9.6,0,16.5-3.3,22.2-9.6c3.8,5.7,10.3,9.1,18.2,9.1
		c9.4,0,16.8-4.8,20.1-12.6c2.4,8.5,9.5,12.7,21,12.7c11.1,0,18.3-5.1,21.4-13.6l-1.2,12.5l19.4,1.4l-4.3-22.2l1-0.2l11.2,22.2
		l15.6-1.5l0.6-26.9l13.1-0.2l-0.9,28.9l17.9-1.4l-1-27.7l12.7-0.2l0.3,26c6.2,1.8,12.4,2.9,18.7,2.9c11.5,0,20.3-3.8,23.5-13.2
		c3.1,8.2,10.6,13.2,20.3,13.2c12.5,0,21.6-8.5,21.9-21.4l5.5,20.9l20.2,0.7l3.2-16.3l0.6-0.1l1.9,16.1l22.2-0.7l9.1-36.1l-3.5,36
		l19.4,1.4l-4.3-22.2l1-0.2l11.2,22.2l15.6-1.5l0.9-41.8L381.8,542.8z M64.2,573.1c-4.9,0-8.3-3.5-8.3-8.6c0-5.1,3.4-8.5,8.3-8.5
		c4.8,0,8.2,3.4,8.2,8.5C72.4,569.6,69,573.1,64.2,573.1z M232.4,572.6c-1.5,0-3.6-0.5-4.3-1.3l-0.2-15.5c1.4-0.6,3-0.7,4.7-0.7
		c3.2,0,5.5,3.7,5.5,8.7C238,568.9,235.3,572.6,232.4,572.6z M273.6,573.1c-4.9,0-8.3-3.5-8.3-8.6c0-5.1,3.4-8.5,8.3-8.5
		c4.8,0,8.2,3.4,8.2,8.5C281.8,569.6,278.4,573.1,273.6,573.1z"/>
</g>
</svg>
