<?xml version="1.0" encoding="UTF-8"?>
<svg id="Layer_2" data-name="Layer 2" xmlns="http://www.w3.org/2000/svg" xmlns:xlink="http://www.w3.org/1999/xlink" viewBox="0 0 496.74 428.07">
  <defs>
    <style>
      .cls-1 {
        fill-rule: evenodd;
      }

      .cls-1, .cls-2 {
        fill: url(#linear-gradient);
      }

      .cls-2 {
        clip-rule: evenodd;
      }

      .cls-2, .cls-3 {
        stroke-width: 0px;
      }

      .cls-3 {
        fill: url(#linear-gradient-2);
      }

      .cls-4 {
        clip-path: url(#clippath);
      }
    </style>
    <linearGradient id="linear-gradient" x1="0" y1="214.03" x2="496.74" y2="214.03" gradientUnits="userSpaceOnUse">
      <stop offset=".2" stop-color="#def037"/>
      <stop offset=".5" stop-color="#fff" stop-opacity=".2"/>
      <stop offset=".8" stop-color="#e8ff00"/>
    </linearGradient>
    <clipPath id="clippath">
      <path class="cls-2" d="m380.67,65.51h.03c3.73-1.47,7.59-2.89,11.64-4.31l.07.12c13.8-4.78,24.29-7.75,31.32-8.82-9.69,5.69-17.43,11.55-23.33,17.64,21.71,25.38,37.17,56.3,43.97,90.3-54.79-32.74-120.43-31.63-171.47,3.52,12.09-10.05,24.35-18.39,33.04-22.85-8.26-.44-20.16,2.37-28.15,5.06,9.73-7.51,25.74-20.95,68.53-38.15,0,0-20.01-2.81-32.07-.83,7.78-4.35,27.08-16.73,63.37-25.11,0,0-9.76-.71-29.29-2.17,0,0,13.87-7.16,32.35-14.39Zm56.54,120.75c22.45,5.53,42.3,12.49,59.54,20.83-18.54-1.74-34.76-2.17-48.55-1.43-.71,24.16-5.66,47.25-14.2,68.52-28.03-48.31-76.5-78.64-131.19-81.17-1.22-.43-2.37-.87-3.51-1.26,14.03-.08,37.91-1.31,88.72,12.53,0,0-16.28-16.32-28.62-22.85,10.07,1.42,36.17,3.44,74.96,20.79,0,0-8.35-7.35-25.15-22.13,0,0,11.75,2.06,28,6.17Zm-18.5,118.33c13.95,15.78,31.43,36.77,40.17,53.41-17.13-15.34-37.02-28.7-51.44-37.01-18.98,24.87-43.65,45.15-72.08,58.91,12.4-45.86,2.6-91.29-24.2-124.34,2.14,1.82,4.11,3.6,5.81,5.26-2.6-9.29-10.16-21.43-16.09-29.26,11.9,7.99,32.74,20.68,67.73,61.56,0,0-4.36-23.16-11.03-35.74,7.47,6.76,27.32,22.7,49.34,57.41l.95-.95-7.43-28.98s7.91,7.67,18.42,19.41c-.04.12-.08.2-.15.32Zm-100.27,64.6c3.25,21.27,4.43,40.88,3.59,58.87-4.54-14.12-9.25-26.57-14.06-37.33-6.56,2.06-13.29,3.8-20.13,5.14-20.79-45.34-34.78-106.12-37.32-146.16,6.4,13.01,11.22,25.66,13.45,34.48,2.25-7.68,2.21-19.54,1.47-27.68,4.89,10.83,14.03,28.9,20.83,73.02,0,0,7.03-18.26,7.87-30.01,2.37,8.26,9.76,29.18,9.69,65.2,0,0,2.84-9.01,8.5-27.08,0,0,3.4,13.56,6.13,31.55ZM116.05,65.51h-.04c-3.67-1.47-7.55-2.89-11.58-4.31l-.08.12c-13.84-4.78-24.27-7.75-31.32-8.82,9.69,5.69,17.45,11.59,23.29,17.64-21.65,25.38-37.11,56.3-43.91,90.3,54.79-32.74,120.39-31.63,171.39,3.48-12.06-10.05-24.27-18.34-32.98-22.81,8.26-.44,20.16,2.37,28.15,5.06-9.73-7.51-25.78-20.95-68.56-38.15,0,0,20.04-2.81,32.06-.83-7.78-4.35-27.04-16.73-63.33-25.11,0,0,9.77-.71,29.26-2.17,0,0-13.84-7.16-32.35-14.39Zm-56.49,120.75c-22.46,5.53-42.31,12.49-59.55,20.83,18.54-1.74,34.76-2.17,48.56-1.43.71,24.16,5.69,47.25,14.19,68.52,28.04-48.31,76.46-78.64,131.15-81.17,1.22-.43,2.41-.87,3.52-1.26-14.03-.08-37.88-1.31-88.69,12.53,0,0,16.3-16.32,28.59-22.85-10.05,1.42-36.14,3.44-74.96,20.79,0,0,8.37-7.35,25.14-22.13,0,0-11.75,2.06-27.95,6.17Zm18.5,118.29c-13.97,15.82-31.44,36.81-40.17,53.45,17.16-15.34,37.01-28.74,51.44-37.01,18.98,24.87,43.65,45.15,72.04,58.91-12.42-45.86-2.58-91.29,24.23-124.34-2.14,1.82-4.11,3.6-5.81,5.26,2.62-9.29,10.17-21.43,16.09-29.26-11.9,7.99-32.77,20.68-67.72,61.56,0,0,4.34-23.16,11.03-35.74-7.48,6.76-27.37,22.7-49.35,57.41l-.99-.95,7.47-28.98s-7.89,7.67-18.42,19.41c.04.08.08.2.16.28Zm100.26,64.68c-3.23,21.27-4.43,40.88-3.59,58.83,4.55-14.12,9.25-26.57,14.08-37.33,18.82,5.89,38.83,9.06,59.58,9.06.79,0,1.62,0,2.41-.04-12.88-58.99-11.07-113.12-6.52-146.01-5.41,11.55-9.48,22.54-11.5,30.45-2.22-7.71-2.18-19.54-1.43-27.68-4.91,10.83-14.08,28.9-20.87,73.02,0,0-7.04-18.26-7.83-30.01-2.38,8.26-9.77,29.18-9.69,65.2,0,0-2.85-9.01-8.5-27.08,0,0-3.44,13.6-6.14,31.59ZM248.37,0c48.87,0,93.66,17.55,128.38,46.69-58.19,1.11-107.3,33.76-128.38,83.98-21.11-50.22-70.17-82.87-128.38-83.98C154.71,17.55,199.51,0,248.37,0Z"/>
    </clipPath>
    <linearGradient id="linear-gradient-2" x1=".35" y1="357.23" x2="484.48" y2="77.72" xlink:href="#linear-gradient"/>
  </defs>
  <g id="Layer_1-2" data-name="Layer 1">
    <g>
      <path class="cls-1" d="m380.67,65.51h.03c3.73-1.47,7.59-2.89,11.64-4.31l.07.12c13.8-4.78,24.29-7.75,31.32-8.82-9.69,5.69-17.43,11.55-23.33,17.64,21.71,25.38,37.17,56.3,43.97,90.3-54.79-32.74-120.43-31.63-171.47,3.52,12.09-10.05,24.35-18.39,33.04-22.85-8.26-.44-20.16,2.37-28.15,5.06,9.73-7.51,25.74-20.95,68.53-38.15,0,0-20.01-2.81-32.07-.83,7.78-4.35,27.08-16.73,63.37-25.11,0,0-9.76-.71-29.29-2.17,0,0,13.87-7.16,32.35-14.39Zm56.54,120.75c22.45,5.53,42.3,12.49,59.54,20.83-18.54-1.74-34.76-2.17-48.55-1.43-.71,24.16-5.66,47.25-14.2,68.52-28.03-48.31-76.5-78.64-131.19-81.17-1.22-.43-2.37-.87-3.51-1.26,14.03-.08,37.91-1.31,88.72,12.53,0,0-16.28-16.32-28.62-22.85,10.07,1.42,36.17,3.44,74.96,20.79,0,0-8.35-7.35-25.15-22.13,0,0,11.75,2.06,28,6.17Zm-18.5,118.33c13.95,15.78,31.43,36.77,40.17,53.41-17.13-15.34-37.02-28.7-51.44-37.01-18.98,24.87-43.65,45.15-72.08,58.91,12.4-45.86,2.6-91.29-24.2-124.34,2.14,1.82,4.11,3.6,5.81,5.26-2.6-9.29-10.16-21.43-16.09-29.26,11.9,7.99,32.74,20.68,67.73,61.56,0,0-4.36-23.16-11.03-35.74,7.47,6.76,27.32,22.7,49.34,57.41l.95-.95-7.43-28.98s7.91,7.67,18.42,19.41c-.04.12-.08.2-.15.32Zm-100.27,64.6c3.25,21.27,4.43,40.88,3.59,58.87-4.54-14.12-9.25-26.57-14.06-37.33-6.56,2.06-13.29,3.8-20.13,5.14-20.79-45.34-34.78-106.12-37.32-146.16,6.4,13.01,11.22,25.66,13.45,34.48,2.25-7.68,2.21-19.54,1.47-27.68,4.89,10.83,14.03,28.9,20.83,73.02,0,0,7.03-18.26,7.87-30.01,2.37,8.26,9.76,29.18,9.69,65.2,0,0,2.84-9.01,8.5-27.08,0,0,3.4,13.56,6.13,31.55ZM116.05,65.51h-.04c-3.67-1.47-7.55-2.89-11.58-4.31l-.08.12c-13.84-4.78-24.27-7.75-31.32-8.82,9.69,5.69,17.45,11.59,23.29,17.64-21.65,25.38-37.11,56.3-43.91,90.3,54.79-32.74,120.39-31.63,171.39,3.48-12.06-10.05-24.27-18.34-32.98-22.81,8.26-.44,20.16,2.37,28.15,5.06-9.73-7.51-25.78-20.95-68.56-38.15,0,0,20.04-2.81,32.06-.83-7.78-4.35-27.04-16.73-63.33-25.11,0,0,9.77-.71,29.26-2.17,0,0-13.84-7.16-32.35-14.39Zm-56.49,120.75c-22.46,5.53-42.31,12.49-59.55,20.83,18.54-1.74,34.76-2.17,48.56-1.43.71,24.16,5.69,47.25,14.19,68.52,28.04-48.31,76.46-78.64,131.15-81.17,1.22-.43,2.41-.87,3.52-1.26-14.03-.08-37.88-1.31-88.69,12.53,0,0,16.3-16.32,28.59-22.85-10.05,1.42-36.14,3.44-74.96,20.79,0,0,8.37-7.35,25.14-22.13,0,0-11.75,2.06-27.95,6.17Zm18.5,118.29c-13.97,15.82-31.44,36.81-40.17,53.45,17.16-15.34,37.01-28.74,51.44-37.01,18.98,24.87,43.65,45.15,72.04,58.91-12.42-45.86-2.58-91.29,24.23-124.34-2.14,1.82-4.11,3.6-5.81,5.26,2.62-9.29,10.17-21.43,16.09-29.26-11.9,7.99-32.77,20.68-67.72,61.56,0,0,4.34-23.16,11.03-35.74-7.48,6.76-27.37,22.7-49.35,57.41l-.99-.95,7.47-28.98s-7.89,7.67-18.42,19.41c.04.08.08.2.16.28Zm100.26,64.68c-3.23,21.27-4.43,40.88-3.59,58.83,4.55-14.12,9.25-26.57,14.08-37.33,18.82,5.89,38.83,9.06,59.58,9.06.79,0,1.62,0,2.41-.04-12.88-58.99-11.07-113.12-6.52-146.01-5.41,11.55-9.48,22.54-11.5,30.45-2.22-7.71-2.18-19.54-1.43-27.68-4.91,10.83-14.08,28.9-20.87,73.02,0,0-7.04-18.26-7.83-30.01-2.38,8.26-9.77,29.18-9.69,65.2,0,0-2.85-9.01-8.5-27.08,0,0-3.44,13.6-6.14,31.59ZM248.37,0c48.87,0,93.66,17.55,128.38,46.69-58.19,1.11-107.3,33.76-128.38,83.98-21.11-50.22-70.17-82.87-128.38-83.98C154.71,17.55,199.51,0,248.37,0Z"/>
      <g class="cls-4">
        <rect class="cls-3" width="496.74" height="428.07"/>
      </g>
    </g>
  </g>
</svg>