<?xml version="1.0" encoding="utf-8"?>
<!-- Generator: Adobe Illustrator 28.0.0, SVG Export Plug-In . SVG Version: 6.00 Build 0)  -->
<svg version="1.1" id="Layer_1" xmlns="http://www.w3.org/2000/svg" xmlns:xlink="http://www.w3.org/1999/xlink" x="0px" y="0px"
	 viewBox="0 0 256 256" enable-background="new 0 0 256 256" xml:space="preserve">
<path fill="#FFFFFF" d="M200.2,49.4l-10.1,107.4h-3.6l-14.6-106l-55.3,2.4l2.7,10.1C107.5,55.4,89.9,51,69.3,51
	C28.2,51,0.1,80.4,0.1,123.7c0,47.2,24.3,72.3,70.5,72.3c29.2,0,49.4-10.7,66.3-31.6l-23.7-36.1c-11.8,14.4-25.9,22.7-39.5,22.7
	c-16.4,0-26.5-11.1-26.5-29.8c0-17.6,10.5-29.4,26.1-29.4c10.7,0,22.9,3.8,31,9.9l17.6-28.6l32.2,122l66.7-2l35.3-138.4L200.2,49.4z
	"/>
</svg>
