<?xml version="1.0" encoding="utf-8"?>
<!-- Generator: Adobe Illustrator 28.0.0, SVG Export Plug-In . SVG Version: 6.00 Build 0)  -->
<svg version="1.1" id="Layer_2_00000088848443796505931550000007228650314821230996_"
	 xmlns="http://www.w3.org/2000/svg" xmlns:xlink="http://www.w3.org/1999/xlink" x="0px" y="0px" viewBox="0 0 2352.4 200"
	 style="enable-background:new 0 0 2352.4 200;" xml:space="preserve">
<style type="text/css">
	.st0{fill-rule:evenodd;clip-rule:evenodd;fill:#F7A904;}
	.st1{clip-path:url(#SVGID_00000008867305581967848030000004604144599251361212_);}
	.st2{fill:url(#SVGID_00000126281701906839342770000000667616406775434426_);}
	.st3{fill:#FFFFFF;}
</style>
<g id="Layer_1-2">
	<path class="st0" d="M154.6,21c6.4,0,11.5,5.1,11.5,11.5s-5.1,11.5-11.5,11.5s-11.4-5.1-11.4-11.5S148.3,21,154.6,21"/>
	<g>
		<defs>
			<path id="SVGID_1_" d="M29.3,29.3C54.5,4,89.9-4.9,122.3,2.5C93.9-2.3,63.7,6.2,41.7,28.1c-35.9,35.9-35.9,94.2,0,130.1
				c5.4,5.4,11.2,10,17.5,13.7c21.9,12.8,26.9-1.9,26-15.8c-2-30.9,2.7-60.5,12-76.1C86.2,86,78.8,98,79.6,114.5
				c-9.9-13.6-5.7-28.2,4.1-34.7c-13,3.8-24.6,14-31.1,30.8c-5.8-27,15.3-44.2,34.6-39.7c-11.8-5.4-22.9-6.7-33.2-4.4
				c-0.6,0.1-1.1,0.3-1.7,0.4c-0.7,0.2-1.4,0.4-2.2,0.6c-7.9,2.5-15.3,7-22.3,13.5C31,52.6,74.4,38.9,94.3,67.1
				c-9.3-15.6-24.4-23-40-22.2c17.5-14.7,43.6-3.1,46.5,18.7c0-0.1,0-0.2,0.1-0.2l0,0c0-0.1,0.1-0.2,0.1-0.2c0-0.1,0.1-0.2,0.1-0.3
				c0-0.1,0.1-0.2,0.1-0.3c0-0.1,0.1-0.2,0.1-0.3c0-0.1,0.1-0.2,0.1-0.3c0-0.1,0.1-0.2,0.1-0.3c0-0.1,0.1-0.2,0.1-0.3
				c0-0.1,0.1-0.2,0.1-0.3c0.1-0.1,0.1-0.2,0.1-0.3c0-0.1,0.1-0.2,0.1-0.3c5.5-15.4,18.1-21.5,32.9-21c-0.2,0-0.4,0-0.6,0.1
				c-12.7,1.6-26.2,14-27.4,26.1c14.3-17.8,41.7-14.6,49.7,7.4c-13.1-8.5-29.9-9.7-45.8-0.8c31.4-14.6,63.1,11.7,53.5,43.4
				c-7.2-19.7-24.5-34.2-49.1-36.6c19,5.8,28.6,31.2,10.1,51.7c2.9-19.1-2.9-34.5-13.7-44.3c6.3,10.5,3,26.3-13,33.5
				c7.8-12.2,8.5-24.6,4.1-34.5c-0.7-1.7-1.6-3.3-2.6-4.8c-21.8,64.1,10.8,139,71.9,78c21.9-21.9,30.5-52.2,25.6-80.6
				c7.4,32.4-1.5,67.8-26.8,93c-39.1,39.1-102.4,39.1-141.4,0C-9.7,131.7-9.7,68.4,29.3,29.3"/>
		</defs>
		<clipPath id="SVGID_00000081616655752410703410000011703431172169964204_">
			<use xlink:href="#SVGID_1_"  style="overflow:visible;"/>
		</clipPath>
		<g style="clip-path:url(#SVGID_00000081616655752410703410000011703431172169964204_);">
			
				<linearGradient id="SVGID_00000111891816133149011040000013941034061880035474_" gradientUnits="userSpaceOnUse" x1="129.2764" y1="-11.2111" x2="57.8765" y2="222.8789" gradientTransform="matrix(1 0 0 -1 0 200)">
				<stop  offset="0" style="stop-color:#FF2254"/>
				<stop  offset="0.25" style="stop-color:#FF3F47"/>
				<stop  offset="0.46" style="stop-color:#F25F41"/>
				<stop  offset="0.68" style="stop-color:#FF7D2C"/>
				<stop  offset="1" style="stop-color:#F2C822"/>
			</linearGradient>
			
				<rect x="-9.8" y="-4.9" style="fill:url(#SVGID_00000111891816133149011040000013941034061880035474_);" width="214.6" height="224.2"/>
		</g>
	</g>
	<path class="st3" d="M598.3,64.4c5.4,0.6,11.2-1.8,12.9-5.4c1.7-3.5-1.3-7-6.8-7.5c-5.4-0.6-11.2,1.8-12.9,5.4
		C589.8,60.4,592.8,63.8,598.3,64.4z"/>
	<path class="st3" d="M912.5,126.3c-8.8,0.8-4.7-22.5,13.6-48.2c7.7-10.8,1.4-12.5-6.2-11.3c-16.2,2.3-23.2,11.9-33.7,23.8
		c2.4-4.5,5-8.9,7.2-13c2.4-4.4,2.8-6.5,2.8-8.1c-0.3-5.4-28.6-1.4-24,3.1c1.4,1.4,1,3-0.3,5.9c-3.7,8-18.2,30.7-17.9,47
		c-1.1,0.5-2.3,0.8-3.4,0.8c-5.5,0-4.5-14.6,1.4-32.2c1.6-4.4,3.4-8.9,5.4-13.6c3.4-7.8,6.5-6.8,4.5-8.9c-7.2-7.4-19.3-2.3-20.8-0.1
		c-0.8-1.1-5.8-3.5-6.5-3.7c-19.7-5.2-38.6,10.8-46.9,30.5c-1.9,4.7-3.6,9.7-4.6,14.4c-7.4,6.3-16.6,13.2-21.6,14.2
		c-8.5,1.7-10.5-4.4-9.4-11.3c0.4-2.1,1-4.4,1.7-6.9c25.7,1.7,52.6-34.9,29.6-40.8c-15.1-4-29.8,4.5-39.5,17.6
		c-3.5,1.9-7.1,3.7-10.5,5.4c0-17.6-16.2-29.5-32.2-21.3c5.7-10.5,10.9-18.6,13.6-21.3c5.4-5.4,7.4-9.5,3.8-10.4
		c-22.4-5.2-39.8,25.7-49.3,50.8c-1.4,0.7-2.8,1.4-4.2,2.1c0-17.6-16.2-29.5-32.2-21.3c5.7-10.5,10.9-18.6,13.6-21.3
		c5.4-5.4,7.4-9.5,3.8-10.4c-31.2-7.2-52.6,55.3-56.6,75.1c-0.7,3.6-1,7-0.9,10.1c-2.2,1.8-4.5,3-6.7,3.2
		c-8.8,0.8-4.7-22.5,13.6-48.2c4.5-6.2,7.5-9.8,3.8-10.3c-16.5-3.1-25.2,6.9-33.7,23.2c-3.5,6.9-6.5,14.6-8.1,22
		c-0.5,2.3-0.8,4.5-0.9,6.6c-3.3,3.6-6.9,6.4-10.3,6.7c-16.9,1.3,8.8-39.7,10.9-45.2c4-10.5,1.8-19.4-15.9-10.9
		c-3.1,1.6-9.5,4.5-16.9,8.5v0.1c-0.3,0-0.8,0.4-1.8,0.8c-3.1-15.6-22-17.3-27.6-3.8c-2.7,6.4-0.7,14.2,8.5,16.9
		c-3.1,10.1-14.8,33.6-26.4,33.6c-5.5,0-4.4-14.8,1.6-32.3c1.4-4.4,3.3-8.9,5.4-13.5c3.4-7.8,6.4-6.9,4.4-8.9
		c-7.2-7.5-19.3-2.4-20.8-0.3c-0.9-1.1-5.8-3.5-6.4-3.7c-19.9-5.1-38.7,10.8-47.1,30.5c-2,5-3.7,9.9-4.7,14.7
		c-0.7,3.5-0.7,6.9-0.3,10c-2.3-6-7-11.1-13.9-14.9c-3.7-2.1-10.2-3.7-9.4-0.1c7.7,28.8-23.2,71.4-51.9,73.6
		c-18.1,1.4-28.8-18-19-60.7c7.4-32.5,22.1-59.8,37.7-76.6c5.5-6,11.6-4.8,13-8.9c0.4-2.3-5.4-4.4-8.5-4.5c-3.1-0.3-5.7,0.1-0.1-1.3
		c62.1-15.4,49.9,39.3,28.1,47.9c-1,0.3-4,0.7-3.7,2.3c0.3,2.4,14.5,7.2,24.8,5.2c48.5-8.8,21.1-102.1-86.2-67.3
		c-41.3,13.3-76.1,42-74.9,70.8c1.1,25.2,30.1,31.2,26.1,26.4c0,0-10.4-14.2-1.7-31.5c6.8-13.3,31.6-30.1,55.9-41
		c-43.8,51.3-57.3,146.4-0.1,155.1c32.5,5,84.6-32.5,85.4-64.9c0-1.5,0-2.9-0.2-4.3c4.1,11.1,15.3,17.6,26.8,13.8
		c5.1-1.7,10.6-5.7,16-10.4c2.1,6.1,6.1,10.1,11.8,10.9c21.4,3.7,53.3-25.5,58-51c2.3-1.4,4.8-2.4,7.2-3.5
		c-2.7,5.7-7.2,19.4-8.4,25.1c-4,19.4,5,33.9,21,28.6c5.5-1.8,10.5-6.2,14.8-11.2c2.7,9.6,10.2,14.8,20.8,11.3
		c4.4-1.4,8.6-4.6,12.2-8.4c2.3,5.3,6.4,8.8,11.9,9.4c0.4,0,4.7,0.6,3.5-1.4l-0.1-0.3c0.7,0.4,1.7,0.7,2.7,1c7,1.8,13.8,1,20-1.6
		c15.3-6.4,25.2-21.7,29.9-37.2c0.6-0.3,1.3-0.6,1.9-1c-1.2,4.2-2.2,7.9-2.7,10.7c-3.3,15.9,2.1,28.5,13,29.6c0.4,0,4.7,0.6,3.5-1.4
		l-0.1-0.3c0.7,0.4,1.7,0.7,2.7,1c7,1.8,13.8,1,20-1.6c15.3-6.4,25.2-21.7,29.9-37.2c1.5-0.7,2.9-1.5,4.3-2.3
		c-1.5,4-2.8,8.1-3.6,12.1c-4,19.4,11.8,34.2,27.8,28.9c7.4-2.4,16.1-9.9,23.4-17.2c2.8,13.1,15.2,21.4,27.8,17.2
		c5-1.7,10.6-5.7,16-10.4c3,8.8,10.3,13.3,20.4,10.1c3.5-1.1,6.7-3.3,9.7-6c2.4,3.3,6.3,5.8,12.2,6.9c0.6,0.1,4.7,0.6,3.5-1.4
		c-7.1-11.9,8.2-42.4,21.3-45.7c-2.7,5.7-4.8,11.6-6,17.4c-4,19.4,5,33.9,21,28.6c16-5.2,28.1-32.3,28.1-32.3l-3.4-5.2
		C933.7,104.1,922.3,125.6,912.5,126.3L912.5,126.3z M462.3,86.6c-1.6,3.5-3.3,5.7-5.8,6.9c-8.2,4-1,6.9,4.5,4.8
		c-3.5,14.6-6.2,26.9-17.6,28.4c-8.5,1.3-10.4-4.4-9.2-11.3c1.4-9.2,7-21.3,12.2-28.8c5.4-7.7,10.2-10.6,13.2-10.2
		C462.5,76.9,464.7,80.8,462.3,86.6L462.3,86.6z M510.5,84.4c-2.5-0.3-4.5-2.7-5-5.1c-0.6-2.3-0.6-4.7,1.1-5.8
		C510.9,70.6,512.6,78,510.5,84.4L510.5,84.4z M618.7,133.1c-10.1-1-1-8.1-6.8-8.1c-0.6,0-1.3,0.3-2,0.7
		c2.1-10.6,6.4-21.1,10.6-30.9c2.1,6.7,8.9,13.5,19,14.5C636.7,115.7,627.3,133.9,618.7,133.1L618.7,133.1z M644.1,95.8
		c-10.8-0.1-12-10.2-6.5-13.3C645.5,78.5,646.6,88.9,644.1,95.8z M686.9,133.1c-10.1-1-1-8.1-6.8-8.1c-0.6,0-1.3,0.3-2,0.7
		c2.1-10.6,6.4-21.1,10.6-30.9c2.1,6.7,8.9,13.5,19,14.5C704.9,115.7,695.6,133.9,686.9,133.1z M712.3,95.8
		c-10.8-0.1-12-10.2-6.5-13.3C713.7,78.5,714.8,88.9,712.3,95.8z M778.9,86.5c-4.2,9.9-16.3,13.3-22.1,14.3
		C769.8,70.5,785.1,72,778.9,86.5z M831.4,86.8c-1.4,3.5-3.3,5.5-5.7,6.8c-8.2,4.1-1.1,7.1,4.5,5c-3.5,14.6-6.2,26.9-17.6,28.3
		c-8.7,1.1-10.5-4.4-9.4-11.3c1.6-9.2,7.1-21.3,12.3-28.8c5.2-7.7,10.2-10.6,13.2-10.2C831.7,77,833.9,80.9,831.4,86.8z"/>
	<path class="st3" d="M1189.8,41.7c13-1.3,13.2,8.9,15.4,4.4c1.8-4-0.3-25.8-20.4-27.4c-28.1-2.1-54.6,18.7-76.1,45.9
		c-36.4,45.8-53,95.3-51.3,110.2c0,0-5.8-7.4-6.8-30.9c-1.3-28.4,19.1-88.3,40-107.9c1.8-1.8,3.3-3.4,4.2-4.8c2.6,0,4.8,0.1,6.8,0.7
		c7.2,2.1,10.1,6.1,11.5,6c2.7-0.6-3-21.5-14.7-25.9c-13.5-5.1-35.7,1.8-48.2,5.8c-41.3,13.5-76.1,42-74.9,70.8
		c1,25.2,30.1,31.2,26.1,26.5c0,0-10.5-14.2-1.7-31.6c7.1-13.9,34-31.8,59.4-42.5c-26.1,33.2-38.6,108-13.8,141.1
		c8.5,11.5,17.7,16.4,19.7,16.7c4.1,0.9,5.1-2.3,4.7-5.5C1062.9,145.8,1158,44.4,1189.8,41.7L1189.8,41.7z"/>
	<path class="st3" d="M1396.8,64.4c5.4,0.6,11.2-1.8,12.9-5.4c1.7-3.5-1.3-7-6.8-7.5c-5.4-0.6-11.2,1.8-12.9,5.4
		C1388.3,60.4,1391.2,63.8,1396.8,64.4z"/>
	<path class="st3" d="M1509.9,126.3c-8.8,0.8-4.7-22.5,13.6-48.2c7.7-10.8,1.4-12.5-6.2-11.3c-16.2,2.3-23.2,11.9-33.7,23.8
		c2.4-4.5,5-8.9,7.2-13c2.4-4.4,2.8-6.5,2.8-8.1c-0.3-5.4-28.6-1.4-24,3.1c1.4,1.4,1,3-0.3,5.9c-0.9,2-2.5,4.8-4.3,8.2
		c-2.7,1.4-5.5,2.8-8.2,3.9c-0.1-6.4-2-12.2-5.9-16.7c-4.5-5-10.9-7.8-17.7-7.1c-13.6,0.1-37.1,16.7-43.1,46.1
		c-0.8,4-0.8,7.8-0.1,11.2c-1.8,1.2-3.6,2-5.3,2.1c-8.8,0.8-4.7-22.5,13.6-48.2c4.5-6.2,7.5-9.8,3.8-10.3
		c-16.4-3.1-25.2,6.9-33.7,23.2c-3.5,6.9-6.5,14.6-8.1,22c-0.5,2.3-0.8,4.5-0.9,6.7c-3.9,3.6-7.9,6.4-11.2,6.7
		c-3.7,0.4-5.1-3.6-4.2-10.1c1-6.2,8.9-25.8,17.3-42.2c9.6-2.6,18.4-5.1,20.8-5.7c5.5-1.6,6.9-4,3.1-6.1c-1.4-0.7-8.8-0.4-17.9,0.4
		c1.7-3.1,3.4-5.8,5-7.9c4.4-6.1,7.4-9.6,3.8-10.4c-11.6-2.1-19.4,2.1-25.9,10.6c-1.8,2.4-4.1,5.8-6.5,9.9c-9.4,1.1-16.6,2-16.6,2
		c-1.6,0.3-2.7,1-3.3,2c-7-3.1-15.6,0.8-16.9,2.6c-0.8-1.1-5.8-3.5-6.5-3.7c-19.7-5.2-38.6,10.8-46.9,30.5c-2,4.8-3.7,9.9-4.7,14.7
		c0,0.1,0,0.3-0.1,0.4c-7.3,6.1-15.9,12.5-20.8,13.5c-8.5,1.7-10.5-4.4-9.4-11.3c1.7-10.5,9.2-26.1,16.2-33.6
		c3.8-4.1,7.2-5.5,9.5-5.4c10.1,1,1,8.1,6.8,8.1c5.1,0,11.8-13.6-1.1-16.9c-19.7-5.2-38.6,10.8-46.9,30.5c-2,4.8-3.7,9.9-4.7,14.7
		c-0.7,3.6-0.8,7-0.3,10.2c-2.3,1.9-4.8,3.2-7.1,3.1c-5.5,0-4.5-14.6,1.4-32.2c1.6-4.4,3.4-8.9,5.4-13.6c3.4-7.8,6.5-6.8,4.5-8.9
		c-7.2-7.4-19.3-2.3-20.8-0.1c-0.8-1.1-5.8-3.5-6.5-3.7c-19.7-5.2-38.6,10.8-46.9,30.5c-2,4.8-3.7,9.9-4.7,14.7
		c-4,19.4,11.8,34.2,27.8,28.9c5-1.7,10.6-5.7,16-10.4c3,8.8,10.3,13.3,20.4,10.1c5-1.6,9.6-5.4,13.5-9.7c5,8.7,15,13.3,25.1,10
		c7.2-2.4,15.6-9.5,22.8-16.7c3.1,12.8,15.3,20.7,27.7,16.7c5-1.7,10.6-5.7,16-10.4c3,8.8,10.3,13.3,20.4,10.1
		c4.4-1.4,8.6-4.6,12.2-8.3c3.4,7.4,10.3,11.2,19.7,8.3c5.5-1.7,10.9-6,15.7-10.9c2.8,9.3,10.2,14.3,20.7,10.9
		c4.5-1.5,8.7-4.7,12.4-8.5c4.4,6.6,11.8,10.5,19.7,9.6v0.1c17.7-0.7,36-20.3,41.7-39.8c0.9-0.5,1.8-0.9,2.7-1.4
		c-7.5,17-12,36.8,9,41c0.6,0.1,4.7,0.6,3.5-1.4c-7.1-11.9,8.2-42.4,21.3-45.7c-2.7,5.7-4.8,11.6-5.9,17.4c-4,19.4,5,33.9,21,28.6
		c16-5.2,28.1-32.3,28.1-32.3l-3.4-5.2C1531.2,104.1,1519.7,125.6,1509.9,126.3L1509.9,126.3z M1171.6,86.8
		c-1.4,3.5-3.3,5.5-5.7,6.8c-8.2,4.1-1.1,7.1,4.5,5c-3.5,14.6-6.2,26.9-17.6,28.3c-8.7,1.1-10.5-4.4-9.4-11.3
		c1.6-9.2,7.1-21.3,12.3-28.8c5.2-7.7,10.2-10.6,13.2-10.2C1171.9,77,1174.2,81,1171.6,86.8z M1297.1,86.8c-1.4,3.5-3.3,5.5-5.7,6.8
		c-8.2,4.1-1.1,7.1,4.5,5c-3.5,14.6-6.2,26.9-17.6,28.3c-8.7,1.1-10.5-4.4-9.4-11.3c1.6-9.2,7.1-21.3,12.3-28.8
		c5.2-7.7,10.2-10.6,13.2-10.2C1297.4,77,1299.6,81,1297.1,86.8z M1317.8,94.2c1.6-4.4,3.4-8.9,5.4-13.6c0.6-1.3,1.1-2.4,1.7-3.2
		c1.4,2,3.3,3.5,5.3,3.5c1,0.1,3.1-0.1,5.9-0.7c-6.6,14.2-12.4,30.9-12.6,43.1c-2.3,1.9-4.8,3.2-7.1,3.2
		C1310.8,126.3,1311.8,111.7,1317.8,94.2L1317.8,94.2z M1419.7,126.9c-8.5,1.7-10.5-4.4-9.4-11.3c1-5.9,3.8-13.8,7.4-20.6
		c3.5,8.8,12.1,14.6,22,13.5h0.1C1435.8,116.6,1428.9,123.8,1419.7,126.9z M1444.3,94.3c-8.8-0.4-13.8-12.1-10.2-16.3
		c3.7-4.5,8.5,1.7,9.6,5.4C1444.6,86.5,1444.8,90.3,1444.3,94.3L1444.3,94.3z"/>
	<path class="st3" d="M1723.3,104.4c-3.9-2.2-10.7-3.9-9.8-0.2c8.1,30.3-24.4,75.1-54.6,77.4c-19.1,1.5-30.3-18.9-20-63.8
		c7.8-34.1,23.2-62.9,39.7-80.5c5.8-6.3,12.2-5.1,13.7-9.4c0.4-2.4-5.7-4.6-8.9-4.8c-3.3-0.3-6,0.1-0.2-1.3
		c65.3-16.2,52.5,41.3,29.5,50.4c-1,0.3-4.2,0.7-3.9,2.4c0.3,2.5,15.2,7.6,26.1,5.5c51-9.2,22.2-107.3-90.6-70.8
		c-43.4,14-80,44.1-78.7,74.4c1.2,26.5,31.6,32.8,27.4,27.7c0,0-10.9-14.9-1.8-33.1c7.2-14,33.2-31.6,58.7-43.1
		c-46.1,54-60.2,154-0.2,163.1c34.1,5.2,89-34.1,89.7-68.3C1739.8,119.3,1734.2,110.5,1723.3,104.4L1723.3,104.4z"/>
	<path class="st3" d="M2348.9,100.4c0,0-12.1,22.7-22.4,23.4c-9.2,0.9-4.9-23.7,14.3-50.7c8.1-11.3,1.5-13.1-6.6-11.9
		c-17,2.4-24.4,12.5-35.5,25c2.5-4.8,5.2-9.4,7.6-13.7c2.5-4.6,3-6.9,3-8.5c-0.3-5.7-30.1-1.5-25.2,3.3c1.5,1.5,1,3.1-0.3,6.3
		c-1.5,3.2-4.6,8.7-8,15.3c-2.3-0.4-4.4-1.3-6.3-2.9c4.6-7,12.7-20.3,10.9-28.8c-2.2-11.9-29.1-11.8-33.5,8.2
		c-1.5,6.1-1.6,13.9,3.3,22.5c-9.8,16.4-24.1,33.7-34.6,35.9c-3.9,0.9-1-23.7,18.3-50.7c4.6-6.6,7.8-10.3,4-10.9
		c-17.4-3.3-26.7,7.3-35.6,24.4c-3.3,6.4-6.1,13.4-7.8,20.3c-4.5,6.7-11.9,16.4-18.5,16.8c-9.2,0.9-4.9-23.7,14.3-50.7
		c4.8-6.6,7.9-10.3,4-10.9c-16.5-3.1-25.7,6.4-34.2,22.1c-1.5,0.7-2.9,1.4-4.4,2c-0.1-6.7-2.1-12.8-6.3-17.6
		c-4.8-5.2-11.5-8.2-18.6-7.5c-14.3,0.2-39.1,17.6-45.3,48.4c-0.8,4.2-0.8,8.1-0.1,11.7c-2.1,1.4-4.1,2.3-6.2,2.3
		c-11.2,0,3-55.9,29.8-82.1c5.7-5.7,7.8-10,4-10.9c-18.3-4.2-33.4,14.3-43.8,35.3c-1.5-1.8-3.7-3.1-6.9-3.9
		c-20.7-5.5-40.5,11.3-49.3,32c-2.1,5.1-3.9,10.4-4.9,15.5c-0.3,1.6-0.5,3.1-0.6,4.6c-4.8,4.9-10.1,9.1-14.2,9.4
		c-3.9,0.3-5.4-3.9-4.5-10.6c0.9-6.6,9.2-27.3,18-44.6c10.3-2.7,19.5-5.2,21.9-6c5.8-1.6,7.4-4.2,3.3-6.4c-1.5-0.7-9.2-0.3-18.8,0.5
		c1.9-3.1,3.7-6,5.4-8.3c4.6-6.4,7.8-10.1,4-10.9c-12.2-2.2-20.4,2.4-27.3,11.2c-1.9,2.5-4.3,6.1-6.9,10.6c-9.8,1-17.6,2.1-17.6,2.1
		c-8.5,1.6-2.7,14.3,3.3,14.6c1,0,3.3-0.3,6.3-0.9l-0.3,0.6c-7.2,12.2-28.5,47.4-37,48.1c-9.1,0.7-4.9-23.8,14.5-50.8
		c7.9-11.2,1.3-13.1-6.7-11.9c-17,2.4-24.4,12.7-35.5,25c2.5-4.6,5.2-9.2,7.6-13.7c2.5-4.6,3-6.9,3-8.5c-0.2-5.7-30.1-1.3-25,3.4
		c1.5,1.3,1,3-0.4,6.1c-3.8,8.3-18.4,31.3-18.8,48.3c-1.8,1.2-3.6,1.9-5.3,2.1c-9.1,0.9-4.9-23.7,14.5-50.7c4.6-6.6,7.8-10.3,4-10.9
		c-17.4-3.3-26.7,7.3-35.5,24.4c-3.9,7.3-7,15.3-8.6,23.1c-0.8,4.2-11,13.7-15.9,14c-9.2,0.9-4.9-23.7,14.3-50.7
		c4.8-6.6,7.9-10.3,4-10.9c-15.3-2.9-24.2,5-32.3,18.7c-3.6,1.9-7.4,3.8-11.1,5.4c-0.2-6.7-2.1-12.8-6.3-17.6
		c-4.8-5.2-11.5-8.2-18.6-7.5c-14.3,0.2-39.1,17.6-45.3,48.4c-3.7,18.5,9.5,32.9,24.4,31.3v0.1c18.6-0.7,37.9-21.3,43.8-41.9
		c1.8-0.9,3.7-2,5.5-3c-1.8,4.5-3.2,9-4.2,13.5c-4.2,20.4,5.2,35.6,22.1,30.1c7.3-2.4,13.9-9.2,18.9-15.9
		c1.6,12.5,10.1,20.1,22.7,15.9c4.1-1.3,7.9-4,11.4-7.3c2.4,3.9,6.6,6.9,13.5,8.2c0.6,0.1,5.1,0.6,3.7-1.5
		c-7.4-12.5,8.6-44.6,22.4-48c-2.7,6-4.9,12.4-6.3,18.3c-4,20.4,5.4,35.6,22.1,30.1c15.7-5.1,27.9-30,29.7-33.7
		c-2.4,10-3,18.9-0.3,24.9c3.4,7.9,10.7,11.9,20.7,8.8c6.8-2.1,13.6-8.1,19.2-14.4c4.2,11.8,16.2,18.8,28.3,14.8
		c5.2-1.8,11.2-6,16.8-10.9c3.1,9.2,10.9,14,21.5,10.6c4.9-1.6,9.4-5.1,13.4-9.3c4.6,7.2,12.5,11.4,20.9,10.5v0.1
		c16.4-0.7,33.2-16.6,41.1-34.5c-0.3,1-0.5,2-0.7,3c-4.2,20.4,5.2,35.6,22.1,30.1c8.1-2.7,15.2-10.6,20.4-18.2
		c1,13.6,9.4,21.5,22.9,18.2c13.4-3.4,31.1-22.9,44.9-41.3c2.7,2.1,5.8,3,9.2,3.2c-6.8,16.9-9.3,35.1,11.1,39.1
		c0.6,0.1,4.9,0.6,3.7-1.5c-7.4-12.5,8.6-44.6,22.4-48c-2.8,6-5.1,12.2-6.3,18.3c-4.2,20.4,5.2,35.6,22.1,30.1
		c16.8-5.5,29.5-34,29.5-34L2348.9,100.4L2348.9,100.4z M1771,124.4c-8.9,1.8-11-4.6-9.8-11.9c1-6.3,4-14.5,7.8-21.6
		c3.7,9.2,12.7,15.3,23.1,14.2h0.2C1787.8,113.5,1780.7,121.1,1771,124.4L1771,124.4z M1796.8,90.1c-9.2-0.4-14.5-12.7-10.7-17.1
		c3.9-4.8,8.9,1.8,10.1,5.7C1797.1,81.9,1797.4,85.9,1796.8,90.1L1796.8,90.1z M2059.1,82.2c-1.5,3.7-3.4,5.8-6,7.2
		c-8.6,4.3-1.2,7.4,4.8,5.2c-3.7,15.8-5.2,27.9-18.5,29.8c-8.9,1.3-11-4.6-9.8-11.9c1.6-9.7,7.4-22.4,13-30.3
		c5.5-8.1,10.7-11.2,13.9-10.7C2059.4,71.9,2061.8,76.1,2059.1,82.2z M2116.8,124.4c-8.9,1.8-11-4.6-9.8-11.9c1-6.3,4-14.5,7.8-21.6
		c3.7,9.2,12.7,15.3,23.1,14.2h0.1C2133.6,113.5,2126.5,121.1,2116.8,124.4L2116.8,124.4z M2142.6,90.1
		c-9.2-0.4-14.5-12.7-10.7-17.1c3.9-4.8,8.9,1.8,10.1,5.7C2142.9,81.9,2143.2,85.9,2142.6,90.1L2142.6,90.1z M2258.1,73.1
		c-7-10.6,2.8-19.4,4-13.4C2262.7,63.1,2260.8,67.8,2258.1,73.1z"/>
</g>
</svg>
