<?xml version="1.0" encoding="UTF-8"?><svg id="Layer_2" xmlns="http://www.w3.org/2000/svg" xmlns:xlink="http://www.w3.org/1999/xlink" viewBox="0 0 2352.43 200"><defs><style>.cls-1{clip-rule:evenodd;fill:none;}.cls-1,.cls-2,.cls-3,.cls-4{stroke-width:0px;}.cls-2{fill:#f7a904;fill-rule:evenodd;}.cls-3{fill:url(#New_Gradient_Swatch_1);}.cls-5{clip-path:url(#clippath);}.cls-4{fill:#ff2652;}</style><clipPath id="clippath"><path class="cls-1" d="m29.3,29.29C54.53,4.04,89.91-4.87,122.32,2.51c-28.41-4.85-58.66,3.7-80.59,25.63-35.92,35.94-35.92,94.19,0,130.13,5.38,5.38,11.21,10.04,17.48,13.72,21.88,12.8,26.87-1.91,25.99-15.76-1.96-30.93,2.72-60.52,11.98-76.1-10.98,5.83-18.36,17.83-17.59,34.37-9.88-13.63-5.68-28.19,4.08-34.68-13.04,3.79-24.58,13.98-31.13,30.8-5.75-27.03,15.28-44.25,34.63-39.73-11.84-5.36-22.9-6.7-33.22-4.42-.56.13-1.13.26-1.69.41-.72.18-1.44.39-2.16.61-7.86,2.46-15.28,7.03-22.27,13.5,3.17-28.39,46.52-42.12,66.44-13.89-9.28-15.63-24.36-23.01-39.97-22.18,17.47-14.69,43.58-3.09,46.49,18.68.02-.08.04-.15.05-.22h0c.02-.09.06-.17.08-.24.02-.13.06-.24.09-.35.04-.13.08-.24.12-.35.02-.13.05-.24.09-.35.04-.11.06-.22.1-.35.03-.11.07-.22.11-.33.04-.13.07-.24.11-.35.04-.11.08-.22.12-.33.05-.13.09-.24.13-.35.03-.11.07-.22.11-.33,5.48-15.37,18.07-21.46,32.93-21.03-.21.04-.39.05-.59.07-12.73,1.59-26.19,13.98-27.44,26.12,14.27-17.78,41.68-14.63,49.67,7.42-13.11-8.54-29.91-9.67-45.76-.76,31.39-14.59,63.13,11.74,53.48,43.39-7.17-19.66-24.53-34.18-49.13-36.61,19.03,5.77,28.62,31.18,10.14,51.73,2.94-19.12-2.9-34.5-13.65-44.26,6.27,10.54,3.01,26.28-13.04,33.46,7.82-12.23,8.49-24.56,4.09-34.53-.74-1.66-1.61-3.27-2.63-4.79-21.77,64.09,10.75,139.04,71.94,78.02,21.95-21.9,30.46-52.16,25.63-80.57,7.38,32.41-1.53,67.77-26.78,93.02-39.05,39.05-102.38,39.05-141.43,0-39.06-39.07-39.06-102.38,0-141.43"/></clipPath><linearGradient id="New_Gradient_Swatch_1" x1="129.28" y1="211.21" x2="57.88" y2="-22.88" gradientUnits="userSpaceOnUse"><stop offset="0" stop-color="#ff2254"/><stop offset=".25" stop-color="#ff3f47"/><stop offset=".46" stop-color="#f25f41"/><stop offset=".68" stop-color="#ff7d2c"/><stop offset="1" stop-color="#f2c822"/></linearGradient></defs><g id="Layer_1-2"><path class="cls-2" d="m154.65,21c6.35,0,11.47,5.13,11.47,11.47s-5.12,11.45-11.47,11.45-11.45-5.12-11.45-11.45,5.12-11.47,11.45-11.47"/><g class="cls-5"><rect class="cls-3" x="-9.77" y="-4.87" width="214.65" height="224.16"/></g><path class="cls-4" d="m598.28,64.38c5.39.57,11.2-1.84,12.9-5.39,1.7-3.54-1.28-6.95-6.81-7.51-5.39-.57-11.2,1.84-12.9,5.39-1.7,3.54,1.28,6.95,6.81,7.51Z"/><path class="cls-4" d="m912.46,126.34c-8.79.85-4.68-22.54,13.61-48.2,7.66-10.78,1.42-12.48-6.24-11.34-16.16,2.27-23.25,11.91-33.74,23.82,2.41-4.54,4.96-8.93,7.23-13.04,2.41-4.39,2.84-6.52,2.84-8.08-.28-5.39-28.64-1.42-23.96,3.12,1.42,1.42.99,2.98-.28,5.95-3.67,8-18.19,30.72-17.9,47.01-1.13.5-2.26.78-3.36.76-5.53,0-4.54-14.6,1.42-32.18,1.56-4.4,3.4-8.93,5.39-13.61,3.4-7.8,6.52-6.81,4.54-8.93-7.23-7.37-19.28-2.27-20.84-.14-.85-1.13-5.81-3.54-6.52-3.69-19.71-5.25-38.56,10.78-46.93,30.48-1.94,4.72-3.61,9.71-4.61,14.44-7.42,6.27-16.56,13.22-21.62,14.2-8.51,1.7-10.49-4.39-9.36-11.34.43-2.13.99-4.39,1.7-6.95,25.66,1.7,52.6-34.88,29.63-40.83-15.14-4.03-29.77,4.5-39.53,17.6-3.53,1.91-7.07,3.74-10.51,5.37,0-17.58-16.16-29.49-32.18-21.27,5.67-10.49,10.92-18.57,13.61-21.27,5.39-5.39,7.37-9.5,3.83-10.35-22.44-5.2-39.81,25.69-49.27,50.83-1.4.71-2.8,1.4-4.18,2.06,0-17.58-16.16-29.49-32.18-21.27,5.67-10.49,10.92-18.57,13.61-21.27,5.39-5.39,7.37-9.5,3.83-10.35-31.19-7.23-52.6,55.29-56.57,75.14-.73,3.58-1.03,6.99-.92,10.14-2.23,1.8-4.53,3.03-6.74,3.19-8.79.85-4.68-22.54,13.61-48.2,4.54-6.24,7.51-9.78,3.83-10.35-16.45-3.12-25.24,6.95-33.74,23.25-3.54,6.95-6.52,14.6-8.08,21.97-.47,2.28-.75,4.48-.87,6.6-3.3,3.57-6.94,6.43-10.34,6.73-16.87,1.28,8.79-39.7,10.92-45.23,3.97-10.49,1.84-19.42-15.88-10.92-3.12,1.56-9.5,4.54-16.87,8.51v.14c-.28,0-.85.43-1.84.85-3.12-15.6-21.97-17.3-27.65-3.83-2.69,6.38-.71,14.18,8.51,16.87-3.12,10.07-14.75,33.6-26.37,33.6-5.53,0-4.4-14.75,1.56-32.32,1.42-4.4,3.26-8.93,5.39-13.47,3.4-7.8,6.38-6.95,4.4-8.93-7.23-7.51-19.28-2.41-20.84-.28-.85-1.13-5.81-3.54-6.38-3.69-19.85-5.1-38.7,10.77-47.07,30.48-1.98,4.96-3.69,9.92-4.68,14.74-.69,3.51-.74,6.87-.28,9.99-2.26-5.99-6.96-11.05-13.91-14.95-3.69-2.13-10.21-3.69-9.36-.14,7.66,28.78-23.25,71.45-51.89,73.58-18.15,1.42-28.78-18.01-19-60.68,7.37-32.47,22.12-59.83,37.71-76.56,5.53-5.95,11.63-4.82,13.04-8.93.43-2.27-5.39-4.4-8.51-4.54-3.12-.28-5.67.14-.14-1.28,62.1-15.45,49.9,39.27,28.07,47.92-.99.28-3.97.71-3.69,2.27.28,2.41,14.46,7.23,24.81,5.25,48.49-8.79,21.12-102.08-86.2-67.34-41.26,13.33-76.13,41.97-74.86,70.75,1.13,25.24,30.06,31.19,26.09,26.37,0,0-10.35-14.18-1.7-31.47,6.81-13.33,31.62-30.06,55.86-40.97-43.81,51.32-57.28,146.45-.14,155.1,32.47,4.96,84.64-32.47,85.35-64.93.04-1.48-.05-2.92-.25-4.32,4.07,11.09,15.31,17.57,26.76,13.82,5.1-1.7,10.63-5.67,16.02-10.35,2.13,6.1,6.1,10.07,11.77,10.92,21.41,3.69,53.31-25.52,57.99-51.04,2.27-1.42,4.82-2.41,7.23-3.54-2.69,5.67-7.23,19.42-8.36,25.09-3.97,19.42,4.96,33.88,20.98,28.64,5.47-1.81,10.51-6.2,14.76-11.17,2.68,9.58,10.19,14.79,20.83,11.31,4.44-1.45,8.58-4.59,12.24-8.36,2.3,5.32,6.38,8.78,11.87,9.35.43,0,4.68.57,3.54-1.42l-.14-.28c.71.43,1.7.71,2.69.99,6.95,1.84,13.75.99,19.99-1.56,15.31-6.38,25.24-21.69,29.91-37.15.63-.31,1.26-.64,1.88-.96-1.25,4.23-2.17,7.92-2.73,10.74-3.26,15.88,2.13,28.5,13.04,29.63.43,0,4.68.57,3.54-1.42l-.14-.28c.71.43,1.7.71,2.69.99,6.95,1.84,13.75.99,19.99-1.56,15.31-6.38,25.24-21.69,29.91-37.15,1.47-.73,2.91-1.49,4.33-2.28-1.52,4-2.81,8.13-3.62,12.06-3.97,19.42,11.77,34.17,27.79,28.92,7.36-2.41,16.08-9.87,23.37-17.23,2.82,13.13,15.22,21.35,27.81,17.23,4.96-1.7,10.63-5.67,16.02-10.35,2.98,8.79,10.35,13.33,20.42,10.07,3.46-1.13,6.73-3.29,9.74-5.96,2.36,3.31,6.26,5.77,12.24,6.95.57.14,4.68.57,3.54-1.42-7.09-11.91,8.22-42.39,21.27-45.65-2.69,5.67-4.82,11.63-5.95,17.44-3.97,19.42,4.96,33.88,20.98,28.64,16.02-5.25,28.07-32.32,28.07-32.32l-3.4-5.25s-11.48,21.55-21.27,22.26Zm-450.14-39.7c-1.56,3.54-3.26,5.67-5.81,6.95-8.22,3.97-.99,6.95,4.54,4.82-3.54,14.6-6.24,26.94-17.58,28.36-8.51,1.28-10.35-4.4-9.22-11.34,1.42-9.22,6.95-21.27,12.19-28.78,5.39-7.66,10.21-10.63,13.19-10.21,2.84.43,5.1,4.4,2.69,10.21Zm48.2-2.27c-2.55-.28-4.54-2.69-4.96-5.1-.57-2.27-.57-4.68,1.13-5.81,4.25-2.84,5.95,4.54,3.83,10.92Zm108.18,48.77c-10.07-.99-.99-8.08-6.81-8.08-.57,0-1.28.28-1.99.71,2.13-10.63,6.38-21.12,10.63-30.91,2.13,6.66,8.93,13.47,19,14.46-2.84,6.38-12.19,24.53-20.84,23.82Zm25.38-37.29c-10.78-.14-12.05-10.21-6.52-13.33,7.94-3.97,9.07,6.38,6.52,13.33Zm42.82,37.29c-10.07-.99-.99-8.08-6.81-8.08-.57,0-1.28.28-1.98.71,2.13-10.63,6.38-21.12,10.63-30.91,2.13,6.66,8.93,13.47,19,14.46-2.84,6.38-12.19,24.53-20.84,23.82Zm25.38-37.29c-10.78-.14-12.05-10.21-6.52-13.33,7.94-3.97,9.07,6.38,6.52,13.33Zm66.63-9.36c-4.25,9.92-16.3,13.33-22.12,14.32,13.04-30.34,28.35-28.78,22.12-14.32Zm52.46.28c-1.42,3.54-3.26,5.53-5.67,6.81-8.22,4.11-1.13,7.09,4.54,4.96-3.54,14.6-6.24,26.94-17.58,28.35-8.65,1.13-10.49-4.39-9.36-11.34,1.56-9.21,7.09-21.27,12.33-28.78,5.25-7.66,10.21-10.63,13.19-10.21,2.84.43,5.1,4.39,2.55,10.21Z"/><path class="cls-4" d="m1189.77,41.7c13.04-1.28,13.19,8.93,15.45,4.4,1.84-3.97-.28-25.8-20.41-27.36-28.07-2.13-54.58,18.71-76.13,45.93-36.44,45.79-53.02,95.27-51.32,110.16,0,0-5.81-7.37-6.81-30.91-1.28-28.36,19.14-88.33,39.98-107.89,1.84-1.84,3.26-3.4,4.25-4.82,2.55,0,4.82.14,6.81.71,7.23,2.13,10.07,6.1,11.48,5.95,2.69-.57-2.98-21.55-14.74-25.94-13.47-5.1-35.73,1.84-48.2,5.81-41.26,13.47-76.13,41.97-74.86,70.75.99,25.24,30.06,31.19,26.09,26.51,0,0-10.49-14.18-1.7-31.62,7.09-13.89,34.03-31.76,59.4-42.53-26.09,33.18-38.56,108.03-13.75,141.07,8.51,11.48,17.72,16.45,19.71,16.73,4.11.85,5.1-2.27,4.68-5.53-6.81-47.35,88.33-148.72,120.08-151.41Z"/><path class="cls-4" d="m1396.78,64.38c5.39.57,11.2-1.84,12.9-5.39,1.7-3.54-1.28-6.95-6.81-7.51-5.39-.57-11.2,1.84-12.9,5.39-1.7,3.54,1.28,6.95,6.81,7.51Z"/><path class="cls-4" d="m1509.91,126.34c-8.79.85-4.68-22.54,13.61-48.2,7.66-10.78,1.42-12.48-6.24-11.34-16.16,2.27-23.25,11.91-33.74,23.82,2.41-4.54,4.96-8.93,7.23-13.04,2.41-4.39,2.84-6.52,2.84-8.08-.28-5.39-28.64-1.42-23.96,3.12,1.42,1.42.99,2.98-.28,5.95-.9,1.96-2.46,4.82-4.29,8.24-2.71,1.4-5.51,2.77-8.19,3.95-.14-6.38-1.99-12.19-5.95-16.73-4.54-4.96-10.92-7.8-17.72-7.09-13.61.14-37.14,16.73-43.1,46.08-.8,3.98-.77,7.75-.09,11.2-1.77,1.2-3.56,2-5.3,2.12-8.79.85-4.68-22.54,13.61-48.2,4.54-6.24,7.51-9.78,3.83-10.35-16.45-3.12-25.24,6.95-33.74,23.25-3.54,6.95-6.52,14.6-8.08,21.97-.47,2.3-.75,4.54-.87,6.68-3.9,3.6-7.92,6.41-11.18,6.65-3.69.43-5.1-3.55-4.25-10.07.99-6.24,8.93-25.8,17.3-42.25,9.64-2.55,18.43-5.1,20.84-5.67,5.53-1.56,6.95-3.97,3.12-6.1-1.42-.71-8.79-.43-17.86.43,1.7-3.12,3.4-5.81,4.96-7.94,4.39-6.1,7.37-9.64,3.83-10.35-11.63-2.13-19.42,2.13-25.94,10.63-1.84,2.41-4.11,5.81-6.52,9.92-9.36,1.13-16.59,1.98-16.59,1.98-1.61.31-2.69,1.03-3.35,1.98-7.02-3.06-15.63.78-16.93,2.56-.85-1.13-5.81-3.54-6.52-3.69-19.71-5.25-38.56,10.78-46.93,30.48-1.98,4.82-3.69,9.92-4.68,14.74-.03.14-.04.27-.07.41-7.26,6.07-15.9,12.54-20.77,13.49-8.51,1.7-10.49-4.39-9.36-11.34,1.7-10.49,9.21-26.09,16.16-33.6,3.83-4.11,7.23-5.53,9.5-5.39,10.07.99.99,8.08,6.81,8.08,5.1,0,11.77-13.61-1.13-16.87-19.71-5.25-38.56,10.78-46.93,30.48-1.99,4.82-3.69,9.92-4.68,14.74-.74,3.6-.79,7.03-.3,10.21-2.34,1.91-4.75,3.15-7.08,3.12-5.53,0-4.54-14.6,1.42-32.18,1.56-4.4,3.4-8.93,5.39-13.61,3.4-7.8,6.52-6.81,4.54-8.93-7.23-7.37-19.28-2.27-20.84-.14-.85-1.13-5.81-3.54-6.52-3.69-19.71-5.25-38.56,10.78-46.93,30.48-1.98,4.82-3.69,9.92-4.68,14.74-3.97,19.42,11.77,34.17,27.79,28.92,4.96-1.7,10.63-5.67,16.02-10.35,2.98,8.79,10.35,13.33,20.42,10.07,4.97-1.63,9.55-5.36,13.52-9.72,5.02,8.7,14.98,13.3,25.05,10.01,7.16-2.35,15.62-9.48,22.8-16.65,3.05,12.79,15.28,20.71,27.68,16.65,4.96-1.7,10.63-5.67,16.02-10.35,2.98,8.79,10.35,13.33,20.42,10.07,4.43-1.45,8.56-4.58,12.21-8.33,3.41,7.35,10.35,11.17,19.69,8.33,5.48-1.7,10.93-5.97,15.73-10.86,2.79,9.29,10.23,14.29,20.7,10.86,4.49-1.47,8.67-4.66,12.36-8.48,4.41,6.62,11.8,10.49,19.68,9.62v.14c17.72-.71,36.01-20.27,41.68-39.84.89-.46,1.77-.93,2.66-1.42-7.49,17.02-11.98,36.84,8.97,40.98.57.14,4.68.57,3.54-1.42-7.09-11.91,8.22-42.39,21.27-45.65-2.69,5.67-4.82,11.63-5.95,17.44-3.97,19.42,4.96,33.88,20.98,28.64,16.02-5.25,28.07-32.32,28.07-32.32l-3.4-5.25s-11.48,21.55-21.27,22.26Zm-338.28-39.56c-1.42,3.54-3.26,5.53-5.67,6.81-8.22,4.11-1.13,7.09,4.54,4.96-3.54,14.6-6.24,26.94-17.58,28.35-8.65,1.13-10.49-4.39-9.36-11.34,1.56-9.21,7.09-21.27,12.33-28.78,5.25-7.66,10.21-10.63,13.19-10.21,2.84.43,5.1,4.39,2.55,10.21Zm125.47,0c-1.42,3.54-3.26,5.53-5.67,6.81-8.22,4.11-1.13,7.09,4.54,4.96-3.54,14.6-6.24,26.94-17.58,28.35-8.65,1.13-10.49-4.39-9.36-11.34,1.56-9.21,7.09-21.27,12.33-28.78,5.25-7.66,10.21-10.63,13.19-10.21,2.84.43,5.1,4.39,2.55,10.21Zm20.7,7.37c1.56-4.4,3.4-8.93,5.39-13.61.58-1.32,1.14-2.38,1.68-3.25,1.36,1.99,3.31,3.48,5.27,3.53.99.14,3.12-.14,5.95-.71-6.55,14.17-12.36,30.87-12.58,43.06-2.35,1.93-4.79,3.19-7.13,3.16-5.53,0-4.54-14.6,1.42-32.18Zm101.94,32.75c-8.51,1.7-10.49-4.39-9.36-11.34.99-5.95,3.83-13.75,7.37-20.56,3.54,8.79,12.05,14.6,21.98,13.47h.14c-4.11,8.08-10.92,15.31-20.13,18.43Zm24.53-32.61c-8.79-.43-13.75-12.05-10.21-16.3,3.69-4.54,8.51,1.7,9.64,5.39.85,3.12,1.13,6.95.57,10.92Z"/><path class="cls-4" d="m1723.28,104.42c-3.88-2.24-10.73-3.88-9.84-.15,8.05,30.26-24.44,75.12-54.55,77.36-19.08,1.49-30.26-18.93-19.97-63.79,7.75-34.13,23.25-62.9,39.65-80.49,5.81-6.26,12.22-5.07,13.71-9.39.45-2.38-5.66-4.62-8.94-4.77-3.28-.3-5.96.15-.15-1.34,65.28-16.25,52.47,41.29,29.51,50.38-1.04.3-4.17.74-3.88,2.38.3,2.53,15.2,7.6,26.08,5.51,50.97-9.24,22.21-107.32-90.62-70.8-43.37,14.01-80.04,44.12-78.7,74.38,1.19,26.53,31.6,32.79,27.42,27.72,0,0-10.88-14.91-1.79-33.09,7.15-14.01,33.24-31.6,58.73-43.08-46.06,53.96-60.22,153.97-.15,163.06,34.13,5.22,88.98-34.13,89.73-68.26.3-10.73-5.37-19.53-16.25-25.64Z"/><path class="cls-4" d="m2348.85,100.39s-12.07,22.65-22.36,23.4c-9.24.89-4.92-23.7,14.31-50.68,8.05-11.33,1.49-13.12-6.56-11.92-16.99,2.38-24.44,12.52-35.47,25.04,2.53-4.77,5.22-9.39,7.6-13.71,2.53-4.62,2.98-6.86,2.98-8.5-.3-5.66-30.11-1.49-25.19,3.28,1.49,1.49,1.04,3.13-.3,6.26-1.48,3.23-4.65,8.74-7.97,15.28-2.3-.42-4.45-1.33-6.34-2.91,4.62-7.01,12.67-20.27,10.88-28.77-2.24-11.92-29.06-11.78-33.54,8.2-1.49,6.11-1.64,13.86,3.28,22.51-9.84,16.4-24.15,33.68-34.58,35.92-3.88.89-1.04-23.7,18.33-50.68,4.62-6.56,7.75-10.28,4.02-10.88-17.44-3.28-26.68,7.3-35.62,24.44-3.28,6.41-6.11,13.41-7.75,20.27-4.47,6.71-11.92,16.4-18.48,16.84-9.24.89-4.92-23.7,14.31-50.68,4.77-6.56,7.9-10.28,4.02-10.88-16.49-3.13-25.66,6.36-34.23,22.12-1.47.71-2.93,1.39-4.37,2.02-.15-6.71-2.09-12.82-6.26-17.59-4.77-5.22-11.48-8.2-18.63-7.45-14.31.15-39.05,17.59-45.31,48.44-.84,4.15-.81,8.1-.11,11.71-2.05,1.44-4.14,2.33-6.16,2.3-11.18,0,2.98-55.89,29.81-82.13,5.66-5.66,7.75-9.99,4.02-10.88-18.33-4.17-33.39,14.31-43.82,35.32-1.49-1.79-3.73-3.13-6.86-3.88-20.72-5.51-40.54,11.33-49.34,32.05-2.09,5.07-3.88,10.43-4.92,15.5-.32,1.55-.5,3.07-.59,4.56-4.8,4.88-10.06,9.09-14.17,9.45-3.88.3-5.37-3.88-4.47-10.58.89-6.56,9.24-27.28,18.03-44.57,10.28-2.68,19.53-5.22,21.91-5.96,5.81-1.64,7.45-4.17,3.28-6.41-1.49-.74-9.24-.3-18.78.45,1.94-3.13,3.73-5.96,5.37-8.35,4.62-6.41,7.75-10.14,4.02-10.88-12.22-2.24-20.42,2.38-27.28,11.18-1.94,2.53-4.32,6.11-6.86,10.58-9.84,1.04-17.59,2.09-17.59,2.09-8.5,1.64-2.68,14.31,3.28,14.61,1.04,0,3.28-.3,6.26-.89l-.3.6c-7.15,12.22-28.47,47.4-36.96,48.14-9.09.74-4.92-23.85,14.46-50.83,7.9-11.18,1.34-13.12-6.71-11.92-16.99,2.38-24.44,12.67-35.47,25.04,2.53-4.62,5.22-9.24,7.6-13.71,2.53-4.62,2.98-6.86,2.98-8.5-.15-5.66-30.11-1.34-25.04,3.43,1.49,1.34,1.04,2.98-.45,6.11-3.77,8.31-18.41,31.31-18.82,48.31-1.78,1.17-3.58,1.94-5.33,2.07-9.09.89-4.92-23.7,14.46-50.68,4.62-6.56,7.75-10.28,4.02-10.88-17.44-3.28-26.68,7.3-35.47,24.44-3.88,7.3-7.01,15.35-8.64,23.1-.75,4.17-11.03,13.71-15.95,14.01-9.24.89-4.92-23.7,14.31-50.68,4.77-6.56,7.9-10.28,4.02-10.88-15.26-2.89-24.25,5.02-32.3,18.7-3.6,1.92-7.43,3.85-11.07,5.45-.15-6.71-2.09-12.82-6.26-17.59-4.77-5.22-11.48-8.2-18.63-7.45-14.31.15-39.05,17.59-45.31,48.44-3.73,18.48,9.54,32.94,24.44,31.3v.15c18.63-.74,37.86-21.31,43.82-41.88,1.84-.94,3.68-1.97,5.49-3.04-1.76,4.46-3.21,9.01-4.15,13.47-4.17,20.42,5.22,35.62,22.06,30.11,7.3-2.38,13.86-9.24,18.93-15.95,1.64,12.52,10.14,20.12,22.65,15.95,4.08-1.34,7.91-4.03,11.38-7.33,2.38,3.95,6.64,6.89,13.51,8.22.6.15,5.07.6,3.73-1.49-7.45-12.52,8.64-44.57,22.36-47.99-2.68,5.96-4.92,12.37-6.26,18.33-4.02,20.42,5.36,35.62,22.06,30.11,15.65-5.07,27.87-29.96,29.66-33.68-2.38,9.99-2.98,18.93-.3,24.89,3.43,7.9,10.73,11.92,20.72,8.79,6.85-2.12,13.62-8.06,19.24-14.36,4.18,11.83,16.17,18.78,28.31,14.81,5.22-1.79,11.18-5.96,16.84-10.88,3.13,9.24,10.88,14.01,21.46,10.58,4.87-1.59,9.38-5.11,13.35-9.29,4.6,7.19,12.51,11.41,20.94,10.49v.15c16.38-.66,33.23-16.64,41.11-34.48-.26,1.01-.5,2.02-.71,3.03-4.17,20.42,5.22,35.62,22.06,30.11,8.05-2.68,15.2-10.58,20.42-18.18,1.04,13.56,9.39,21.46,22.95,18.18,13.41-3.43,31.15-22.95,44.86-41.29,2.7,2.06,5.84,3.04,9.17,3.22-6.76,16.89-9.32,35.08,11.1,39.11.6.15,4.92.6,3.73-1.49-7.45-12.52,8.64-44.57,22.36-47.99-2.83,5.96-5.07,12.22-6.26,18.33-4.17,20.42,5.22,35.62,22.06,30.11,16.84-5.52,29.51-33.98,29.51-33.98l-3.58-5.51Zm-577.87,24c-8.94,1.79-11.03-4.62-9.84-11.92,1.04-6.26,4.02-14.46,7.75-21.61,3.73,9.24,12.67,15.35,23.1,14.16h.15c-4.32,8.5-11.48,16.1-21.16,19.38Zm25.79-34.28c-9.24-.45-14.46-12.67-10.73-17.14,3.88-4.77,8.94,1.79,10.14,5.66.89,3.28,1.19,7.3.6,11.48Zm262.33-7.9c-1.49,3.73-3.43,5.81-5.96,7.15-8.64,4.32-1.19,7.45,4.77,5.22-3.73,15.8-5.22,27.87-18.48,29.81-8.94,1.34-11.03-4.62-9.84-11.92,1.64-9.69,7.45-22.36,12.97-30.26,5.51-8.05,10.73-11.18,13.86-10.73,2.98.45,5.36,4.62,2.68,10.73Zm57.68,42.18c-8.94,1.79-11.03-4.62-9.84-11.92,1.04-6.26,4.02-14.46,7.75-21.61,3.73,9.24,12.67,15.35,23.1,14.16h.15c-4.32,8.5-11.48,16.1-21.16,19.38Zm25.79-34.28c-9.24-.45-14.46-12.67-10.73-17.14,3.88-4.77,8.94,1.79,10.14,5.66.89,3.28,1.19,7.3.6,11.48Zm115.51-16.99c-7-10.58,2.83-19.38,4.02-13.41.6,3.43-1.34,8.05-4.02,13.41Z"/></g></svg>