<?xml version="1.0" encoding="utf-8"?>
<!-- Generator: Adobe Illustrator 28.0.0, SVG Export Plug-In . SVG Version: 6.00 Build 0)  -->
<svg version="1.1" id="Layer_2_00000093865658409702960140000010601036761358920330_"
	 xmlns="http://www.w3.org/2000/svg" xmlns:xlink="http://www.w3.org/1999/xlink" x="0px" y="0px" viewBox="0 0 814.9 342.3"
	 style="enable-background:new 0 0 814.9 342.3;" xml:space="preserve">
<style type="text/css">
	.st0{display:none;}
	.st1{display:inline;fill-rule:evenodd;clip-rule:evenodd;fill:#F7A904;}
	.st2{display:inline;}
	.st3{clip-path:url(#SVGID_00000027596192717936683650000000239109673668659118_);}
	.st4{fill:url(#SVGID_00000101083051454812761710000010080914250573030815_);}
	.st5{display:inline;fill:#FF2652;}
	
		.st6{clip-path:url(#SVGID_00000025416656724429283260000008091537201858963133_);fill:url(#SVGID_00000181047396212084224530000002863336465577576870_);}
	
		.st7{clip-path:url(#SVGID_00000102502715131177605240000013764653265798832777_);fill:url(#SVGID_00000034808642639784978210000015964102403539742122_);}
	.st8{fill:#FFFFFF;}
</style>
<g id="Layer_1-2" class="st0">
	<path class="st1" d="M251.1,39.5c9.7,0,17.5,7.8,17.5,17.5s-7.8,17.5-17.5,17.5s-17.5-7.8-17.5-17.5S241.4,39.5,251.1,39.5"/>
	<g class="st2">
		<defs>
			<path id="SVGID_1_" d="M59.7,52.2c38.5-38.6,92.6-52.2,142-40.9c-43.4-7.4-89.6,5.6-123.1,39.2c-54.8,54.9-54.8,143.8,0,198.7
				c8.2,8.2,17.1,15.3,26.7,21c33.4,19.5,41-2.9,39.7-24.1c-3-47.2,4.1-92.4,18.3-116.2c-16.8,8.9-28,27.2-26.9,52.5
				c-15.1-20.8-8.7-43.1,6.2-53c-19.9,5.8-37.5,21.4-47.5,47c-8.8-41.3,23.3-67.6,52.9-60.7c-18.1-8.2-35-10.2-50.7-6.8
				c-0.8,0.2-1.7,0.4-2.6,0.6c-1.1,0.3-2.2,0.6-3.3,0.9c-12,3.8-23.3,10.7-34,20.6c4.8-43.4,71.1-64.3,101.5-21.2
				C144.7,86,121.7,74.8,97.8,76c26.7-22.4,66.5-4.7,71,28.5c0-0.1,0.1-0.2,0.1-0.3l0,0c0-0.1,0.1-0.2,0.1-0.4
				c0-0.2,0.1-0.4,0.1-0.5c0.1-0.2,0.1-0.4,0.2-0.5c0-0.2,0.1-0.4,0.1-0.5s0.1-0.3,0.1-0.5c0.1-0.2,0.1-0.3,0.2-0.5
				c0.1-0.2,0.1-0.4,0.2-0.5s0.1-0.3,0.2-0.5c0.1-0.2,0.1-0.4,0.2-0.5c0.1-0.2,0.1-0.3,0.2-0.5c8.4-23.5,27.6-32.8,50.3-32.1
				c-0.3,0.1-0.6,0.1-0.9,0.1c-19.4,2.4-40,21.3-41.9,39.9c21.8-27.2,63.6-22.3,75.8,11.3c-20-13.1-45.7-14.8-69.9-1.2
				c47.9-22.3,96.4,17.9,81.7,66.3c-11-30-37.4-52.2-75-55.9c29.1,8.8,43.7,47.6,15.5,79c4.5-29.2-4.4-52.7-20.9-67.6
				c9.6,16.1,4.6,40.1-19.9,51.1c11.9-18.7,13-37.5,6.2-52.7c-1.1-2.5-2.5-5-4-7.3c-33.2,97.9,16.4,212.3,109.8,119.1
				c33.5-33.4,46.5-79.6,39.1-123c11.3,49.5-2.3,103.5-40.9,142.1c-59.6,59.6-156.3,59.6-216,0C0,208.5,0,111.8,59.7,52.2"/>
		</defs>
		<clipPath id="SVGID_00000148637457823299873290000004638568155808578967_">
			<use xlink:href="#SVGID_1_"  style="overflow:visible;"/>
		</clipPath>
		<g style="clip-path:url(#SVGID_00000148637457823299873290000004638568155808578967_);">
			
				<linearGradient id="SVGID_00000116214989803989840170000002708667839107949722_" gradientUnits="userSpaceOnUse" x1="212.3307" y1="14.0302" x2="103.3008" y2="371.5002" gradientTransform="matrix(1 0 0 -1 0 344)">
				<stop  offset="0" style="stop-color:#FF2254"/>
				<stop  offset="0.25" style="stop-color:#FF3F47"/>
				<stop  offset="0.46" style="stop-color:#F25F41"/>
				<stop  offset="0.68" style="stop-color:#FF7D2C"/>
				<stop  offset="1" style="stop-color:#F2C822"/>
			</linearGradient>
			<rect style="fill:url(#SVGID_00000116214989803989840170000002708667839107949722_);" width="327.8" height="342.3"/>
		</g>
	</g>
	<path class="st5" d="M468.3,92.4c2,0.2,4.1-0.7,4.8-2s-0.5-2.6-2.5-2.8c-2-0.2-4.1,0.7-4.8,2S466.3,92.2,468.3,92.4z"/>
	<path class="st5" d="M584.6,115.4c-3.2,0.3-1.7-8.3,5-17.8c2.8-4,0.5-4.6-2.3-4.2c-6,0.8-8.6,4.4-12.5,8.8c0.9-1.7,1.8-3.3,2.7-4.8
		c0.9-1.6,1-2.4,1-3c-0.1-2-10.6-0.5-8.9,1.2c0.5,0.5,0.4,1.1-0.1,2.2c-1.4,3-6.7,11.4-6.6,17.4c-0.4,0.2-0.8,0.3-1.2,0.3
		c-2,0-1.7-5.4,0.5-11.9c0.6-1.6,1.3-3.3,2-5c1.3-2.9,2.4-2.5,1.7-3.3c-2.7-2.7-7.1-0.8-7.7-0.1c-0.3-0.4-2.2-1.3-2.4-1.4
		c-7.3-1.9-14.3,4-17.4,11.3c-0.7,1.8-1.3,3.6-1.7,5.3c-2.8,2.3-6.1,4.9-8,5.3c-3.2,0.6-3.9-1.6-3.5-4.2c0.2-0.8,0.4-1.6,0.6-2.6
		c9.5,0.6,19.5-12.9,11-15.1c-5.6-1.5-11,1.7-14.6,6.5c-1.3,0.7-2.6,1.4-3.9,2c0-6.5-6-10.9-11.9-7.9c2.1-3.9,4-6.9,5-7.9
		c2-2,2.7-3.5,1.4-3.8c-8.3-1.9-14.7,9.5-18.2,18.8c-0.5,0.3-1,0.5-1.5,0.8c0-6.5-6-10.9-11.9-7.9c2.1-3.9,4-6.9,5-7.9
		c2-2,2.7-3.5,1.4-3.8c-11.5-2.7-19.5,20.5-20.9,27.8c-0.3,1.3-0.4,2.6-0.3,3.8c-0.8,0.7-1.7,1.1-2.5,1.2c-3.2,0.3-1.7-8.3,5-17.8
		c1.7-2.3,2.8-3.6,1.4-3.8c-6.1-1.2-9.3,2.6-12.5,8.6c-1.3,2.6-2.4,5.4-3,8.1c-0.2,0.8-0.3,1.7-0.3,2.4c-1.2,1.3-2.6,2.4-3.8,2.5
		c-6.2,0.5,3.2-14.7,4-16.7c1.5-3.9,0.7-7.2-5.9-4c-1.1,0.6-3.5,1.7-6.2,3.2v0.1c-0.1,0-0.3,0.2-0.7,0.3c-1.1-5.8-8.1-6.4-10.2-1.4
		c-1,2.4-0.3,5.2,3.1,6.2c-1.1,3.7-5.5,12.4-9.8,12.4c-2,0-1.6-5.5,0.6-12c0.5-1.6,1.2-3.3,2-5c1.3-2.9,2.4-2.6,1.6-3.3
		c-2.7-2.8-7.1-0.9-7.7-0.1c-0.3-0.4-2.1-1.3-2.4-1.4c-7.4-1.9-14.3,4-17.4,11.3c-0.7,1.8-1.4,3.7-1.7,5.5c-0.3,1.3-0.3,2.5-0.1,3.7
		c-0.8-2.2-2.6-4.1-5.1-5.5c-1.4-0.8-3.8-1.4-3.5-0.1c2.8,10.7-8.6,26.4-19.2,27.2c-6.7,0.5-10.6-6.7-7-22.5
		c2.7-12,8.2-22.2,14-28.3c2-2.2,4.3-1.8,4.8-3.3c0.2-0.8-2-1.6-3.1-1.7c-1.1-0.1-2.1,0.1,0-0.5c23-5.7,18.5,14.5,10.4,17.7
		c-0.4,0.1-1.5,0.3-1.4,0.8c0.1,0.9,5.4,2.7,9.2,1.9c18-3.2,7.8-37.8-31.9-24.9c-15.3,4.9-28.2,15.5-27.7,26.2
		c0.4,9.3,11.1,11.6,9.7,9.8c0,0-3.8-5.2-0.6-11.7c2.5-4.9,11.7-11.1,20.7-15.2c-16.2,19-21.2,54.2,0,57.4c12,1.8,31.3-12,31.6-24
		c0-0.6,0-1.1-0.1-1.6c1.5,4.1,5.7,6.5,9.9,5.1c1.9-0.6,3.9-2.1,5.9-3.8c0.8,2.3,2.3,3.7,4.4,4c7.9,1.4,19.7-9.4,21.5-18.9
		c0.8-0.5,1.8-0.9,2.7-1.3c-1,2.1-2.7,7.2-3.1,9.3c-1.5,7.2,1.8,12.5,7.8,10.6c2-0.7,3.9-2.3,5.5-4.1c1,3.6,3.8,5.5,7.7,4.2
		c1.6-0.5,3.2-1.7,4.5-3.1c0.9,2,2.4,3.2,4.4,3.5c0.2,0,1.7,0.2,1.3-0.5l0-0.1c0.3,0.2,0.6,0.3,1,0.4c2.6,0.7,5.1,0.4,7.4-0.6
		c5.7-2.4,9.3-8,11.1-13.8c0.2-0.1,0.5-0.2,0.7-0.4c-0.5,1.6-0.8,2.9-1,4c-1.2,5.9,0.8,10.6,4.8,11c0.2,0,1.7,0.2,1.3-0.5l0-0.1
		c0.3,0.2,0.6,0.3,1,0.4c2.6,0.7,5.1,0.4,7.4-0.6c5.7-2.4,9.3-8,11.1-13.8c0.5-0.3,1.1-0.6,1.6-0.8c-0.6,1.5-1,3-1.3,4.5
		c-1.5,7.2,4.4,12.7,10.3,10.7c2.7-0.9,6-3.7,8.7-6.4c1,4.9,5.6,7.9,10.3,6.4c1.8-0.6,3.9-2.1,5.9-3.8c1.1,3.2,3.8,4.9,7.6,3.7
		c1.3-0.4,2.5-1.2,3.6-2.2c0.9,1.2,2.3,2.1,4.5,2.6c0.2,0.1,1.7,0.2,1.3-0.5c-2.6-4.4,3-15.7,7.9-16.9c-1,2.1-1.8,4.3-2.2,6.5
		c-1.5,7.2,1.8,12.5,7.8,10.6s10.4-12,10.4-12l-1.3-1.9C592.5,107.2,588.3,115.1,584.6,115.4L584.6,115.4z M418,100.7
		c-0.6,1.3-1.2,2.1-2.1,2.6c-3,1.5-0.4,2.6,1.7,1.8c-1.3,5.4-2.3,10-6.5,10.5c-3.1,0.5-3.8-1.6-3.4-4.2c0.5-3.4,2.6-7.9,4.5-10.7
		c2-2.8,3.8-3.9,4.9-3.8C418,97.1,418.9,98.5,418,100.7z M435.8,99.8c-0.9-0.1-1.7-1-1.8-1.9c-0.2-0.8-0.2-1.7,0.4-2.2
		C436,94.8,436.6,97.5,435.8,99.8L435.8,99.8z M475.9,117.9c-3.7-0.4-0.4-3-2.5-3c-0.2,0-0.5,0.1-0.7,0.3c0.8-3.9,2.4-7.8,3.9-11.4
		c0.8,2.5,3.3,5,7,5.3C482.5,111.4,479.1,118.2,475.9,117.9L475.9,117.9z M485.3,104.1c-4-0.1-4.5-3.8-2.4-4.9
		C485.8,97.7,486.2,101.5,485.3,104.1z M501.1,117.9c-3.7-0.4-0.4-3-2.5-3c-0.2,0-0.5,0.1-0.7,0.3c0.8-3.9,2.4-7.8,3.9-11.4
		c0.8,2.5,3.3,5,7,5.3C507.8,111.4,504.3,118.2,501.1,117.9L501.1,117.9z M510.5,104.1c-4-0.1-4.5-3.8-2.4-4.9
		C511,97.7,511.5,101.5,510.5,104.1z M535.2,100.6c-1.6,3.7-6,4.9-8.2,5.3C531.8,94.7,537.5,95.3,535.2,100.6z M554.6,100.7
		c-0.5,1.3-1.2,2.1-2.1,2.5c-3,1.5-0.4,2.6,1.7,1.8c-1.3,5.4-2.3,10-6.5,10.5c-3.2,0.4-3.9-1.6-3.5-4.2c0.6-3.4,2.6-7.9,4.6-10.7
		c1.9-2.8,3.8-3.9,4.9-3.8C554.7,97.1,555.5,98.6,554.6,100.7L554.6,100.7z"/>
	<path class="st5" d="M687.3,84.1c4.8-0.5,4.9,3.3,5.7,1.6c0.7-1.5-0.1-9.6-7.6-10.1c-10.4-0.8-20.2,6.9-28.2,17
		c-13.5,16.9-19.6,35.3-19,40.8c0,0-2.2-2.7-2.5-11.4c-0.5-10.5,7.1-32.7,14.8-39.9c0.7-0.7,1.2-1.3,1.6-1.8c0.9,0,1.8,0.1,2.5,0.3
		c2.7,0.8,3.7,2.3,4.2,2.2c1-0.2-1.1-8-5.5-9.6c-5-1.9-13.2,0.7-17.8,2.2c-15.3,5-28.2,15.5-27.7,26.2c0.4,9.3,11.1,11.6,9.7,9.8
		c0,0-3.9-5.2-0.6-11.7c2.6-5.1,12.6-11.8,22-15.7c-9.7,12.3-14.3,40-5.1,52.2c3.2,4.2,6.6,6.1,7.3,6.2c1.5,0.3,1.9-0.8,1.7-2.1
		C640.3,122.6,675.5,85.1,687.3,84.1L687.3,84.1z"/>
	<path class="st5" d="M763.9,92.4c2,0.2,4.2-0.7,4.8-2s-0.5-2.6-2.5-2.8c-2-0.2-4.2,0.7-4.8,2S761.8,92.2,763.9,92.4z"/>
	<path class="st5" d="M805.8,115.4c-3.2,0.3-1.7-8.3,5-17.8c2.8-4,0.5-4.6-2.3-4.2c-6,0.8-8.6,4.4-12.5,8.8c0.9-1.7,1.8-3.3,2.7-4.8
		c0.9-1.6,1-2.4,1-3c-0.1-2-10.6-0.5-8.9,1.2c0.5,0.5,0.4,1.1-0.1,2.2c-0.3,0.7-0.9,1.8-1.6,3.1c-1,0.5-2,1-3,1.5
		c0-2.4-0.7-4.5-2.2-6.2c-1.7-1.8-4-2.9-6.6-2.6c-5,0.1-13.8,6.2-16,17.1c-0.3,1.5-0.3,2.9,0,4.2c-0.7,0.4-1.3,0.7-2,0.8
		c-3.2,0.3-1.7-8.3,5-17.8c1.7-2.3,2.8-3.6,1.4-3.8c-6.1-1.2-9.3,2.6-12.5,8.6c-1.3,2.6-2.4,5.4-3,8.1c-0.2,0.8-0.3,1.7-0.3,2.5
		c-1.4,1.3-2.9,2.4-4.1,2.5c-1.4,0.2-1.9-1.3-1.6-3.7c0.4-2.3,3.3-9.6,6.4-15.6c3.6-0.9,6.8-1.9,7.7-2.1c2-0.6,2.6-1.5,1.2-2.3
		c-0.5-0.3-3.2-0.2-6.6,0.2c0.6-1.2,1.3-2.2,1.8-2.9c1.6-2.3,2.7-3.6,1.4-3.8c-4.3-0.8-7.2,0.8-9.6,3.9c-0.7,0.9-1.5,2.2-2.4,3.7
		c-3.5,0.4-6.1,0.7-6.1,0.7c-0.6,0.1-1,0.4-1.2,0.7c-2.6-1.1-5.8,0.3-6.3,0.9c-0.3-0.4-2.2-1.3-2.4-1.4c-7.3-1.9-14.3,4-17.4,11.3
		c-0.7,1.8-1.4,3.7-1.7,5.5c0,0.1,0,0.1,0,0.2c-2.7,2.2-5.9,4.6-7.7,5c-3.2,0.6-3.9-1.6-3.5-4.2c0.6-3.9,3.4-9.7,6-12.4
		c1.4-1.5,2.7-2.1,3.5-2c3.7,0.4,0.4,3,2.5,3c1.9,0,4.4-5-0.4-6.2c-7.3-1.9-14.3,4-17.4,11.3c-0.7,1.8-1.4,3.7-1.7,5.5
		c-0.3,1.3-0.3,2.6-0.1,3.8c-0.9,0.7-1.8,1.2-2.6,1.2c-2,0-1.7-5.4,0.5-11.9c0.6-1.6,1.3-3.3,2-5c1.3-2.9,2.4-2.5,1.7-3.3
		c-2.7-2.7-7.1-0.8-7.7-0.1c-0.3-0.4-2.2-1.3-2.4-1.4c-7.3-1.9-14.3,4-17.4,11.3c-0.7,1.8-1.4,3.7-1.7,5.5
		c-1.5,7.2,4.4,12.7,10.3,10.7c1.8-0.6,3.9-2.1,5.9-3.8c1.1,3.2,3.8,4.9,7.6,3.7c1.8-0.6,3.5-2,5-3.6c1.9,3.2,5.5,4.9,9.3,3.7
		c2.7-0.9,5.8-3.5,8.4-6.2c1.1,4.7,5.7,7.7,10.2,6.2c1.8-0.6,3.9-2.1,5.9-3.8c1.1,3.2,3.8,4.9,7.6,3.7c1.6-0.5,3.2-1.7,4.5-3.1
		c1.3,2.7,3.8,4.1,7.3,3.1c2-0.6,4-2.2,5.8-4c1,3.4,3.8,5.3,7.7,4c1.7-0.5,3.2-1.7,4.6-3.1c1.6,2.4,4.4,3.9,7.3,3.6v0.1
		c6.6-0.3,13.3-7.5,15.4-14.8c0.3-0.2,0.7-0.3,1-0.5c-2.8,6.3-4.4,13.6,3.3,15.2c0.2,0.1,1.7,0.2,1.3-0.5c-2.6-4.4,3-15.7,7.9-16.9
		c-1,2.1-1.8,4.3-2.2,6.5c-1.5,7.2,1.8,12.5,7.8,10.6s10.4-12,10.4-12l-1.3-1.9C813.7,107.1,809.5,115.1,805.8,115.4L805.8,115.4z
		 M680.6,100.7c-0.5,1.3-1.2,2.1-2.1,2.5c-3,1.5-0.4,2.6,1.7,1.8c-1.3,5.4-2.3,10-6.5,10.5c-3.2,0.4-3.9-1.6-3.5-4.2
		c0.6-3.4,2.6-7.9,4.6-10.7c1.9-2.8,3.8-3.9,4.9-3.8C680.7,97.1,681.5,98.6,680.6,100.7L680.6,100.7z M727,100.7
		c-0.5,1.3-1.2,2.1-2.1,2.5c-3,1.5-0.4,2.6,1.7,1.8c-1.3,5.4-2.3,10-6.5,10.5c-3.2,0.4-3.9-1.6-3.5-4.2c0.6-3.4,2.6-7.9,4.6-10.7
		c1.9-2.8,3.8-3.9,4.9-3.8C727.1,97.1,728,98.6,727,100.7L727,100.7z M734.7,103.5c0.6-1.6,1.3-3.3,2-5c0.2-0.5,0.4-0.9,0.6-1.2
		c0.5,0.7,1.2,1.3,2,1.3c0.4,0.1,1.2-0.1,2.2-0.3c-2.4,5.2-4.6,11.4-4.7,15.9c-0.9,0.7-1.8,1.2-2.6,1.2
		C732.1,115.4,732.5,110,734.7,103.5L734.7,103.5z M772.4,115.6c-3.2,0.6-3.9-1.6-3.5-4.2c0.4-2.2,1.4-5.1,2.7-7.6
		c1.3,3.2,4.5,5.4,8.1,5h0C778.3,111.8,775.8,114.4,772.4,115.6L772.4,115.6z M781.5,103.5c-3.2-0.2-5.1-4.5-3.8-6
		c1.4-1.7,3.2,0.6,3.6,2C781.6,100.6,781.7,102,781.5,103.5L781.5,103.5z"/>
	<path class="st5" d="M439.5,192.9c-2.3-1.3-6.3-2.3-5.8-0.1c4.7,17.7-14.3,44-31.9,45.3c-11.2,0.9-17.7-11.1-11.7-37.3
		c4.5-20,13.6-36.8,23.2-47.1c3.4-3.7,7.1-3,8-5.5c0.3-1.4-3.3-2.7-5.2-2.8c-1.9-0.2-3.5,0.1-0.1-0.8c38.2-9.5,30.7,24.2,17.3,29.5
		c-0.6,0.2-2.4,0.4-2.3,1.4c0.2,1.5,8.9,4.4,15.3,3.2c29.8-5.4,13-62.8-53-41.4c-25.4,8.2-46.8,25.8-46.1,43.5
		c0.7,15.5,18.5,19.2,16,16.2c0,0-6.4-8.7-1-19.4c4.2-8.2,19.5-18.5,34.4-25.2c-27,31.6-35.2,90.1-0.1,95.4
		c20,3.1,52.1-20,52.5-39.9C449.1,201.6,445.8,196.4,439.5,192.9L439.5,192.9z"/>
	<path class="st5" d="M805.6,190.5c0,0-7.1,13.3-13.1,13.7c-5.4,0.5-2.9-13.9,8.4-29.7c4.7-6.6,0.9-7.7-3.8-7
		c-9.9,1.4-14.3,7.3-20.8,14.6c1.5-2.8,3-5.5,4.5-8c1.5-2.7,1.7-4,1.7-5c-0.2-3.3-17.6-0.9-14.7,1.9c0.9,0.9,0.6,1.8-0.2,3.7
		c-0.9,1.9-2.7,5.1-4.7,8.9c-1.3-0.2-2.6-0.8-3.7-1.7c2.7-4.1,7.4-11.9,6.4-16.8c-1.3-7-17-6.9-19.6,4.8c-0.9,3.6-1,8.1,1.9,13.2
		c-5.8,9.6-14.1,19.7-20.2,21c-2.3,0.5-0.6-13.9,10.7-29.7c2.7-3.8,4.5-6,2.3-6.4c-10.2-1.9-15.6,4.3-20.8,14.3
		c-1.9,3.8-3.6,7.9-4.5,11.9c-2.6,3.9-7,9.6-10.8,9.9c-5.4,0.5-2.9-13.9,8.4-29.7c2.8-3.8,4.6-6,2.3-6.4c-9.7-1.8-15,3.7-20,12.9
		c-0.9,0.4-1.7,0.8-2.6,1.2c-0.1-3.9-1.2-7.5-3.7-10.3c-2.8-3.1-6.7-4.8-10.9-4.4c-8.4,0.1-22.8,10.3-26.5,28.4
		c-0.5,2.4-0.5,4.7-0.1,6.9c-1.2,0.8-2.4,1.4-3.6,1.4c-6.5,0,1.7-32.7,17.4-48.1c3.3-3.3,4.5-5.8,2.4-6.4
		c-10.7-2.4-19.5,8.4-25.6,20.7c-0.9-1.1-2.2-1.8-4-2.3c-12.1-3.2-23.7,6.6-28.9,18.8c-1.2,3-2.3,6.1-2.9,9.1
		c-0.2,0.9-0.3,1.8-0.3,2.7c-2.8,2.9-5.9,5.3-8.3,5.5c-2.3,0.2-3.1-2.3-2.6-6.2c0.5-3.8,5.4-16,10.5-26.1c6-1.6,11.4-3.1,12.8-3.5
		c3.4-1,4.4-2.4,1.9-3.8c-0.9-0.4-5.4-0.2-11,0.3c1.1-1.8,2.2-3.5,3.1-4.9c2.7-3.8,4.5-5.9,2.3-6.4c-7.2-1.3-12,1.4-16,6.5
		c-1.1,1.5-2.5,3.6-4,6.2c-5.8,0.6-10.3,1.2-10.3,1.2c-5,1-1.6,8.4,1.9,8.6c0.6,0,1.9-0.2,3.7-0.5l-0.2,0.4
		c-4.2,7.1-16.7,27.7-21.6,28.2c-5.3,0.4-2.9-14,8.5-29.7c4.6-6.5,0.8-7.7-3.9-7c-9.9,1.4-14.3,7.4-20.8,14.6c1.5-2.7,3-5.4,4.5-8
		c1.5-2.7,1.7-4,1.7-5c-0.1-3.3-17.6-0.8-14.7,2c0.9,0.8,0.6,1.7-0.3,3.6c-2.2,4.9-10.8,18.3-11,28.3c-1,0.7-2.1,1.1-3.1,1.2
		c-5.3,0.5-2.9-13.9,8.5-29.7c2.7-3.8,4.5-6,2.3-6.4c-10.2-1.9-15.6,4.3-20.8,14.3c-2.3,4.3-4.1,9-5.1,13.5c-0.4,2.4-6.5,8-9.3,8.2
		c-5.4,0.5-2.9-13.9,8.4-29.7c2.8-3.8,4.6-6,2.4-6.4c-8.9-1.7-14.2,2.9-18.9,10.9c-2.1,1.1-4.4,2.2-6.5,3.2
		c-0.1-3.9-1.2-7.5-3.7-10.3c-2.8-3.1-6.7-4.8-10.9-4.4c-8.4,0.1-22.9,10.3-26.5,28.4c-2.2,10.8,5.6,19.3,14.3,18.3v0.1
		c10.9-0.4,22.2-12.5,25.6-24.5c1.1-0.6,2.1-1.1,3.2-1.8c-1,2.6-1.9,5.3-2.4,7.9c-2.4,11.9,3,20.9,12.9,17.6
		c4.3-1.4,8.1-5.4,11.1-9.3c1,7.3,5.9,11.8,13.3,9.3c2.4-0.8,4.6-2.4,6.7-4.3c1.4,2.3,3.9,4,7.9,4.8c0.3,0.1,3,0.4,2.2-0.9
		c-4.4-7.3,5.1-26.1,13.1-28.1c-1.6,3.5-2.9,7.2-3.7,10.7c-2.4,11.9,3.1,20.9,12.9,17.6c9.2-3,16.3-17.5,17.4-19.7
		c-1.4,5.8-1.7,11.1-0.2,14.6c2,4.6,6.3,7,12.1,5.1c4-1.2,8-4.7,11.3-8.4c2.5,6.9,9.5,11,16.6,8.7c3-1.1,6.5-3.5,9.9-6.4
		c1.8,5.4,6.4,8.2,12.6,6.2c2.8-0.9,5.5-3,7.8-5.4c2.7,4.2,7.3,6.7,12.2,6.1v0.1c9.6-0.4,19.4-9.7,24.1-20.2
		c-0.2,0.6-0.3,1.2-0.4,1.8c-2.4,11.9,3,20.9,12.9,17.6c4.7-1.6,8.9-6.2,12-10.6c0.6,7.9,5.5,12.6,13.4,10.6
		c7.8-2,18.2-13.4,26.3-24.2c1.6,1.2,3.4,1.8,5.4,1.9c-4,9.9-5.5,20.5,6.5,22.9c0.3,0.1,2.9,0.4,2.2-0.9
		c-4.4-7.3,5.1-26.1,13.1-28.1c-1.7,3.5-3,7.1-3.7,10.7c-2.4,11.9,3,20.9,12.9,17.6c9.9-3.2,17.3-19.9,17.3-19.9L805.6,190.5
		L805.6,190.5z M467.4,204.5c-5.2,1.1-6.5-2.7-5.8-7c0.6-3.7,2.4-8.5,4.5-12.6c2.2,5.4,7.4,9,13.5,8.3h0.1
		C477.2,198.2,473.1,202.6,467.4,204.5L467.4,204.5z M482.5,184.5c-5.4-0.3-8.5-7.4-6.3-10c2.3-2.8,5.2,1.1,5.9,3.3
		C482.6,179.7,482.8,182,482.5,184.5z M636,179.9c-0.9,2.2-2,3.4-3.5,4.2c-5.1,2.5-0.7,4.4,2.8,3.1c-2.2,9.2-3,16.3-10.8,17.4
		c-5.2,0.8-6.5-2.7-5.8-7c1-5.7,4.4-13.1,7.6-17.7c3.2-4.7,6.3-6.5,8.1-6.3C636.2,173.8,637.6,176.3,636,179.9L636,179.9z
		 M669.8,204.5c-5.2,1.1-6.5-2.7-5.8-7c0.6-3.7,2.4-8.5,4.5-12.6c2.2,5.4,7.4,9,13.5,8.3h0.1C679.6,198.2,675.4,202.6,669.8,204.5z
		 M684.9,184.5c-5.4-0.3-8.5-7.4-6.3-10c2.3-2.8,5.2,1.1,5.9,3.3C685,179.7,685.2,182,684.9,184.5L684.9,184.5z M752.5,174.5
		c-4.1-6.2,1.7-11.3,2.4-7.9C755.2,168.7,754,171.4,752.5,174.5z"/>
</g>
<g id="logo">
	<g>
		<g>
			<defs>
				<path id="SVGID_00000054966867613166881560000013439927928555453840_" d="M163.7,237.7c-0.7-22.2-0.1-51.3,8.6-82.1
					c-7.2-3.6-16.2-5.6-16.2-5.6c3.4,3.3,5,4.9,5,4.9c-7.9-4-13.3-4.7-15.4-5.1c2.5,1.5,5.7,5.1,5.7,5.1c-7.3-2.4-12-3.1-15.1-3.4
					c15.6,2.1,28.1,15.2,29.2,33.8c-4.1-7.4-11.8-15-11.8-15c1.1,4.5,1.7,6.8,1.7,6.8c-4.6-7.6-8.9-11.1-10.4-12.5
					c1.3,2.6,2.2,7.3,2.2,7.3c-7.1-8.4-11.3-11-13.7-12.7c1.2,1.6,2.7,4.1,3.2,6c-2.8-2.8-8.9-7-14.6-9.5
					C142.7,183.1,157.3,212.8,163.7,237.7 M119.4,149.2c4-18.6,23.2-28.6,42.7-21.3c-7.7,0.7-16.9,4.3-16.9,4.3
					c4.2,0.7,6.3,1.1,6.3,1.1c-8.1,1-12.5,3.3-14.3,4.1c2.7-0.2,6.9,0.9,6.9,0.9c-6.9,2-10.8,3.9-13.3,5.3
					c13.8-6.6,30.8-2.8,41.7,11c5.7-19.7,14.7-40.1,28.7-59.7c-5.5,2.7-11.3,7.1-14,9.9c0.4-1.9,1.9-4.5,3-6.1
					c-2.4,1.7-6.5,4.5-13.3,13.2c0,0,0.7-4.8,1.9-7.4c-1.5,1.5-5.6,5.1-10,12.9c0,0,0.5-2.3,1.4-6.9c0,0-7.5,7.9-11.3,15.5
					c0.3-15.4,8.6-27.4,20.3-32.6c1.6-1.1,3.5-2,5-2.7c-3.8,0.3-10.3,0.5-23.7,5.5c0,0,4-4.8,7.2-6.9c-2.7,0.6-9.7,1.8-19.8,7.4
					c0,0,2.1-2.2,6.3-6.6c0,0-13.7,3.6-23.1,9.4c14.2-21.8,39.4-28,59.1-17.3c0.3,0,0.5,0.1,0.8,0.1c-3-1.7-8-4.9-20.7-8.1
					c0,0,5.5-1.5,9-1.5c-2.3-0.9-8.3-3.6-18.7-4.6c0,0,2.7-0.6,8.1-1.7c0,0-12.2-4.3-22.2-4.8c25.4-10.6,51.2,2.1,56.8,26.7
					c-0.8-6.3-3.1-13.3-4.9-16.9c1.7,1.1,3.8,3.4,5,5.1c-0.9-2.9-2.2-7.9-8.5-17.5c0,0,4.5,2.3,6.6,4.4c-1-2-3.1-7.3-9.3-14.2
					c0,0,2.1,1.3,6.3,3.8c0,0-5.2-10-11.4-16.3c21.6,8,30.7,29.8,21.9,48.4c14.7-13.5,37.6-11.8,52,5.5c-8-3.7-19.2-5.3-19.2-5.3
					c3.7,3.1,5.6,4.7,5.6,4.7c-8.5-3.6-14.2-3.8-16.4-4.1c2.7,1.3,6.3,4.8,6.3,4.8c-11.1-2.7-16.3-2.3-19.3-2.2
					c0.4,0.1,0.8,0.2,1.2,0.4c19.8-0.5,37.4,14.2,40.6,37.1c-5.5-8.4-15.5-16.7-15.5-16.7c1.8,5.3,2.7,7.9,2.7,7.9
					c-6.2-8.6-11.6-12.2-13.5-13.8c1.8,2.9,3.3,8.5,3.3,8.5c-9.2-9.3-14.5-12-17.5-13.7c0.2,0.2,0.3,0.4,0.5,0.6
					c19.3,11.4,26.7,36.2,15.3,59.6c0.1-11.1-3.7-24.7-3.7-24.7c-1.6,5.9-2.4,8.8-2.4,8.8c-0.4-11.6-2.9-18.2-3.8-20.8
					c-0.1,3.8-2.2,9.7-2.2,9.7c-2.6-14.1-5.7-19.8-7.4-23.2c0.3,2.6,0.5,6.4-0.2,8.9c-0.3-1.2-0.9-2.7-1.5-4.2
					c2.3,13.2-3.7,27.4-17.4,36c4.6-7.2,7.6-17.7,7.6-17.7c-3.5,3.2-5.2,4.7-5.2,4.7c4.5-7.7,5.5-13.1,6-15.2
					c-1.6,2.4-5.4,5.5-5.4,5.5c4-10.3,4.3-15.4,4.6-18.3c-0.9,1.8-2.3,4.4-3.8,5.8c0.7-2.4,1.3-6.4,1.5-10.5
					c-26.8,46.9-28.5,111.7-23.6,151.9c-8.4,0-16.8,0-25.2,0c-0.2-2.5-0.7-8-0.9-9.6c-3.4-25.7-16.3-59.9-33.6-87.6
					c-0.4,6.2,0.7,13.6,1.9,17.4c-1.5-1.3-3-3.8-3.9-5.6c0.4,2.9,0.8,7.9,5.2,18c0,0-3.9-2.9-5.6-5.2c0.6,2,1.8,7.4,6.5,14.9
					c0,0-1.8-1.5-5.3-4.6c0,0,3.4,10.3,8.2,17.3c-16.7-9.6-22.8-27.7-16.5-42.9c0-0.1,0-0.2,0-0.3c-1.2,2.7-3.4,7.1-5.1,18
					c0,0-1.8-4.5-2-7.4c-0.6,2-2.4,7.2-2.3,16.1c0,0-0.7-2.2-2.1-6.7c0,0-2.6,10.5-2.2,19c-9.4-17.6-4.4-36.8,10.1-46.2
					c0.1-0.2,0.3-0.3,0.4-0.5c-2.3,1.4-6.3,3.6-13.1,11c0,0,1-4.3,2.3-6.6c-1.5,1.3-5.5,4.2-10,11c0,0,0.6-2,1.8-6.1
					c0,0-7.4,6.6-11.4,13.2c2.1-19.5,17.8-31.9,35-29.3c-2.8-0.5-5.4-0.8-7.1-0.7c1.2-0.7,3.2-1.3,4.6-1.6c-2-0.3-5.5-1-13.3,0
					c0,0,2.7-2,4.7-2.7c-1.5,0-5.4-0.3-11.4,1.5c0,0,1.4-0.9,4.1-2.7c0,0-7.7,0.2-13.4,2.1c10.8-10.3,26-10,34.9-0.3
					c-4.6-11.6,0.8-24.9,13.9-30.9c-3.9,4.6-6.9,11.7-6.9,11.7c2.7-1.9,4.1-2.9,4.1-2.9c-3.9,5-5.1,8.7-5.6,10.1
					c1.4-1.5,4.3-3.3,4.3-3.3c-3.8,6.8-4.4,10.3-4.9,12.3c0.7-1.2,2-2.9,3.1-3.7C120.8,142.8,119.9,146,119.4,149.2z"/>
			</defs>
			<clipPath id="SVGID_00000095296407219531121410000001202093225139711904_">
				<use xlink:href="#SVGID_00000054966867613166881560000013439927928555453840_"  style="overflow:visible;"/>
			</clipPath>
			
				<linearGradient id="SVGID_00000137117525531586308020000007200389106024182171_" gradientUnits="userSpaceOnUse" x1="59.0475" y1="391.7916" x2="200.0787" y2="74.0921">
				<stop  offset="0" style="stop-color:#FF2254"/>
				<stop  offset="0.25" style="stop-color:#FF3F47"/>
				<stop  offset="0.46" style="stop-color:#F25F41"/>
				<stop  offset="0.68" style="stop-color:#FF7D2C"/>
				<stop  offset="1" style="stop-color:#F2C822"/>
			</linearGradient>
			
				<rect x="75.5" y="36.6" style="clip-path:url(#SVGID_00000095296407219531121410000001202093225139711904_);fill:url(#SVGID_00000137117525531586308020000007200389106024182171_);" width="185.5" height="218.4"/>
		</g>
		<g>
			<defs>
				<path id="SVGID_00000029733468883779211580000007770515546333685640_" d="M219.9,251.3c-0.4-2.1-22.3-2.9-65.8-2.3
					c-0.9,0.1-20.5,1-30.5,2.8c-16.8,3,3.6,4.4,8.2,4.6c8.2,0.4,15.2,1.6-5.2,2.5c-34.9,1-29.9,8.1-0.1,7.2
					c5.8-0.2,20.9-2.4,9.4,3.8c-7.6,4.1-19.4,8,22.3,6.8c20-1.1,24.5,0.9,15.1,2.4c-12.7,2.5-14.2,3.2-6.2,5.5
					c19.2,1.4,36.1,1.2,50.9-0.8c3.7-3.5,0.2-5.5-10.5-5.9c-19.8-0.9-4.3-4.9,8.6-5.1c19.5-1.3,28.1-8.8-0.9-11.1
					C155.4,256.9,220.3,253.8,219.9,251.3"/>
			</defs>
			<clipPath id="SVGID_00000181075828916598747000000001802962214735808651_">
				<use xlink:href="#SVGID_00000029733468883779211580000007770515546333685640_"  style="overflow:visible;"/>
			</clipPath>
			
				<linearGradient id="SVGID_00000078044532295559953390000010331174243733415585_" gradientUnits="userSpaceOnUse" x1="144.0378" y1="293.3191" x2="202.074" y2="229.9384">
				<stop  offset="0" style="stop-color:#036FDB"/>
				<stop  offset="1" style="stop-color:#1ACCC0"/>
			</linearGradient>
			
				<rect x="91.7" y="248.3" style="clip-path:url(#SVGID_00000181075828916598747000000001802962214735808651_);fill:url(#SVGID_00000078044532295559953390000010331174243733415585_);" width="152.5" height="37.7"/>
		</g>
	</g>
	<g>
		<path class="st8" d="M31.4,263.9c-9.3-13.5-16.6-28.5-21.6-44.5c-4.8-15.5-7.4-32-7.4-49c0-14.4,1.8-28.4,5.3-41.8
			c3.6-13.8,8.9-26.9,15.7-39l4.7,2.6c-6.6,11.7-11.7,24.4-15.2,37.7c-3.4,12.9-5.1,26.5-5.1,40.4c0,16.5,2.5,32.4,7.1,47.4
			c4.8,15.5,11.9,30,20.9,43.1L31.4,263.9z M310.4,84.9c7.7,12.7,13.6,26.4,17.7,41.1c3.9,14.1,6,29,6,44.4
			c0,17.9-2.9,35.1-8.1,51.3c-5.4,16.7-13.5,32.3-23.6,46.2l-4.3-3.1c9.8-13.4,17.6-28.5,22.8-44.7c5.1-15.6,7.8-32.3,7.8-49.6
			c0-14.9-2-29.3-5.8-43c-3.9-14.1-9.7-27.4-17.1-39.7L310.4,84.9z"/>
		<g>
			<g>
				<path class="st8" d="M24.9,80.1c-4.3-4.2-3.8-10.8,1.7-15.8c3.2-3,6.5-4.7,9-4.8c0.1,2.4,0.1,3.6,0.3,5.9
					c-1.6,0.3-3.6,1.3-4.9,2.6c-2,1.8-2.2,4.3-0.5,6.1c1.8,1.9,4.1,1.8,6.1-0.1c1.7-1.5,2.7-4,2.9-6.8c2.5,0.5,3.8,0.7,6.2,1.3
					c-0.3,4-1.8,7.2-5.3,10.4C34.9,84.1,29.6,84.6,24.9,80.1z"/>
				<path class="st8" d="M40.5,56.1c3.3-2.5,4.9-3.6,8.3-5.9c5.7,3.9,8.5,5.9,13.9,10c-2.7,2.2-4,3.3-6.6,5.5
					c-0.9-0.9-1.4-1.3-2.3-2.2c-1,0.8-1.5,1.2-2.6,1.9c0.6,1.1,0.9,1.7,1.6,2.8c-2.8,1.9-4.2,2.9-7,5C43.5,66.5,42.4,63.1,40.5,56.1
					z M52.2,60.5c-1.9-1.5-2.9-2.2-4.8-3.7c-0.2,0.1-0.3,0.2-0.5,0.4c1,2.2,1.5,3.3,2.4,5.5C50.5,61.8,51,61.3,52.2,60.5z"/>
				<path class="st8" d="M72,48.6c2.5,0.3,3.7,0.5,6.1,0.8c-1.3,2.7-2,4-3.2,6.7c-3.4-1.2-5.1-1.7-8.6-2.7c-0.1,0.1-0.1,0.1-0.2,0.1
					c1,1.6,1.5,2.3,2.5,3.9c-2.6,1.5-3.9,2.3-6.5,3.9c-3.6-5.2-5.4-7.8-9.1-13c2-2.2,4.9-4.8,7.8-6.6c4.9-2.9,9.5-2.6,11.3,0.6
					C73.4,44.3,73.2,46.7,72,48.6C72,48.5,72,48.5,72,48.6z M65,49.9c1.3-0.8,1.8-1.9,1.1-3c-0.7-1.2-1.8-1.4-3.1-0.6
					c-0.9,0.6-1.3,1.1-1.5,1.6c0.8,1.2,1.2,1.8,2,2.9C64.1,50.5,64.3,50.3,65,49.9z"/>
				<path class="st8" d="M72.8,40.8c2.7-1.6,4-2.4,6.8-3.9c2.5,4.5,3.7,6.8,6.1,11.3c-3.2,1.3-4.7,2-7.8,3.4
					C75.8,47.2,74.8,45.1,72.8,40.8z M70,35.6c2.6-1.7,4-2.5,6.7-4c1,1.6,1.5,2.4,2.5,4c-3,1.5-4.5,2.3-7.4,4
					C71.1,38,70.7,37.2,70,35.6z"/>
				<path class="st8" d="M89.9,27.1c4.7-1.8,7.3-1.4,8.5,1.8c0.7,2-0.2,3.5-1.8,4.7c0,0,0,0.1,0,0.1c2.7-0.2,4.2,0.1,5.1,2.5
					c1.1,3-0.9,5.2-6,7.3c-2.5,1-7.8,3-10.1,3.7c-2.5-5.9-3.7-8.9-6.2-14.9C81.1,31.4,85.5,28.8,89.9,27.1z M90.9,40.6
					c0.5,0.1,1.1,0.1,2.1-0.3c1.4-0.6,2-1.6,1.5-2.8c-0.5-1.1-1.6-1.4-3.2-0.7c-0.7,0.3-0.9,0.4-1.6,0.7
					C90.2,38.8,90.4,39.4,90.9,40.6z M90.1,34.8c1.3-0.5,1.8-1.4,1.3-2.4c-0.4-1-1.2-1.6-2.5-1c-0.6,0.3-1.1,0.7-1.5,1
					c0.5,1.1,0.8,1.7,1.3,2.9C89.1,35.1,89.5,35.1,90.1,34.8z"/>
				<path class="st8" d="M108.7,20.5c4.9-1.3,7.4-0.7,8.3,2.6c0.5,2-0.5,3.4-2.2,4.5c0,0,0,0.1,0,0.1c2.6,0,4.2,0.5,4.8,3
					c0.8,3.1-1.3,5-6.6,6.7c-2.6,0.8-8,2.2-10.3,2.6c-1.9-6.2-2.9-9.2-4.7-15.4C99.6,23.8,104.2,21.7,108.7,20.5z M108.4,34
					c0.5,0.1,1.1,0.2,2.1-0.1c1.5-0.5,2.1-1.4,1.8-2.6c-0.4-1.2-1.4-1.6-3.1-1c-0.7,0.2-0.9,0.3-1.7,0.6
					C107.9,32.1,108,32.8,108.4,34z M108.2,28.2c1.3-0.4,1.9-1.2,1.5-2.3c-0.3-1.1-1-1.7-2.4-1.2c-0.6,0.2-1.2,0.6-1.6,0.9
					c0.4,1.2,0.6,1.8,1,3C107.2,28.4,107.6,28.3,108.2,28.2z"/>
				<path class="st8" d="M116,18.9c6.2-1.8,9.4-2.5,15.7-3.8c0.5,2,0.7,3.1,1.2,5.1c-3.2,0.4-4.9,0.7-8.1,1.2
					c0.2,0.7,0.3,1.1,0.4,1.9c2.3-0.6,3.4-0.9,5.7-1.5c0.2,1.4,0.3,2.1,0.5,3.5c-2.2,0.4-3.2,0.7-5.4,1.2c0.2,0.7,0.3,1.1,0.4,1.8
					c3.3-1,4.9-1.5,8.2-2.4c0.1,2.5,0.2,3.7,0.4,6.2c-5.8,0.9-8.8,1.4-14.5,2.8C118.7,28.5,117.8,25.3,116,18.9z"/>
				<path class="st8" d="M137.8,14.2c3.9-0.5,5.8-0.7,9.7-1c2.9,6.2,4.3,9.3,6.9,15.6c-3.3,0.5-4.9,0.8-8.1,1.5
					c-0.4-1.2-0.5-1.8-0.9-3c-1.2,0.1-1.8,0.2-3.1,0.4c0,1.3,0,1.9,0,3.2c-3.3,0.2-4.9,0.4-8.2,0.7
					C135.3,24.7,136.1,21.2,137.8,14.2z M145.5,23.9c-0.9-2.2-1.4-3.4-2.3-5.6c-0.2,0-0.4,0-0.6,0.1c-0.2,2.4-0.3,3.6-0.5,5.9
					C143.4,24.1,144.1,24,145.5,23.9z"/>
				<path class="st8" d="M153,13.2c2.9-0.4,4.4-0.6,7.3-1c1.6,3,2.3,4.6,3.8,7.6c0.2-0.1,0.3-0.1,0.5-0.2c-0.5-2.9-0.8-4.4-1.3-7.3
					c3.3,0,5,0,8.4,0.1c-0.3,6.5-0.4,9.8-0.7,16.3c-2.7,0.2-4,0.3-6.7,0.6c-2-3.4-3-5.2-5.2-8.5c-0.2,0-0.3,0.1-0.4,0.1
					c0.9,3.4,1.4,5.2,2.3,8.6c-3.3-0.1-5-0.1-8.4,0C152.7,22.9,152.8,19.7,153,13.2z"/>
				<path class="st8" d="M189.3,10.3c0.4,6,0.5,8.9,0.8,14.9c0.2,0,0.3,0,0.6,0.1c1.3-5.9,2-8.8,3.5-14.6c3.7,0.8,5.6,1.2,9.2,2.2
					c-3.7,7.2-5.4,10.8-8.6,18.1c-4.1-0.5-6.1-0.6-10.2-0.9c-1.6-8.1-2.5-12.1-4.6-20.1C183.7,10,185.6,10,189.3,10.3z"/>
				<path class="st8" d="M205.2,15.5c3.8,0.8,5.7,1.2,9.5,2.2c0.8,6.8,1.1,10.2,1.5,17c-3.3-0.6-4.9-0.8-8.2-1.2
					c0.1-1.3,0.1-1.9,0.1-3.2c-1.2-0.3-1.8-0.4-3-0.6c-0.4,1.2-0.7,1.8-1.1,3.1c-3.2-0.8-4.8-1.2-8-2
					C199.5,24.6,201.4,21.5,205.2,15.5z M209.4,27.1c-0.1-2.4-0.2-3.6-0.4-6c-0.2,0-0.4-0.1-0.6-0.1c-1,2.2-1.5,3.3-2.4,5.5
					C207.4,26.7,208,26.8,209.4,27.1z"/>
				<path class="st8" d="M215.4,26.4c1.3-5.1,6.3-7.7,12.2-5.9c3.7,1.1,6.1,2.8,7.6,5.4c-1.9,1.2-2.8,1.8-4.7,3.1
					c-0.8-1.4-2.2-2.6-3.8-3.1c-2.2-0.7-3.8,0.4-4.3,2c-0.5,1.8,0.3,3.4,2.6,4.1c1.5,0.5,3.3,0.2,5.3-0.7c0.7,2.2,1,3.4,1.6,5.6
					c-3.1,1.4-6,1.6-9.3,0.6C216.5,35.7,214,32,215.4,26.4z"/>
				<path class="st8" d="M240.4,25.3c3.7,1.5,5.5,2.3,9.1,3.9c-0.4,6.9-0.7,10.3-1.5,17c-3.2-1.2-4.8-1.7-8-2.7
					c0.3-1.2,0.4-1.9,0.7-3.1c-1.2-0.5-1.7-0.7-2.9-1.2c-0.6,1.1-1,1.7-1.6,2.8c-3-1.4-4.5-2.1-7.6-3.4
					C233.1,33.3,235.5,30.6,240.4,25.3z M242.5,37.5c0.3-2.4,0.4-3.6,0.7-6c-0.2-0.1-0.3-0.1-0.6-0.2c-1.4,2-2,2.9-3.4,4.9
					C240.6,36.7,241.2,37,242.5,37.5z"/>
				<path class="st8" d="M249.2,47.8c2.1-4,3.1-6,5.3-10c-2.3-1.1-3.4-1.6-5.7-2.6c1.2-2.1,1.8-3.2,3.1-5.4c7,3.4,10.4,5.3,17.1,9.4
					c-0.8,1.9-1.2,2.9-2.1,4.8c-2.2-1.2-3.4-1.8-5.6-3c-1.9,3.9-2.8,5.9-4.7,9.8C253.6,49.6,252.1,49,249.2,47.8z"/>
				<path class="st8" d="M267.5,43.5c2.8,1.4,4.2,2.2,7,3.7c-2.5,4.5-3.8,6.7-6.4,11.1c-2.8-2-4.2-3-7.1-4.9
					C263.6,49.5,264.9,47.5,267.5,43.5z M270.5,38.4c2.8,1.4,4.2,2.1,7,3.6c-0.8,1.7-1.3,2.5-2.1,4.2c-2.9-1.8-4.4-2.6-7.4-4.2
					C269,40.6,269.5,39.9,270.5,38.4z"/>
				<path class="st8" d="M286.1,49.4c5.1,3.6,6.6,9.2,3.3,13.3c-3.2,4.1-8.6,4.2-13.3,0.9c-4.7-3.3-6.3-8.4-3.6-12.8
					C275.4,46.3,281,45.7,286.1,49.4z M278.8,59.1c1.8,1.3,3.9,1.1,5.1-0.5c1.2-1.6,0.6-3.7-1.2-5c-1.9-1.3-4-1.1-5.1,0.5
					C276.4,55.8,276.9,57.8,278.8,59.1z"/>
				<path class="st8" d="M294.8,56.8c2.6,1.7,3.8,2.6,6.4,4.5c-0.8,3.4-1.3,5.1-2.2,8.4c0.2,0.1,0.3,0.1,0.5,0.2
					c1.6-2.5,2.4-3.8,3.9-6.3c2.7,2.4,4,3.6,6.5,6.2c-4.7,4.6-7,6.9-11.6,11.5c-2.3-1.8-3.4-2.7-5.7-4.5c0.8-4,1.1-6,1.7-10
					c-0.2-0.1-0.3-0.1-0.4-0.2c-1.6,3.2-2.4,4.8-4.1,8c-2.6-2.5-3.9-3.7-6.5-6C287.8,63.7,290.1,61.4,294.8,56.8z"/>
			</g>
		</g>
		<g>
			<g>
				<path class="st8" d="M51.3,263.1c5.5,5,8.3,7.3,14.1,11.5c-1.5,2.1-2.2,3.1-3.7,5.2c-2.9-2.4-4.4-3.7-7.2-6.3
					c-1,1-1.5,1.5-2.4,2.6c2,1.7,3.1,2.5,5.2,4.1c-1.4,1.5-2.1,2.3-3.5,3.8c-2-1.7-2.9-2.6-4.8-4.5c-2.4,2.5-3.6,3.8-5.9,6.4
					c-3.2-3.2-4.7-4.9-7.7-8.3C41.8,271.9,45,269,51.3,263.1z"/>
				<path class="st8" d="M64.8,275c5.9,4.3,9,6.3,15.3,9.8c-1.2,2.2-1.9,3.3-3.1,5.6c-3.4-2.2-5.1-3.4-8.4-5.8
					c-0.6,0.8-0.9,1.2-1.5,2c2.7,1.7,4.1,2.5,6.9,4.1c-0.9,1.7-1.3,2.6-2.2,4.3c-3-1.8-4.5-2.8-7.4-4.8c-0.7,0.9-1,1.3-1.7,2.2
					c3.8,2.3,5.7,3.3,9.6,5.3c-1.4,2.7-2,4.1-3.4,6.8c-7.5-4.8-11.1-7.4-18-13.1C56.4,284.9,59.2,281.6,64.8,275z"/>
				<path class="st8" d="M80.4,286.1c2.6,1.1,8.6,4,11.4,5.4c5.5,2.8,7.9,5.8,6.2,9.7c-1.1,2.6-3.3,3.7-6.4,3.2c0,0,0,0.1-0.1,0.1
					c2.3,2.1,3.2,4.3,2.2,6.5c-1.5,3.5-5.9,3.8-11.9,0.7c-4.3-2.2-10-5.7-11.7-7.1C74.2,297.2,76.2,293.5,80.4,286.1z M85.2,300.1
					c2.1,1.1,3.6,0.9,4.4-0.5c0.7-1.4,0-2.8-1.9-3.8c-1.3-0.7-2.2-0.9-2.9-0.9c-0.8,1.5-1.1,2.3-1.9,3.8
					C83.8,299.4,84.2,299.6,85.2,300.1z M80.7,305.1c0.3,0.5,1,1.1,1.8,1.5c1.2,0.6,2.3,0.3,2.9-0.9c0.6-1.1,0-2.1-1.6-3
					c-0.7-0.4-1.2-0.5-1.8-0.8C81.5,303.1,81.2,303.8,80.7,305.1z"/>
				<path class="st8" d="M99.3,296.7c3,0.5,8.2,1.7,11.4,2.9c6.2,2.3,9.4,5.9,8.2,10.1c-0.9,3.1-3.6,4.8-6.9,4.6c0,0,0,0.1,0,0.1
					c2.1,2.5,3.1,3.8,5.4,6.2c-3.4,1.6-5.2,2.4-8.8,3.8c-2.8-4.8-4-7.2-6.4-12.1c-0.1,0-0.1,0-0.2-0.1c-0.4,3.1-0.6,4.6-0.9,7.7
					c-3.7-1.5-5.5-2.3-9.1-4C94.8,308.3,96.3,304.5,99.3,296.7z M106.5,309.5c2.2,0.8,3.7,0.4,4.2-1.1c0.5-1.5-0.3-2.8-2.3-3.5
					c-1.4-0.5-2.3-0.5-3-0.4c-0.6,1.6-0.8,2.4-1.4,4C105,308.9,105.4,309.1,106.5,309.5z"/>
				<path class="st8" d="M121.6,303.9c3.3,0.6,4.9,0.8,8.1,1.2c-2.6,5.4-6.2,14.9-2.2,15.7c4,0.9,4.3-7.3,5-15
					c3.1,0.8,4.6,1.1,7.7,1.7c2.3,9.6-2.2,22.5-14.4,19.9C112.7,324.6,115.8,312.3,121.6,303.9z"/>
				<path class="st8" d="M146.2,307.9c4.5,0.6,6.7,0.9,11.3,1.2c2,8.6,3.2,12.9,5.8,21.4c-4.3,0.3-6.4,0.4-10.8,0.5
					c-0.2-1.4-0.3-2.1-0.4-3.5c-2.1-0.1-3.1-0.2-5.2-0.4c-0.6,1.4-0.8,2.1-1.4,3.5c-4.2-0.7-6.3-1.1-10.5-2
					C139.9,320.4,142.1,316.3,146.2,307.9z M152.5,323c-0.6-3.4-0.9-5.1-1.4-8.6c-0.3,0-0.4,0-0.6-0.1c-1.4,3.3-2.1,4.9-3.6,8.1
					C149.1,322.8,150.3,322.9,152.5,323z"/>
				<path class="st8" d="M162.2,310.4c2.9-0.7,8.1-1.6,11.5-1.7c6.5-0.3,10.8,1.8,11.3,6.1c0.4,3.2-1.5,5.8-4.6,6.9
					c0,0.1,0,0.1,0,0.1c2.9,1.5,4.3,2.3,7.3,3.7c-2.5,2.8-3.8,4.2-6.6,6.9c-4.4-3.3-6.5-5.1-10.4-8.7c-0.1,0-0.1,0-0.2,0
					c0.8,3,1.2,4.5,2.1,7.4c-3.9,0-5.9,0-9.8-0.1C162.6,322.8,162.4,318.7,162.2,310.4z M173.6,319.4c2.3-0.1,3.5-1,3.4-2.7
					c-0.1-1.6-1.4-2.4-3.5-2.3c-1.4,0.1-2.3,0.4-2.9,0.8c0.1,1.7,0.2,2.6,0.3,4.3C172,319.4,172.5,319.4,173.6,319.4z"/>
				<path class="st8" d="M190.8,306.9c1.7,3.5,2.5,5.2,4.3,8.7c0.3,0,0.4-0.1,0.6-0.1c0.1-3.9,0.1-5.8,0.1-9.7
					c3.9-0.4,5.8-0.7,9.6-1.3c-1.7,6.2-2.7,9.3-5,15.5c0.8,3.1,1.3,4.6,2.1,7.7c-4.2,0.6-6.3,0.9-10.5,1.3c-0.3-2.8-0.4-4.2-0.7-7.1
					c-4.3-5.2-6.3-7.9-10.1-13.4C185.2,308,187.1,307.6,190.8,306.9z"/>
				<path class="st8" d="M224.2,306.2c-0.4-1.1-1.4-1.4-2.8-0.9c-1.8,0.7-2.9,1.6-5.3,3.5c-1.3-2.2-1.9-3.2-3.2-5.4
					c2.4-2,4.8-3.4,7.3-4.3c0.4-0.2,0.9-0.3,1.3-0.4c3.9-1.2,7.8-0.5,9.6,1.7c2.5,3.1,0.9,8.5-4.5,13c3.8-1.3,5.7-2,9.5-3.6
					c0.7,2.7,1,4,1.7,6.8c-7.2,2.9-10.8,4.1-18.2,6.2c-1.1-2.5-1.7-3.8-2.8-6.3C221.6,312.4,224.9,308.1,224.2,306.2z"/>
				<path class="st8" d="M239,290.7c6.1-3.2,12.4-1.8,16,4c3.6,5.8,1.5,12.5-5.4,16.2c-6.9,3.6-13.5,1.4-16.2-4.8
					C230.5,299.7,232.9,293.8,239,290.7z M245.9,303.9c2.2-1.2,2.9-3.5,1.6-5.8c-1.3-2.3-3.5-3-5.6-1.9c-2.1,1.1-2.8,3.3-1.6,5.6
					C241.4,304.2,243.7,305,245.9,303.9z"/>
				<path class="st8" d="M260.8,286.9c-0.6-0.9-1.7-1-3-0.2c-1.7,1.1-2.5,2.3-4.4,4.8c-1.8-1.8-2.7-2.7-4.4-4.5
					c1.9-2.6,3.9-4.5,6.2-6.1c0.4-0.3,0.8-0.5,1.2-0.8c3.6-2.2,7.6-2.6,10-0.8c3.2,2.4,2.9,8-1.4,13.9c3.5-2.3,5.2-3.5,8.5-6
					c1.3,2.5,2,3.7,3.3,6.2c-6.4,4.7-9.8,6.9-16.5,10.8c-1.7-2.2-2.6-3.3-4.3-5.4C259.8,293.7,262,288.5,260.8,286.9z"/>
				<path class="st8" d="M275.1,282.4c-0.9-1-1.3-1.5-2.2-2.5c0.7-0.6,1.1-0.9,1.7-1.5c2.4-2,3.1-3.5,2.2-4.6
					c-0.6-0.7-1.8-0.3-3.6,1.2c-1.4,1.2-2.3,2.5-3.7,5.1c-2-1.6-3-2.3-4.9-3.9c1.9-3.3,4.2-5.9,6.6-7.8c3.9-3,8-4.2,10.5-2.8
					c2.4,1.4,2.5,4.2,1,7.5c0.1,0.1,0.1,0.1,0.1,0.1c3.1-1.3,5.5-1.2,7.2,0.3c2.4,2.3,1.1,6.9-3.5,11.5c-0.4,0.4-0.8,0.8-1.3,1.2
					c-2.6,2.3-5.8,4.2-9.2,5.3c-1-2.3-1.5-3.5-2.6-5.8c3.2-1.1,4.8-1.9,6.6-3.4c1.9-1.6,2.2-2.7,1.4-3.5c-0.7-0.8-2.2,0-4.8,2.1
					C276.1,281.6,275.7,281.9,275.1,282.4z"/>
			</g>
		</g>
	</g>
</g>
<g>
	<path class="st8" d="M354.8,152.3c0-9.4,6.2-15.7,15.2-15.7c5.6,0,9.7,1.5,13.1,4.9l-5.1,7.8c-1.8-1.9-4.4-3.1-6.8-3.1
		c-3.5,0-5.3,2.5-5.3,5.6c0,3.2,1.8,5.7,5.6,5.7c2.4,0,4.9-1.4,7.4-4l5.1,8.5c-3.9,4.2-8.1,6.1-13.6,6.1
		C360.2,167.9,354.8,162.5,354.8,152.3z"/>
	<path class="st8" d="M390,137.3l14.3,0.4l8.5,28.5l-13.2,1.3l-0.8-5.5h-4.9l-0.7,5.7l-13.1-1L390,137.3z M399.6,156l-2.5-10.3h-0.9
		l-2,10.3H399.6z"/>
	<path class="st8" d="M434.5,157.4l7.6,6.5l-9.4,7.6l-9.3-11.9l-0.3,0l0.1,8.2l-11.7-0.5l-0.4-28c4.1-1.2,9.6-2.4,14.5-2.3
		c8.2,0.1,13.8,4.5,13.8,10.9c0,4-1.9,7.6-4.9,9.2V157.4z M424.3,153.1c2.3,0,3.7-1.2,3.7-3.6s-1.2-3.7-3.5-3.7
		c-1.5,0-2.5,0.4-3.1,0.9l0.2,6.3C422.7,153.1,423.2,153.1,424.3,153.1z"/>
	<path class="st8" d="M441.1,146l11.6-0.7l0.8,22.7l-13.4-1L441.1,146z M441.1,135.6l11.2-0.9l0.6,8.3l-12.3,0.3L441.1,135.6z"/>
	<path class="st8" d="M472.4,137c7.4,0.2,10.8,2.3,10.8,8.4c0,3.7-2,5.7-5,6.6v0.2c3.9,1.3,6,2.8,6,7.3c0,5.6-4.1,8.2-13,8.2
		c-4.3,0-13.2-0.7-16.9-1.3l1.2-28.4C458.1,137.6,465.6,136.8,472.4,137z M465.9,159.7c0.7,0.5,1.5,0.9,3.1,0.9
		c2.4,0,3.8-1.2,3.8-3.5c0-2.2-1.4-3.3-4-3.3c-1.2,0-1.4,0-2.7,0.1L465.9,159.7z M468.2,149.7c2.1,0,3.2-1,3.2-3.1
		c0-1.9-0.7-3.3-2.9-3.3c-1,0-1.9,0.3-2.6,0.6l0.1,5.6C466.7,149.5,467.3,149.7,468.2,149.7z"/>
	<path class="st8" d="M501.5,137c7.4,0.2,10.8,2.3,10.8,8.4c0,3.7-2,5.7-5,6.6v0.2c3.9,1.3,6,2.8,6,7.3c0,5.6-4.1,8.2-13,8.2
		c-4.3,0-13.2-0.7-16.9-1.3l1.2-28.4C487.2,137.6,494.6,136.8,501.5,137z M494.9,159.7c0.7,0.5,1.5,0.9,3.1,0.9
		c2.4,0,3.8-1.2,3.8-3.5c0-2.2-1.4-3.3-4-3.3c-1.2,0-1.4,0-2.7,0.1L494.9,159.7z M497.3,149.7c2.1,0,3.2-1,3.2-3.1
		c0-1.9-0.7-3.3-2.9-3.3c-1,0-1.9,0.3-2.6,0.6l0.1,5.6C495.8,149.5,496.4,149.7,497.3,149.7z"/>
	<path class="st8" d="M512.4,137.8l23.7-0.6l0.4,9.2l-12.3-0.6l0,3.4l8.9-0.6l-0.3,6.2l-8.5,0.1l0,3.3l13.3-1.4l-1.1,10.9l-23.7-0.6
		L512.4,137.8z"/>
	<path class="st8" d="M545.2,137.3l14.3,0.4l8.5,28.5l-13.2,1.3L554,162h-4.9l-0.7,5.7l-13.1-1L545.2,137.3z M554.8,156l-2.5-10.3
		h-0.9l-2,10.3H554.8z"/>
	<path class="st8" d="M567.8,138.3l10.8-1L584,151l0.8-0.3l-1.8-13l12.4,0.1l-0.6,28.9l-10.8,1l-7.8-15.4l-0.7,0.1l3,15.4l-13.4-0.9
		L567.8,138.3z"/>
	<path class="st8" d="M620.7,137.1l3.1,21.1h0.9l2-21.5l13.5,1.3l-8.2,29.1l-15.9,0.5l-8.7-30L620.7,137.1z"/>
	<path class="st8" d="M643.6,137.3l14.3,0.4l8.5,28.5l-13.2,1.3l-0.8-5.5h-4.9l-0.7,5.7l-13.1-1L643.6,137.3z M653.2,156l-2.5-10.3
		h-0.9l-2,10.3H653.2z"/>
	<path class="st8" d="M662,152.3c0-9.4,6.2-15.7,15.2-15.7c5.6,0,9.7,1.5,13.1,4.9l-5.1,7.8c-1.8-1.9-4.4-3.1-6.8-3.1
		c-3.5,0-5.3,2.5-5.3,5.6c0,3.2,1.8,5.7,5.6,5.7c2.4,0,4.9-1.4,7.4-4l5.1,8.5c-3.9,4.2-8.1,6.1-13.6,6.1
		C667.3,167.9,662,162.5,662,152.3z"/>
	<path class="st8" d="M697.1,137.3l14.3,0.4l8.5,28.5l-13.2,1.3l-0.8-5.5H701l-0.7,5.7l-13.1-1L697.1,137.3z M706.7,156l-2.5-10.3
		h-0.9l-2,10.3H706.7z"/>
	<path class="st8" d="M722.7,167.9l0.6-20L714,148l0.9-10.9l28.1,1.1l0.8,9.2l-9.4,0.1l0.7,19.2L722.7,167.9z"/>
	<path class="st8" d="M744.3,146l11.6-0.7l0.8,22.7l-13.4-1L744.3,146z M744.4,135.6l11.2-0.9l0.6,8.3l-12.3,0.3L744.4,135.6z"/>
	<path class="st8" d="M771.4,137c8.8,0,15.2,6.1,15.2,15.3c0,9.2-6.4,15.3-15.2,15.3c-8.9,0-15.1-6.1-15.1-15.3
		C756.2,143.1,762.5,137,771.4,137z M770.8,158.6c3.3,0,5.7-2.4,5.7-5.9c0-3.5-2.4-5.9-5.7-5.9c-3.4,0-5.7,2.3-5.7,5.9
		C765,156.2,767.4,158.6,770.8,158.6z"/>
	<path class="st8" d="M787.3,138.3l10.8-1l5.4,13.7l0.8-0.3l-1.8-13l12.4,0.1l-0.6,28.9l-10.8,1l-7.8-15.4l-0.7,0.1l3,15.4
		l-13.4-0.9L787.3,138.3z"/>
	<path class="st8" d="M442.2,192c0-9.4,6.2-15.7,15.2-15.7c5.6,0,9.7,1.5,13.1,4.9l-5.1,7.8c-1.8-1.9-4.4-3.1-6.8-3.1
		c-3.5,0-5.3,2.5-5.3,5.6c0,3.2,1.8,5.7,5.6,5.7c2.4,0,4.9-1.4,7.4-4l5.1,8.5c-3.9,4.2-8.1,6.1-13.6,6.1
		C447.6,207.6,442.2,202.2,442.2,192z"/>
	<path class="st8" d="M483.1,176.7c8.8,0,15.2,6.1,15.2,15.3s-6.4,15.3-15.2,15.3c-8.9,0-15.1-6.1-15.1-15.3
		S474.2,176.7,483.1,176.7z M482.5,198.3c3.3,0,5.7-2.4,5.7-5.9c0-3.5-2.4-5.9-5.7-5.9c-3.4,0-5.7,2.3-5.7,5.9
		C476.8,195.8,479.1,198.3,482.5,198.3z"/>
	<path class="st8" d="M499.4,178l10.8-1.3c-1.9,9.5-3.3,20.4,1.7,20.4c5,0,3.7-7.8,2.4-20.3l10.4,0.5c6.4,17.3,1.2,29.9-13.2,29.9
		C497,207.4,492.7,197.8,499.4,178z"/>
	<path class="st8" d="M528.2,178l10.8-1l5.4,13.7l0.8-0.3l-1.8-13l12.4,0.1l-0.6,28.9l-10.8,1l-7.8-15.4l-0.7,0.1l3,15.4l-13.4-0.9
		L528.2,178z"/>
	<path class="st8" d="M564.1,207.6l0.6-20l-9.3,0.1l0.9-10.9l28.1,1.1l0.8,9.2l-9.4,0.1l0.7,19.2L564.1,207.6z"/>
	<path class="st8" d="M584.4,178.4c4-1,8.1-1.7,12.2-1.7c1.6,0,3.1,0.1,4.7,0.3c7.7,1.1,13.5,5,13.5,15c0,11.1-7.1,15.3-17.1,15.3
		c-4.4,0-8.7-0.8-13-2L584.4,178.4z M595.8,197c0.5,0.5,1.9,0.9,3,0.9c2,0,3.9-2.5,3.9-6.1c0-3.4-1.6-6-3.8-6
		c-1.2,0-2.2,0.1-3.2,0.5L595.8,197z"/>
	<path class="st8" d="M628,176.7c8.8,0,15.2,6.1,15.2,15.3s-6.4,15.3-15.2,15.3c-8.9,0-15.1-6.1-15.1-15.3S619.1,176.7,628,176.7z
		 M627.4,198.3c3.3,0,5.7-2.4,5.7-5.9c0-3.5-2.4-5.9-5.7-5.9c-3.4,0-5.7,2.3-5.7,5.9C621.6,195.8,624,198.3,627.4,198.3z"/>
	<path class="st8" d="M652.3,176.9l2.8,18h0.9l2.5-16.7l10.2-0.5l2.8,18.8h0.9l1.8-20.5l13.5,1.3l-7.4,29.3l-15.3,0.5l-1.3-11.1
		l-0.4,0.1l-2.2,11.3l-14-0.5l-7.8-29.4L652.3,176.9z"/>
	<path class="st8" d="M687,178l10.8-1l5.4,13.7l0.8-0.3l-1.8-13l12.4,0.1l-0.6,28.9l-10.8,1l-7.8-15.4l-0.7,0.1l3,15.4l-13.4-0.9
		L687,178z"/>
</g>
</svg>
