<?xml version="1.0" encoding="UTF-8"?><svg id="Layer_2" xmlns="http://www.w3.org/2000/svg" xmlns:xlink="http://www.w3.org/1999/xlink" viewBox="0 0 814.91 342.3"><defs><style>.cls-1{clip-rule:evenodd;fill:none;}.cls-1,.cls-2,.cls-3,.cls-4{stroke-width:0px;}.cls-2{fill:#f7a904;fill-rule:evenodd;}.cls-3{fill:url(#New_Gradient_Swatch_1);}.cls-5{clip-path:url(#clippath);}.cls-4{fill:#ff2652;}</style><clipPath id="clippath"><path class="cls-1" d="m59.65,52.17C98.18,13.61,152.21,0,201.7,11.27c-43.38-7.4-89.57,5.65-123.07,39.15-54.85,54.88-54.85,143.83,0,198.71,8.21,8.22,17.12,15.34,26.69,20.96,33.42,19.54,41.04-2.91,39.68-24.07-3-47.23,4.15-92.42,18.3-116.2-16.77,8.9-28.04,27.23-26.86,52.48-15.09-20.82-8.68-43.05,6.24-52.96-19.91,5.79-37.53,21.35-47.54,47.03-8.78-41.27,23.33-67.56,52.88-60.67-18.08-8.19-34.97-10.23-50.73-6.75-.85.2-1.72.4-2.58.62-1.1.28-2.2.59-3.3.93-12,3.75-23.33,10.74-34.01,20.62,4.84-43.36,71.05-64.31,101.46-21.21-14.18-23.87-37.2-35.14-61.04-33.87,26.67-22.43,66.55-4.71,70.99,28.53.03-.12.06-.23.08-.34h0c.03-.14.09-.25.12-.37.03-.2.09-.37.14-.53.06-.2.12-.37.18-.54.03-.2.08-.37.14-.54.06-.17.09-.34.15-.53.05-.17.11-.34.17-.51.06-.2.11-.37.17-.54.06-.17.12-.34.18-.51.08-.2.14-.37.2-.53.05-.17.11-.34.17-.51,8.36-23.47,27.59-32.77,50.28-32.12-.31.06-.6.08-.9.11-19.44,2.43-40,21.35-41.9,39.88,21.79-27.15,63.64-22.34,75.84,11.32-20.02-13.05-45.68-14.77-69.88-1.16,47.94-22.28,96.4,17.93,81.66,66.26-10.96-30.02-37.45-52.2-75.02-55.9,29.06,8.81,43.7,47.62,15.48,79,4.49-29.2-4.44-52.68-20.85-67.59,9.58,16.1,4.6,40.13-19.92,51.1,11.95-18.67,12.96-37.51,6.25-52.74-1.14-2.54-2.46-5-4.01-7.31-33.24,97.87,16.41,212.32,109.85,119.14,33.53-33.44,46.52-79.65,39.15-123.04,11.27,49.48-2.34,103.49-40.9,142.05-59.63,59.62-156.34,59.62-215.97,0C0,208.48,0,111.8,59.65,52.17"/></clipPath><linearGradient id="New_Gradient_Swatch_1" x1="212.33" y1="329.97" x2="103.3" y2="-27.5" gradientUnits="userSpaceOnUse"><stop offset="0" stop-color="#ff2254"/><stop offset=".25" stop-color="#ff3f47"/><stop offset=".46" stop-color="#f25f41"/><stop offset=".68" stop-color="#ff7d2c"/><stop offset="1" stop-color="#f2c822"/></linearGradient></defs><g id="Layer_1-2"><path class="cls-2" d="m251.07,39.51c9.69,0,17.52,7.83,17.52,17.51s-7.82,17.49-17.52,17.49-17.48-7.82-17.48-17.49,7.82-17.51,17.48-17.51"/><g class="cls-5"><rect class="cls-3" width="327.78" height="342.3"/></g><path class="cls-4" d="m468.31,92.45c1.99.21,4.15-.68,4.78-1.99.63-1.31-.47-2.57-2.52-2.78-1.99-.21-4.15.68-4.78,1.99-.63,1.31.47,2.57,2.52,2.78Z"/><path class="cls-4" d="m584.62,115.38c-3.25.31-1.73-8.34,5.04-17.84,2.83-3.99.52-4.62-2.31-4.2-5.98.84-8.61,4.41-12.49,8.82.89-1.68,1.84-3.31,2.68-4.83.89-1.63,1.05-2.41,1.05-2.99-.11-1.99-10.6-.52-8.87,1.15.52.52.37,1.1-.11,2.2-1.36,2.96-6.73,11.37-6.63,17.4-.42.18-.84.29-1.25.28-2.05,0-1.68-5.41.52-11.91.58-1.63,1.26-3.31,1.99-5.04,1.26-2.89,2.41-2.52,1.68-3.31-2.68-2.73-7.14-.84-7.71-.05-.31-.42-2.15-1.31-2.41-1.36-7.29-1.94-14.28,3.99-17.37,11.28-.72,1.75-1.34,3.59-1.71,5.35-2.75,2.32-6.13,4.89-8,5.26-3.15.63-3.88-1.63-3.46-4.2.16-.79.37-1.63.63-2.57,9.5.63,19.47-12.91,10.97-15.11-5.6-1.49-11.02,1.66-14.63,6.51-1.31.71-2.62,1.38-3.89,1.99,0-6.51-5.98-10.92-11.91-7.87,2.1-3.88,4.04-6.88,5.04-7.87,1.99-1.99,2.73-3.52,1.42-3.83-8.31-1.93-14.74,9.51-18.24,18.81-.52.26-1.04.52-1.55.76,0-6.51-5.98-10.92-11.91-7.87,2.1-3.88,4.04-6.88,5.04-7.87,1.99-1.99,2.73-3.52,1.42-3.83-11.55-2.68-19.47,20.47-20.94,27.82-.27,1.32-.38,2.59-.34,3.75-.83.67-1.68,1.12-2.49,1.18-3.25.31-1.73-8.34,5.04-17.84,1.68-2.31,2.78-3.62,1.42-3.83-6.09-1.15-9.34,2.57-12.49,8.61-1.31,2.57-2.41,5.41-2.99,8.13-.17.84-.28,1.66-.32,2.44-1.22,1.32-2.57,2.38-3.83,2.49-6.25.47,3.25-14.7,4.04-16.74,1.47-3.88.68-7.19-5.88-4.04-1.15.58-3.52,1.68-6.25,3.15v.05c-.11,0-.31.16-.68.31-1.15-5.77-8.13-6.4-10.23-1.42-1,2.36-.26,5.25,3.15,6.25-1.15,3.73-5.46,12.44-9.76,12.44-2.05,0-1.63-5.46.58-11.97.52-1.63,1.21-3.31,1.99-4.99,1.26-2.89,2.36-2.57,1.63-3.31-2.68-2.78-7.14-.89-7.71-.1-.32-.42-2.15-1.31-2.36-1.36-7.35-1.89-14.33,3.99-17.42,11.28-.73,1.84-1.36,3.67-1.73,5.46-.26,1.3-.27,2.54-.1,3.7-.84-2.22-2.58-4.09-5.15-5.53-1.36-.79-3.78-1.36-3.46-.05,2.83,10.65-8.61,26.45-19.21,27.24-6.72.52-10.65-6.67-7.03-22.46,2.73-12.02,8.19-22.15,13.96-28.34,2.05-2.2,4.3-1.78,4.83-3.31.16-.84-1.99-1.63-3.15-1.68-1.15-.11-2.1.05-.05-.47,22.99-5.72,18.47,14.54,10.39,17.74-.37.1-1.47.26-1.36.84.1.89,5.35,2.68,9.18,1.94,17.95-3.25,7.82-37.79-31.91-24.93-15.27,4.93-28.18,15.53-27.71,26.19.42,9.34,11.13,11.55,9.66,9.76,0,0-3.83-5.25-.63-11.65,2.52-4.93,11.7-11.13,20.68-15.17-16.22,19-21.2,54.21-.05,57.41,12.02,1.84,31.33-12.02,31.59-24.04.02-.55-.02-1.08-.09-1.6,1.51,4.11,5.67,6.5,9.91,5.11,1.89-.63,3.94-2.1,5.93-3.83.79,2.26,2.26,3.73,4.36,4.04,7.92,1.36,19.73-9.45,21.46-18.89.84-.52,1.78-.89,2.68-1.31-1,2.1-2.68,7.19-3.1,9.29-1.47,7.19,1.84,12.54,7.77,10.6,2.03-.67,3.89-2.29,5.46-4.13.99,3.55,3.77,5.48,7.71,4.19,1.64-.54,3.18-1.7,4.53-3.09.85,1.97,2.36,3.25,4.39,3.46.16,0,1.73.21,1.31-.52l-.05-.11c.26.16.63.26,1,.37,2.57.68,5.09.37,7.4-.58,5.67-2.36,9.34-8.03,11.07-13.75.23-.12.47-.24.7-.36-.46,1.57-.8,2.93-1.01,3.98-1.21,5.88.79,10.55,4.83,10.97.16,0,1.73.21,1.31-.52l-.05-.11c.26.16.63.26,1,.37,2.57.68,5.09.37,7.4-.58,5.67-2.36,9.34-8.03,11.07-13.75.54-.27,1.08-.55,1.6-.84-.56,1.48-1.04,3.01-1.34,4.46-1.47,7.19,4.36,12.65,10.29,10.71,2.72-.89,5.95-3.65,8.65-6.38,1.04,4.86,5.64,7.9,10.29,6.38,1.84-.63,3.94-2.1,5.93-3.83,1.1,3.25,3.83,4.93,7.56,3.73,1.28-.42,2.49-1.22,3.6-2.21.87,1.22,2.32,2.14,4.53,2.57.21.05,1.73.21,1.31-.52-2.62-4.41,3.04-15.69,7.87-16.9-1,2.1-1.78,4.3-2.2,6.46-1.47,7.19,1.84,12.54,7.77,10.6,5.93-1.94,10.39-11.97,10.39-11.97l-1.26-1.94s-4.25,7.98-7.87,8.24Zm-166.63-14.7c-.58,1.31-1.21,2.1-2.15,2.57-3.04,1.47-.37,2.57,1.68,1.78-1.31,5.41-2.31,9.97-6.51,10.5-3.15.47-3.83-1.63-3.41-4.2.52-3.41,2.57-7.87,4.51-10.65,1.99-2.83,3.78-3.94,4.88-3.78,1.05.16,1.89,1.63,1,3.78Zm17.84-.84c-.94-.1-1.68-1-1.84-1.89-.21-.84-.21-1.73.42-2.15,1.57-1.05,2.2,1.68,1.42,4.04Zm40.05,18.05c-3.73-.37-.37-2.99-2.52-2.99-.21,0-.47.11-.73.26.79-3.94,2.36-7.82,3.94-11.44.79,2.47,3.31,4.99,7.03,5.35-1.05,2.36-4.51,9.08-7.71,8.82Zm9.39-13.8c-3.99-.05-4.46-3.78-2.41-4.93,2.94-1.47,3.36,2.36,2.41,4.93Zm15.85,13.8c-3.73-.37-.37-2.99-2.52-2.99-.21,0-.47.11-.73.26.79-3.94,2.36-7.82,3.94-11.44.79,2.47,3.31,4.99,7.03,5.35-1.05,2.36-4.51,9.08-7.71,8.82Zm9.39-13.8c-3.99-.05-4.46-3.78-2.41-4.93,2.94-1.47,3.36,2.36,2.41,4.93Zm24.67-3.46c-1.57,3.67-6.04,4.93-8.19,5.3,4.83-11.23,10.5-10.65,8.19-5.3Zm19.42.11c-.52,1.31-1.21,2.05-2.1,2.52-3.04,1.52-.42,2.62,1.68,1.84-1.31,5.41-2.31,9.97-6.51,10.5-3.2.42-3.88-1.63-3.46-4.2.58-3.41,2.62-7.87,4.57-10.65,1.94-2.83,3.78-3.94,4.88-3.78,1.05.16,1.89,1.63.94,3.78Z"/><path class="cls-4" d="m687.27,84.05c4.83-.47,4.88,3.31,5.72,1.63.68-1.47-.1-9.55-7.56-10.13-10.39-.79-20.21,6.93-28.18,17-13.49,16.95-19.63,35.27-19,40.78,0,0-2.15-2.73-2.52-11.44-.47-10.5,7.09-32.7,14.8-39.94.68-.68,1.21-1.26,1.57-1.78.94,0,1.78.05,2.52.26,2.68.79,3.73,2.26,4.25,2.2,1-.21-1.1-7.98-5.46-9.6-4.99-1.89-13.23.68-17.84,2.15-15.27,4.99-28.18,15.53-27.71,26.19.37,9.34,11.13,11.55,9.66,9.81,0,0-3.88-5.25-.63-11.7,2.62-5.14,12.6-11.76,21.99-15.74-9.66,12.28-14.28,39.99-5.09,52.22,3.15,4.25,6.56,6.09,7.29,6.19,1.52.31,1.89-.84,1.73-2.05-2.52-17.53,32.7-55.05,44.45-56.05Z"/><path class="cls-4" d="m763.9,92.45c1.99.21,4.15-.68,4.78-1.99.63-1.31-.47-2.57-2.52-2.78-1.99-.21-4.15.68-4.78,1.99-.63,1.31.47,2.57,2.52,2.78Z"/><path class="cls-4" d="m805.78,115.38c-3.25.31-1.73-8.34,5.04-17.84,2.83-3.99.52-4.62-2.31-4.2-5.98.84-8.61,4.41-12.49,8.82.89-1.68,1.84-3.31,2.68-4.83.89-1.63,1.05-2.41,1.05-2.99-.1-1.99-10.6-.52-8.87,1.15.52.52.37,1.1-.11,2.2-.33.73-.91,1.78-1.59,3.05-1,.52-2.04,1.03-3.03,1.46-.05-2.36-.73-4.51-2.2-6.19-1.68-1.84-4.04-2.89-6.56-2.62-5.04.05-13.75,6.19-15.95,17.06-.3,1.47-.28,2.87-.03,4.15-.66.45-1.32.74-1.96.79-3.25.31-1.73-8.34,5.04-17.84,1.68-2.31,2.78-3.62,1.42-3.83-6.09-1.15-9.34,2.57-12.49,8.61-1.31,2.57-2.41,5.41-2.99,8.13-.17.85-.28,1.68-.32,2.47-1.44,1.33-2.93,2.37-4.14,2.46-1.36.16-1.89-1.31-1.57-3.73.37-2.31,3.31-9.55,6.4-15.64,3.57-.94,6.82-1.89,7.72-2.1,2.05-.58,2.57-1.47,1.15-2.26-.52-.26-3.25-.16-6.61.16.63-1.15,1.26-2.15,1.84-2.94,1.63-2.26,2.73-3.57,1.42-3.83-4.3-.79-7.19.79-9.6,3.94-.68.89-1.52,2.15-2.41,3.67-3.46.42-6.14.73-6.14.73-.6.11-1,.38-1.24.73-2.6-1.13-5.78.29-6.27.95-.31-.42-2.15-1.31-2.41-1.36-7.3-1.94-14.28,3.99-17.37,11.28-.73,1.78-1.36,3.67-1.73,5.46-.01.05-.02.1-.03.15-2.69,2.25-5.89,4.64-7.69,4.99-3.15.63-3.88-1.63-3.46-4.2.63-3.88,3.41-9.66,5.98-12.44,1.42-1.52,2.68-2.05,3.52-1.99,3.73.37.37,2.99,2.52,2.99,1.89,0,4.36-5.04-.42-6.25-7.3-1.94-14.28,3.99-17.37,11.28-.73,1.78-1.36,3.67-1.73,5.46-.27,1.33-.29,2.6-.11,3.78-.87.71-1.76,1.17-2.62,1.15-2.05,0-1.68-5.41.52-11.91.58-1.63,1.26-3.31,1.99-5.04,1.26-2.89,2.41-2.52,1.68-3.31-2.68-2.73-7.14-.84-7.71-.05-.31-.42-2.15-1.31-2.41-1.36-7.29-1.94-14.28,3.99-17.37,11.28-.73,1.78-1.36,3.67-1.73,5.46-1.47,7.19,4.36,12.65,10.29,10.71,1.84-.63,3.94-2.1,5.93-3.83,1.1,3.25,3.83,4.93,7.56,3.73,1.84-.6,3.54-1.98,5-3.6,1.86,3.22,5.54,4.92,9.27,3.7,2.65-.87,5.78-3.51,8.44-6.16,1.13,4.74,5.65,7.67,10.25,6.16,1.84-.63,3.94-2.1,5.93-3.83,1.1,3.25,3.83,4.93,7.56,3.73,1.64-.54,3.17-1.69,4.52-3.09,1.26,2.72,3.83,4.13,7.29,3.09,2.03-.63,4.05-2.21,5.82-4.02,1.03,3.44,3.79,5.29,7.66,4.02,1.66-.54,3.21-1.72,4.58-3.14,1.63,2.45,4.37,3.88,7.28,3.56v.05c6.56-.26,13.33-7.5,15.43-14.75.33-.17.66-.34.98-.53-2.77,6.3-4.44,13.64,3.32,15.17.21.05,1.73.21,1.31-.52-2.62-4.41,3.04-15.69,7.87-16.9-1,2.1-1.78,4.3-2.2,6.46-1.47,7.19,1.84,12.54,7.77,10.6,5.93-1.94,10.39-11.97,10.39-11.97l-1.26-1.94s-4.25,7.98-7.87,8.24Zm-125.22-14.64c-.52,1.31-1.21,2.05-2.1,2.52-3.04,1.52-.42,2.62,1.68,1.84-1.31,5.41-2.31,9.97-6.51,10.5-3.2.42-3.88-1.63-3.46-4.2.58-3.41,2.62-7.87,4.57-10.65,1.94-2.83,3.78-3.94,4.88-3.78,1.05.16,1.89,1.63.94,3.78Zm46.45,0c-.52,1.31-1.21,2.05-2.1,2.52-3.04,1.52-.42,2.62,1.68,1.84-1.31,5.41-2.31,9.97-6.51,10.5-3.2.42-3.88-1.63-3.46-4.2.58-3.41,2.62-7.87,4.57-10.65,1.94-2.83,3.78-3.94,4.88-3.78,1.05.16,1.89,1.63.94,3.78Zm7.66,2.73c.58-1.63,1.26-3.31,1.99-5.04.21-.49.42-.88.62-1.2.51.74,1.22,1.29,1.95,1.31.37.05,1.15-.05,2.2-.26-2.42,5.25-4.58,11.43-4.66,15.94-.87.71-1.77,1.18-2.64,1.17-2.05,0-1.68-5.41.52-11.91Zm37.74,12.12c-3.15.63-3.88-1.63-3.46-4.2.37-2.2,1.42-5.09,2.73-7.61,1.31,3.25,4.46,5.41,8.13,4.99h.05c-1.52,2.99-4.04,5.67-7.45,6.82Zm9.08-12.07c-3.25-.16-5.09-4.46-3.78-6.04,1.36-1.68,3.15.63,3.57,1.99.31,1.15.42,2.57.21,4.04Z"/><path class="cls-4" d="m439.47,192.85c-2.27-1.31-6.28-2.27-5.76-.09,4.71,17.71-14.31,43.96-31.93,45.27-11.16.87-17.71-11.08-11.69-37.33,4.54-19.97,13.61-36.81,23.2-47.1,3.4-3.66,7.15-2.97,8.02-5.5.26-1.4-3.31-2.7-5.23-2.79-1.92-.17-3.49.09-.09-.78,38.21-9.51,30.7,24.16,17.27,29.48-.61.17-2.44.44-2.27,1.4.17,1.48,8.9,4.45,15.27,3.23,29.83-5.41,13-62.8-53.03-41.43-25.38,8.2-46.84,25.82-46.06,43.53.7,15.53,18.49,19.19,16.05,16.22,0,0-6.37-8.72-1.05-19.36,4.19-8.2,19.45-18.49,34.37-25.21-26.95,31.58-35.24,90.1-.09,95.43,19.98,3.05,52.07-19.97,52.51-39.95.17-6.28-3.14-11.43-9.51-15Z"/><path class="cls-4" d="m805.57,190.49s-7.07,13.26-13.08,13.69c-5.41.52-2.88-13.87,8.37-29.66,4.71-6.63.87-7.68-3.84-6.98-9.94,1.4-14.31,7.33-20.76,14.65,1.48-2.79,3.05-5.5,4.45-8.02,1.48-2.7,1.74-4.01,1.74-4.97-.17-3.31-17.62-.87-14.74,1.92.87.87.61,1.83-.17,3.66-.87,1.89-2.72,5.12-4.66,8.94-1.34-.25-2.6-.78-3.71-1.7,2.7-4.1,7.41-11.86,6.37-16.83-1.31-6.98-17.01-6.89-19.63,4.8-.87,3.58-.96,8.11,1.92,13.17-5.76,9.6-14.13,19.71-20.24,21.02-2.27.52-.61-13.87,10.73-29.66,2.7-3.84,4.54-6.02,2.35-6.37-10.21-1.92-15.61,4.27-20.85,14.31-1.92,3.75-3.58,7.85-4.54,11.86-2.62,3.93-6.98,9.6-10.82,9.86-5.41.52-2.88-13.87,8.37-29.66,2.79-3.84,4.62-6.02,2.35-6.37-9.65-1.83-15.02,3.72-20.03,12.95-.86.42-1.72.82-2.56,1.18-.09-3.93-1.22-7.5-3.66-10.29-2.79-3.05-6.72-4.8-10.9-4.36-8.37.09-22.85,10.29-26.52,28.35-.49,2.43-.47,4.74-.06,6.85-1.2.84-2.42,1.36-3.6,1.35-6.54,0,1.74-32.71,17.44-48.06,3.31-3.31,4.54-5.84,2.36-6.37-10.73-2.44-19.54,8.37-25.64,20.67-.87-1.05-2.18-1.83-4.01-2.27-12.12-3.23-23.73,6.63-28.87,18.75-1.22,2.97-2.27,6.11-2.88,9.07-.19.91-.29,1.8-.34,2.67-2.81,2.85-5.89,5.32-8.29,5.53-2.27.17-3.14-2.27-2.62-6.19.52-3.84,5.41-15.96,10.55-26.08,6.02-1.57,11.43-3.05,12.82-3.49,3.4-.96,4.36-2.44,1.92-3.75-.87-.44-5.41-.17-10.99.26,1.13-1.83,2.18-3.49,3.14-4.88,2.7-3.75,4.54-5.93,2.35-6.37-7.15-1.31-11.95,1.4-15.96,6.54-1.13,1.48-2.53,3.58-4.01,6.19-5.76.61-10.29,1.22-10.29,1.22-4.97.96-1.57,8.37,1.92,8.55.61,0,1.92-.17,3.66-.52l-.17.35c-4.19,7.15-16.66,27.74-21.63,28.17-5.32.44-2.88-13.96,8.46-29.74,4.62-6.54.78-7.68-3.93-6.98-9.94,1.4-14.31,7.41-20.76,14.65,1.48-2.7,3.05-5.41,4.45-8.02,1.48-2.7,1.74-4.01,1.74-4.97-.09-3.31-17.62-.78-14.65,2.01.87.78.61,1.74-.26,3.58-2.2,4.86-10.78,18.32-11.01,28.27-1.04.69-2.1,1.14-3.12,1.21-5.32.52-2.88-13.87,8.46-29.66,2.7-3.84,4.54-6.02,2.35-6.37-10.21-1.92-15.61,4.27-20.76,14.31-2.27,4.27-4.1,8.98-5.06,13.52-.44,2.44-6.45,8.02-9.33,8.2-5.41.52-2.88-13.87,8.37-29.66,2.79-3.84,4.62-6.02,2.36-6.37-8.93-1.69-14.19,2.94-18.9,10.94-2.1,1.12-4.35,2.25-6.48,3.19-.09-3.93-1.22-7.5-3.66-10.29-2.79-3.05-6.72-4.8-10.9-4.36-8.37.09-22.85,10.29-26.52,28.35-2.18,10.82,5.58,19.28,14.31,18.32v.09c10.9-.44,22.16-12.47,25.64-24.51,1.07-.55,2.15-1.15,3.21-1.78-1.03,2.61-1.88,5.27-2.43,7.88-2.44,11.95,3.05,20.85,12.91,17.62,4.27-1.4,8.11-5.41,11.08-9.33.96,7.33,5.93,11.78,13.26,9.33,2.39-.78,4.63-2.36,6.66-4.29,1.39,2.31,3.89,4.03,7.91,4.81.35.09,2.97.35,2.18-.87-4.36-7.33,5.06-26.08,13.08-28.09-1.57,3.49-2.88,7.24-3.66,10.73-2.36,11.95,3.14,20.85,12.91,17.62,9.16-2.97,16.31-17.53,17.36-19.71-1.4,5.84-1.74,11.08-.17,14.57,2.01,4.62,6.28,6.98,12.12,5.15,4.01-1.24,7.97-4.72,11.26-8.4,2.45,6.93,9.46,10.99,16.57,8.66,3.05-1.05,6.54-3.49,9.86-6.37,1.83,5.41,6.37,8.2,12.56,6.19,2.85-.93,5.49-2.99,7.81-5.44,2.69,4.21,7.32,6.68,12.25,6.14v.09c9.59-.38,19.44-9.74,24.06-20.18-.15.59-.29,1.18-.42,1.77-2.44,11.95,3.05,20.85,12.91,17.62,4.71-1.57,8.9-6.19,11.95-10.64.61,7.94,5.5,12.56,13.43,10.64,7.85-2.01,18.23-13.43,26.26-24.16,1.58,1.2,3.41,1.78,5.37,1.88-3.95,9.88-5.45,20.53,6.5,22.89.35.09,2.88.35,2.18-.87-4.36-7.33,5.06-26.08,13.08-28.09-1.66,3.49-2.97,7.15-3.66,10.73-2.44,11.95,3.05,20.85,12.91,17.62,9.86-3.23,17.27-19.89,17.27-19.89l-2.09-3.23Zm-338.18,14.04c-5.23,1.05-6.45-2.7-5.76-6.98.61-3.66,2.36-8.46,4.54-12.65,2.18,5.41,7.41,8.98,13.52,8.29h.09c-2.53,4.97-6.72,9.42-12.39,11.34Zm15.09-20.06c-5.41-.26-8.46-7.41-6.28-10.03,2.27-2.79,5.23,1.05,5.93,3.31.52,1.92.7,4.27.35,6.72Zm153.52-4.62c-.87,2.18-2.01,3.4-3.49,4.19-5.06,2.53-.7,4.36,2.79,3.05-2.18,9.25-3.05,16.31-10.82,17.44-5.23.79-6.45-2.7-5.76-6.98.96-5.67,4.36-13.08,7.59-17.71,3.23-4.71,6.28-6.54,8.11-6.28,1.74.26,3.14,2.7,1.57,6.28Zm33.76,24.68c-5.23,1.05-6.45-2.7-5.76-6.98.61-3.66,2.36-8.46,4.54-12.65,2.18,5.41,7.41,8.98,13.52,8.29h.09c-2.53,4.97-6.72,9.42-12.39,11.34Zm15.09-20.06c-5.41-.26-8.46-7.41-6.28-10.03,2.27-2.79,5.23,1.05,5.93,3.31.52,1.92.7,4.27.35,6.72Zm67.6-9.94c-4.1-6.19,1.66-11.34,2.36-7.85.35,2.01-.79,4.71-2.36,7.85Z"/></g></svg>