<?xml version="1.0" encoding="UTF-8"?><svg id="Layer_2" xmlns="http://www.w3.org/2000/svg" xmlns:xlink="http://www.w3.org/1999/xlink" viewBox="0 0 2385.68 349.46"><defs><style>.cls-1{fill:url(#linear-gradient);}.cls-1,.cls-2,.cls-3,.cls-4{stroke-width:0px;}.cls-5{clip-path:url(#clippath-1);}.cls-2{clip-rule:evenodd;fill:none;}.cls-3{fill:#fff;}.cls-4{fill:url(#linear-gradient-2);}.cls-6{clip-path:url(#clippath);}</style><clipPath id="clippath"><path class="cls-2" d="m174.63,246.83c-.8-24.08-.07-55.62,9.33-88.96-7.79-3.85-17.52-6.06-17.52-6.06,3.64,3.56,5.44,5.31,5.44,5.31-8.59-4.36-14.46-5.12-16.72-5.55,2.72,1.62,6.22,5.49,6.22,5.49-7.92-2.59-12.95-3.37-16.35-3.66,16.89,2.24,30.41,16.51,31.62,36.58-4.44-8.05-12.82-16.29-12.82-16.29,1.2,4.9,1.83,7.38,1.83,7.38-5.01-8.24-9.59-11.99-11.29-13.55,1.46,2.8,2.37,7.95,2.37,7.95-7.67-9.13-12.29-11.96-14.89-13.77,1.29,1.75,2.96,4.44,3.5,6.52-3.04-3.02-9.64-7.62-15.79-10.29,22.28,29.73,38.14,61.95,45.06,88.91m-47.93-95.86c4.36-20.12,25.12-31.03,46.27-23.11-8.36.73-18.35,4.66-18.35,4.66,4.56.81,6.84,1.21,6.84,1.21-8.73,1.1-13.55,3.55-15.49,4.39,2.88-.19,7.52.94,7.52.94-7.52,2.18-11.75,4.23-14.43,5.77,14.95-7.17,33.34-3.02,45.22,11.88,6.17-21.36,15.89-43.41,31.11-64.69-5.98,2.91-12.23,7.65-15.13,10.72.49-2.1,2.04-4.87,3.29-6.65-2.56,1.89-7.09,4.9-14.43,14.33,0,0,.72-5.2,2.1-8.05-1.64,1.62-6.12,5.52-10.83,13.98,0,0,.51-2.51,1.56-7.46,0,0-8.1,8.57-12.25,16.81.37-16.65,9.36-29.66,21.95-35.28,1.77-1.16,3.82-2.21,5.46-2.94-4.12.32-11.15.56-25.72,5.92,0,0,4.37-5.22,7.81-7.43-2.91.67-10.53,1.94-21.49,8.02,0,0,2.26-2.4,6.82-7.17,0,0-14.79,3.91-25.02,10.15,15.43-23.59,42.66-30.38,63.99-18.72.3.05.59.11.89.16-3.29-1.89-8.7-5.3-22.46-8.75,0,0,5.98-1.67,9.73-1.59-2.53-1-8.94-3.94-20.31-4.99,0,0,2.93-.62,8.8-1.88,0,0-13.17-4.66-24.08-5.17,27.52-11.47,55.46,2.29,61.57,28.98-.83-6.82-3.33-14.46-5.36-18.32,1.89,1.19,4.07,3.66,5.42,5.47-1-3.15-2.42-8.59-9.16-18.99,0,0,4.83,2.48,7.17,4.79-1.06-2.18-3.37-7.87-10.05-15.35,0,0,2.26,1.37,6.79,4.07,0,0-5.66-10.85-12.34-17.7,23.36,8.67,33.24,32.27,23.68,52.44,15.92-14.68,40.73-12.82,56.29,5.95-8.67-4.04-20.76-5.79-20.76-5.79,4.04,3.37,6.06,5.07,6.06,5.07-9.23-3.85-15.41-4.15-17.78-4.42,2.94,1.46,6.87,5.2,6.87,5.2-12.04-2.94-17.67-2.48-20.95-2.37.4.14.86.27,1.32.43,21.46-.51,40.48,15.43,43.98,40.24-6.01-9.1-16.76-18.04-16.76-18.04,1.94,5.71,2.91,8.54,2.91,8.54-6.73-9.27-12.52-13.23-14.68-14.92,1.99,3.18,3.58,9.19,3.58,9.19-9.96-10.07-15.68-12.98-18.95-14.84.19.21.37.43.59.67,20.9,12.39,28.98,39.27,16.56,64.59.16-11.98-4.06-26.72-4.06-26.72-1.76,6.35-2.64,9.53-2.64,9.53-.38-12.55-3.18-19.74-4.1-22.57-.13,4.09-2.39,10.5-2.39,10.5-2.83-15.24-6.23-21.44-8.06-25.15.37,2.83.51,6.95-.19,9.64-.37-1.32-.94-2.88-1.64-4.6,2.53,14.33-4.04,29.7-18.88,39,4.98-7.81,8.22-19.18,8.22-19.18-3.74,3.45-5.63,5.14-5.63,5.14,4.87-8.37,5.95-14.22,6.52-16.48-1.78,2.64-5.87,5.95-5.87,5.95,4.36-11.2,4.66-16.64,4.99-19.82-.92,1.99-2.51,4.77-4.07,6.25.76-2.64,1.4-6.9,1.59-11.39-29.04,50.8-30.87,121.07-25.54,164.62h-27.25c-.24-2.69-.78-8.67-1.03-10.45-3.66-27.79-17.69-64.91-36.41-94.86-.4,6.71.78,14.71,2.1,18.8-1.59-1.42-3.26-4.09-4.25-6.06.43,3.15.91,8.54,5.65,19.5,0,0-4.2-3.12-6.03-5.68.62,2.21,1.91,8,7.06,16.13,0,0-1.94-1.64-5.79-4.93,0,0,3.63,11.18,8.83,18.77-18.1-10.45-24.65-30.03-17.83-46.51,0-.13.03-.27.03-.37-1.29,2.88-3.72,7.73-5.47,19.53,0,0-1.9-4.88-2.15-8-.63,2.21-2.56,7.81-2.51,17.43,0,0-.75-2.42-2.32-7.25,0,0-2.8,11.42-2.34,20.61-10.23-19.07-4.79-39.92,10.91-50.02.16-.19.32-.38.46-.54-2.48,1.54-6.79,3.94-14.17,11.9,0,0,1.06-4.63,2.51-7.14-1.62,1.38-5.96,4.58-10.83,11.88,0,0,.64-2.21,1.97-6.63,0,0-8,7.14-12.37,14.3,2.24-21.17,19.29-34.55,37.95-31.75-2.99-.59-5.84-.86-7.73-.81,1.3-.81,3.45-1.4,4.96-1.7-2.21-.32-5.98-1.08-14.36-.05,0,0,2.97-2.21,5.07-2.96-1.64,0-5.82-.29-12.39,1.59,0,0,1.5-.99,4.49-2.96,0,0-8.29.24-14.49,2.29,11.72-11.18,28.12-10.8,37.85-.38-4.93-12.58.91-27.01,15.08-33.45-4.17,4.98-7.52,12.63-7.52,12.63,2.94-2.08,4.42-3.1,4.42-3.1-4.17,5.39-5.49,9.37-6.09,10.91,1.48-1.67,4.66-3.61,4.66-3.61-4.09,7.4-4.79,11.15-5.3,13.36.81-1.29,2.18-3.1,3.4-3.99-.87,1.99-1.81,5.39-2.34,8.92Z"/></clipPath><linearGradient id="linear-gradient" x1="61.26" y1="413.77" x2="214.06" y2="69.58" gradientUnits="userSpaceOnUse"><stop offset="0" stop-color="#ff2254"/><stop offset=".25" stop-color="#ff3f47"/><stop offset=".46" stop-color="#f25f41"/><stop offset=".68" stop-color="#ff7d2c"/><stop offset="1" stop-color="#f2c822"/></linearGradient><clipPath id="clippath-1"><path class="cls-2" d="m235.5,261.51c-.4-2.29-24.16-3.15-71.27-2.53-1,.16-22.16,1.08-33.02,3.02-18.15,3.23,3.86,4.79,8.92,5.04,8.92.46,16.51,1.75-5.66,2.69-37.84,1.05-32.4,8.75-.06,7.81,6.28-.19,22.68-2.61,10.13,4.12-8.24,4.44-21.06,8.67,24.11,7.35,21.68-1.19,26.58.94,16.4,2.64-13.73,2.69-15.41,3.45-6.73,6.01,20.76,1.56,39.16,1.27,55.16-.89,4.06-3.77.26-5.92-11.37-6.44-21.41-.97-4.69-5.28,9.35-5.57,21.18-1.43,30.41-9.5-.94-11.98-64.85-5.09,5.44-8.46,4.99-11.26"/></clipPath><linearGradient id="linear-gradient-2" x1="153.34" y1="307.09" x2="216.22" y2="238.42" gradientUnits="userSpaceOnUse"><stop offset="0" stop-color="#036fdb"/><stop offset="1" stop-color="#1accc0"/></linearGradient></defs><g id="Layer_1-2"><g id="logo"><g class="cls-6"><rect class="cls-1" x="79.04" y="28.99" width="201.01" height="236.64"/></g><g class="cls-5"><rect class="cls-4" x="96.63" y="258.36" width="165.24" height="40.86"/></g><path class="cls-3" d="m31.32,275.25c-10.05-14.65-17.99-30.89-23.35-48.27-5.2-16.81-7.97-34.64-7.97-53.09,0-15.62,1.99-30.79,5.76-45.27,3.87-14.92,9.62-29.09,16.96-42.23l5.04,2.8c-7.11,12.71-12.69,26.45-16.43,40.88-3.63,13.98-5.55,28.66-5.55,43.82,0,17.91,2.69,35.15,7.7,51.39,5.2,16.78,12.88,32.51,22.59,46.7l-4.76,3.26ZM333.57,81.3c8.3,13.73,14.76,28.65,19.18,44.49,4.23,15.33,6.52,31.45,6.52,48.1,0,19.36-3.09,38.06-8.78,55.56-5.87,18.1-14.57,34.96-25.56,50.04l-4.66-3.39c10.62-14.57,19.02-30.89,24.72-48.45,5.5-16.91,8.46-34.99,8.46-53.76,0-16.16-2.18-31.75-6.27-46.57-4.23-15.27-10.53-29.74-18.56-43.04l4.96-2.99Z"/><path class="cls-3" d="m24.25,76.06c-4.71-4.53-4.07-11.67,1.82-17.11,3.49-3.22,7.08-5.07,9.76-5.18.09,2.59.15,3.88.3,6.44-1.75.3-3.85,1.4-5.35,2.77-2.18,2-2.4,4.68-.56,6.59,1.94,2.03,4.43,1.95,6.63-.07,1.82-1.67,2.91-4.3,3.14-7.35,2.73.52,4.09.8,6.77,1.41-.32,4.33-1.96,7.82-5.74,11.3-5.98,5.51-11.66,6.11-16.78,1.18Z"/><path class="cls-3" d="m41.18,50.09c3.53-2.67,5.32-3.95,8.95-6.41,6.16,4.2,9.17,6.38,15.03,10.88-2.89,2.33-4.31,3.53-7.11,6-.99-.95-1.49-1.42-2.49-2.37-1.12.83-1.68,1.25-2.79,2.11.68,1.24,1.02,1.85,1.7,3.08-3.07,2.07-4.6,3.14-7.6,5.37-2.49-7.35-3.63-11.08-5.68-18.65Zm12.66,4.73c-2.08-1.61-3.13-2.4-5.24-3.97-.22.16-.32.24-.54.4,1.04,2.38,1.57,3.56,2.65,5.92,1.25-.96,1.87-1.43,3.13-2.36Z"/><path class="cls-3" d="m75.3,41.92c2.68.32,4,.5,6.63.92-1.44,2.88-2.12,4.33-3.42,7.23-3.66-1.26-5.53-1.85-9.31-2.94-.07.06-.1.08-.16.14,1.1,1.69,1.64,2.54,2.74,4.23-2.83,1.61-4.23,2.44-7.01,4.17-3.93-5.63-5.9-8.44-9.84-14.05,2.17-2.39,5.29-5.25,8.47-7.14,5.34-3.18,10.31-2.77,12.2.69,1.18,2.17,1.02,4.72-.34,6.65.02.04.04.06.06.11Zm-7.6,1.48c1.45-.89,1.94-2.03,1.19-3.29-.75-1.26-1.96-1.5-3.41-.62-.97.6-1.44,1.18-1.67,1.72.87,1.27,1.3,1.91,2.16,3.18.74-.39,1.01-.56,1.72-1Z"/><path class="cls-3" d="m76.12,33.48c2.9-1.77,4.37-2.62,7.34-4.27,2.66,4.88,3.98,7.33,6.61,12.23-3.42,1.38-5.11,2.12-8.49,3.67-2.2-4.64-3.29-6.96-5.46-11.62Zm-2.97-5.61c2.87-1.79,4.32-2.66,7.25-4.33,1.07,1.73,1.6,2.6,2.66,4.34-3.23,1.65-4.83,2.52-8,4.31-.76-1.73-1.14-2.59-1.9-4.32Z"/><path class="cls-3" d="m94.71,18.7c5.13-1.96,7.96-1.54,9.23,1.92.79,2.15-.18,3.76-1.97,5.04.02.05.03.07.04.11,2.87-.26,4.58.14,5.51,2.7,1.17,3.21-.92,5.58-6.52,7.89-2.7,1.12-8.46,3.2-10.91,3.97-2.71-6.43-4.06-9.65-6.72-16.11,1.73-.96,6.58-3.72,11.33-5.54Zm1.05,14.63c.57.09,1.18.09,2.23-.36,1.57-.66,2.15-1.72,1.63-2.99-.51-1.24-1.69-1.53-3.42-.8-.78.33-.95.4-1.74.81.52,1.33.77,2,1.29,3.33Zm-.86-6.31c1.39-.59,1.91-1.49,1.43-2.65-.45-1.1-1.25-1.7-2.73-1.08-.67.28-1.19.74-1.62,1.13.57,1.24.86,1.86,1.43,3.11.47-.17.87-.24,1.5-.51Z"/><path class="cls-3" d="m115.07,11.52c5.26-1.44,8.03-.75,8.96,2.82.58,2.21-.53,3.73-2.43,4.82.01.05.02.07.03.12,2.87.03,4.53.59,5.2,3.22.85,3.31-1.45,5.47-7.2,7.21-2.78.84-8.67,2.34-11.16,2.86-2.08-6.66-3.1-10-5.13-16.68,1.8-.78,6.86-3.05,11.73-4.38Zm-.35,14.65c.56.14,1.16.2,2.24-.13,1.62-.5,2.29-1.49,1.9-2.81-.38-1.29-1.53-1.69-3.31-1.13-.81.25-.97.3-1.79.63.38,1.38.58,2.06.96,3.44Zm-.26-6.36c1.43-.45,2.03-1.29,1.66-2.49-.34-1.14-1.08-1.82-2.6-1.34-.69.22-1.25.62-1.71.96.45,1.29.67,1.94,1.12,3.23.48-.12.89-.16,1.53-.36Z"/><path class="cls-3" d="m123,9.82c6.73-1.91,10.13-2.73,16.98-4.1.51,2.2.76,3.3,1.27,5.51-3.51.45-5.26.72-8.76,1.32.19.81.29,1.21.48,2.02,2.45-.7,3.68-1.03,6.16-1.65.2,1.52.3,2.27.5,3.79-2.34.48-3.51.73-5.84,1.28.19.8.28,1.19.47,1.99,3.54-1.12,5.32-1.64,8.92-2.6.15,2.69.23,4.03.41,6.71-6.33.96-9.48,1.57-15.74,3.03-1.93-6.92-2.9-10.37-4.85-17.28Z"/><path class="cls-3" d="m146.57,4.72c4.19-.51,6.29-.72,10.5-1.04,3.16,6.72,4.65,10.1,7.43,16.92-3.54.58-5.3.91-8.8,1.64-.38-1.32-.57-1.98-.96-3.3-1.33.16-1.99.24-3.32.42-.02,1.41-.03,2.11-.04,3.52-3.53.23-5.3.39-8.83.78,1.37-7.58,2.17-11.37,4.03-18.93Zm8.32,10.46c-.98-2.43-1.48-3.64-2.5-6.07-.26.03-.38.05-.64.08-.25,2.58-.37,3.87-.59,6.44,1.49-.2,2.23-.29,3.72-.46Z"/><path class="cls-3" d="m163.1,3.57c3.14-.48,4.72-.69,7.88-1.06,1.71,3.3,2.54,4.95,4.14,8.28.22-.09.34-.13.56-.22-.56-3.18-.84-4.77-1.44-7.94,3.63-.04,5.44-.02,9.06.08-.33,7.07-.48,10.61-.78,17.69-2.92.21-4.38.34-7.29.64-2.16-3.73-3.29-5.59-5.64-9.26-.19.05-.29.07-.49.11,1.02,3.73,1.5,5.6,2.44,9.34-3.61-.1-5.42-.11-9.05-.05.17-7.04.29-10.57.59-17.61Z"/><path class="cls-3" d="m202.37.45c.4,6.46.57,9.69.82,16.15.25.03.37.04.62.07,1.45-6.34,2.2-9.51,3.76-15.83,4.02.84,6.02,1.31,9.99,2.33-3.98,7.77-5.85,11.7-9.36,19.62-4.4-.51-6.61-.7-11.02-.97-1.71-8.74-2.7-13.11-4.93-21.81,4.05.09,6.08.18,10.13.45Z"/><path class="cls-3" d="m219.65,6.08c4.14.87,6.21,1.35,10.31,2.41.83,7.38,1.15,11.07,1.58,18.42-3.56-.6-5.34-.86-8.91-1.3.07-1.37.1-2.06.16-3.43-1.31-.28-1.97-.42-3.29-.68-.47,1.32-.71,1.99-1.18,3.31-3.43-.92-5.16-1.34-8.63-2.11,3.75-6.73,5.74-10.06,9.95-16.62Zm4.51,12.58c-.14-2.62-.22-3.93-.41-6.55-.25-.05-.38-.08-.63-.13-1.08,2.36-1.61,3.54-2.65,5.91,1.48.29,2.21.45,3.69.77Z"/><path class="cls-3" d="m230.65,17.86c1.39-5.57,6.83-8.3,13.24-6.35,4,1.21,6.57,3.09,8.27,5.86-2.06,1.31-3.08,1.97-5.08,3.32-.88-1.55-2.41-2.81-4.1-3.33-2.41-.74-4.13.4-4.65,2.18-.55,1.91.28,3.69,2.78,4.46,1.63.5,3.56.19,5.75-.75.72,2.43,1.06,3.65,1.71,6.08-3.4,1.51-6.48,1.73-10.04.64-6.64-2.02-9.39-6.04-7.87-12.11Z"/><path class="cls-3" d="m257.77,16.72c3.97,1.6,5.93,2.45,9.83,4.25-.46,7.43-.79,11.12-1.64,18.45-3.44-1.25-5.17-1.83-8.64-2.92.31-1.34.46-2.01.76-3.35-1.26-.52-1.89-.77-3.15-1.27-.7,1.22-1.05,1.83-1.75,3.05-3.25-1.53-4.89-2.26-8.2-3.64,4.91-5.95,7.47-8.87,12.8-14.57Zm2.28,13.22c.32-2.6.47-3.91.74-6.52-.24-.1-.36-.15-.61-.25-1.48,2.13-2.22,3.2-3.67,5.34,1.42.56,2.12.85,3.53,1.43Z"/><path class="cls-3" d="m267.23,41.13c2.27-4.34,3.41-6.51,5.69-10.85-2.46-1.15-3.7-1.7-6.19-2.77,1.32-2.33,1.98-3.49,3.32-5.81,7.57,3.7,11.29,5.74,18.53,10.18-.89,2.09-1.34,3.13-2.25,5.22-2.43-1.35-3.65-2-6.11-3.26-2.02,4.25-3.04,6.37-5.08,10.61-3.15-1.4-4.74-2.07-7.92-3.33Z"/><path class="cls-3" d="m287.13,36.45c3.06,1.55,4.58,2.35,7.59,4.03-2.74,4.84-4.11,7.26-6.88,12.08-3.03-2.21-4.57-3.28-7.69-5.34,2.78-4.32,4.17-6.47,6.98-10.77Zm3.19-5.49c3.06,1.5,4.58,2.29,7.6,3.92-.91,1.82-1.36,2.73-2.28,4.55-3.17-1.91-4.76-2.83-7.98-4.59,1.06-1.56,1.59-2.34,2.66-3.89Z"/><path class="cls-3" d="m307.27,42.8c5.54,3.91,7.11,9.95,3.62,14.39-3.49,4.44-9.34,4.51-14.41.93-5.11-3.61-6.86-9.05-3.85-13.83,3.01-4.78,9.07-5.42,14.64-1.49Zm-7.98,10.58c1.95,1.37,4.23,1.19,5.49-.53,1.28-1.75.68-3.98-1.33-5.39-2.07-1.46-4.33-1.24-5.54.56-1.19,1.77-.62,3.95,1.38,5.36Z"/><path class="cls-3" d="m316.62,50.83c2.78,1.88,4.16,2.85,6.9,4.85-.89,3.66-1.36,5.47-2.36,9.07.24.1.36.14.59.24,1.72-2.74,2.57-4.11,4.25-6.88,2.88,2.59,4.3,3.93,7.09,6.66-5.06,4.96-7.58,7.44-12.61,12.43-2.45-1.99-3.69-2.96-6.19-4.83.83-4.31,1.2-6.48,1.84-10.87-.18-.11-.28-.16-.46-.27-1.73,3.47-2.61,5.19-4.41,8.62-2.77-2.67-4.18-3.97-7.05-6.5,4.91-5.06,7.39-7.57,12.4-12.54Z"/><path class="cls-3" d="m52.91,274.39c5.91,5.38,8.97,7.87,15.27,12.43-1.61,2.25-2.41,3.38-4.02,5.64-3.19-2.61-4.76-3.96-7.83-6.77-1.05,1.12-1.57,1.68-2.63,2.8,2.21,1.84,3.33,2.73,5.58,4.47-1.53,1.64-2.29,2.45-3.82,4.09-2.11-1.89-3.16-2.86-5.21-4.83-2.57,2.76-3.85,4.13-6.43,6.88-3.41-3.5-5.08-5.31-8.3-9.04,6.99-6.22,10.47-9.35,17.37-15.66Z"/><path class="cls-3" d="m67.48,287.26c6.45,4.69,9.77,6.82,16.55,10.65-1.35,2.42-2.03,3.63-3.37,6.05-3.7-2.38-5.52-3.63-9.1-6.26-.66.86-.99,1.29-1.66,2.14,2.95,1.87,4.44,2.76,7.45,4.47-.98,1.86-1.46,2.8-2.43,4.67-3.23-2-4.83-3.05-7.98-5.23-.73.94-1.09,1.42-1.82,2.36,4.1,2.46,6.17,3.61,10.36,5.77-1.46,2.94-2.19,4.42-3.63,7.38-8.08-5.16-12-8-19.52-14.2,6.09-7.09,9.12-10.65,15.15-17.79Z"/><path class="cls-3" d="m84.35,299.24c2.79,1.22,9.31,4.31,12.37,5.86,5.91,3.01,8.58,6.24,6.72,10.51-1.23,2.83-3.62,4.01-6.93,3.48-.02.05-.03.07-.06.12,2.49,2.26,3.43,4.67,2.39,7.05-1.65,3.8-6.35,4.1-12.89.78-4.65-2.36-10.82-6.18-12.64-7.64,4.38-8.09,6.59-12.13,11.05-20.17Zm5.24,15.21c2.23,1.17,3.94,1.01,4.72-.55.78-1.56.05-3.02-2.02-4.1-1.4-.73-2.41-.93-3.19-.92-.83,1.65-1.24,2.48-2.07,4.14,1.04.64,1.47.87,2.55,1.44Zm-4.9,5.35c.3.51,1.05,1.18,1.95,1.65,1.31.68,2.53.33,3.19-.98.62-1.22.01-2.32-1.74-3.24-.73-.38-1.33-.58-1.93-.87-.59,1.38-.88,2.07-1.47,3.45Z"/><path class="cls-3" d="m104.92,310.77c3.25.49,8.87,1.89,12.33,3.16,6.68,2.44,10.14,6.35,8.85,10.9-.94,3.33-3.94,5.2-7.51,5.01-.02.05-.02.08-.04.13,2.24,2.74,3.41,4.09,5.83,6.75-3.71,1.75-5.62,2.59-9.51,4.15-3-5.18-4.38-7.79-6.89-13.06-.1-.02-.15-.03-.24-.06-.44,3.32-.64,4.99-1.02,8.32-3.98-1.62-5.95-2.48-9.85-4.32,3.18-8.42,4.79-12.62,8.06-21Zm7.73,13.81c2.34.84,4,.45,4.56-1.21.56-1.65-.35-3-2.51-3.77-1.47-.53-2.49-.58-3.24-.47-.6,1.75-.9,2.63-1.49,4.38,1.1.49,1.56.66,2.69,1.07Z"/><path class="cls-3" d="m129.01,318.53c3.52.6,5.28.85,8.81,1.27-2.8,5.87-6.74,16.11-2.36,17.04,4.33.93,4.66-7.92,5.38-16.3,3.32.83,5,1.2,8.36,1.87,2.5,10.44-2.36,24.37-15.57,21.57-14.2-3.01-10.88-16.32-4.6-25.45Z"/><path class="cls-3" d="m155.67,322.93c4.86.7,7.3.96,12.2,1.31,2.18,9.32,3.45,13.97,6.32,23.21-4.65.34-6.98.44-11.67.5-.19-1.54-.28-2.3-.46-3.84-2.26-.16-3.39-.25-5.64-.47-.6,1.51-.91,2.26-1.53,3.77-4.59-.75-6.87-1.2-11.39-2.22,5.31-8.75,7.74-13.21,12.16-22.26Zm6.86,16.34c-.65-3.71-.96-5.57-1.53-9.28-.28-.02-.42-.03-.69-.06-1.5,3.54-2.27,5.31-3.89,8.82,2.44.25,3.66.35,6.11.52Z"/><path class="cls-3" d="m173.03,325.56c3.13-.81,8.77-1.7,12.41-1.87,7.03-.33,11.71,1.95,12.28,6.64.42,3.43-1.6,6.32-4.94,7.51,0,.05,0,.08.01.14,3.1,1.66,4.69,2.45,7.94,3.98-2.73,3.05-4.15,4.55-7.1,7.5-4.73-3.62-7-5.5-11.3-9.38-.1.02-.15.03-.24.04.88,3.23,1.33,4.85,2.27,8.07-4.25.05-6.37.02-10.6-.16-.34-8.99-.48-13.48-.73-22.47Zm12.31,9.73c2.46-.13,3.82-1.13,3.69-2.87-.13-1.74-1.47-2.63-3.74-2.51-1.54.08-2.49.43-3.13.83.13,1.85.19,2.77.33,4.61,1.19.02,1.67,0,2.86-.06Z"/><path class="cls-3" d="m204.04,321.75c1.79,3.77,2.72,5.65,4.63,9.38.28-.05.42-.08.7-.13.1-4.2.13-6.3.13-10.48,4.17-.45,6.26-.74,10.43-1.44-1.84,6.75-2.91,10.13-5.38,16.84.92,3.35,1.38,5.02,2.32,8.37-4.55.68-6.82.95-11.38,1.37-.3-3.06-.45-4.59-.75-7.64-4.67-5.66-6.86-8.56-10.93-14.47,4.11-.59,6.16-.95,10.23-1.79Z"/><path class="cls-3" d="m240.14,321.02c-.44-1.15-1.53-1.5-3-.97-1.99.72-3.17,1.68-5.77,3.77-1.4-2.34-2.08-3.52-3.44-5.88,2.63-2.16,5.15-3.67,7.94-4.7.46-.17.94-.33,1.43-.48,4.24-1.27,8.49-.58,10.43,1.89,2.66,3.39.97,9.16-4.86,14.1,4.13-1.43,6.18-2.21,10.24-3.89.75,2.92,1.11,4.38,1.82,7.32-7.76,3.12-11.71,4.47-19.68,6.73-1.22-2.73-1.83-4.1-3.02-6.84,5.14-4.25,8.67-8.98,7.9-11.03Z"/><path class="cls-3" d="m256.18,304.22c6.59-3.44,13.4-1.96,17.28,4.34,3.88,6.3,1.65,13.59-5.87,17.52-7.48,3.91-14.64,1.54-17.59-5.25-2.95-6.78-.38-13.19,6.18-16.61Zm7.47,14.3c2.4-1.25,3.11-3.77,1.75-6.23-1.36-2.46-3.78-3.22-6.06-2.03-2.25,1.17-2.99,3.59-1.75,6.11,1.24,2.52,3.7,3.38,6.06,2.15Z"/><path class="cls-3" d="m279.88,300.12c-.7-1.01-1.87-1.07-3.2-.17-1.8,1.22-2.74,2.46-4.82,5.16-1.94-1.93-2.89-2.9-4.79-4.85,2.09-2.78,4.23-4.9,6.75-6.63.42-.28.86-.57,1.3-.84,3.9-2.35,8.29-2.8,10.79-.9,3.44,2.61,3.11,8.72-1.51,15.05,3.75-2.47,5.6-3.77,9.25-6.5,1.43,2.66,2.13,3.99,3.53,6.67-6.98,5.12-10.57,7.45-17.91,11.7-1.85-2.35-2.77-3.53-4.61-5.89,4.08-5.45,6.47-11,5.22-12.8Z"/><path class="cls-3" d="m295.3,295.25c-.97-1.07-1.45-1.6-2.41-2.67.76-.63,1.14-.94,1.89-1.58,2.62-2.22,3.4-3.82,2.37-4.97-.66-.74-1.99-.36-3.89,1.27-1.56,1.34-2.5,2.67-4.04,5.56-2.16-1.68-3.22-2.53-5.35-4.24,2.1-3.55,4.5-6.35,7.19-8.45,4.18-3.27,8.69-4.56,11.37-3.04,2.63,1.48,2.73,4.58,1.1,8.14.06.06.08.09.14.15,3.32-1.4,5.97-1.35,7.77.37,2.61,2.5,1.25,7.53-3.77,12.51-.43.43-.9.86-1.37,1.28-2.82,2.47-6.26,4.51-9.94,5.75-1.09-2.52-1.64-3.78-2.76-6.28,3.46-1.22,5.23-2.04,7.18-3.72,2.04-1.76,2.4-2.88,1.55-3.83-.78-.87-2.43,0-5.24,2.29-.71.58-1.07.87-1.79,1.45Z"/></g><path class="cls-3" d="m440.78,95.49c0-39.6,26.33-66.56,64.45-66.56,23.8,0,40.86,6.53,55.4,20.64l-21.7,33.07c-7.79-8.21-18.54-13.27-28.86-13.27-14.74,0-22.54,10.74-22.54,23.59,0,13.69,7.79,24.01,23.59,24.01,10.32,0,20.85-6.11,31.38-17.06l21.69,35.81c-16.43,17.69-34.33,25.91-57.5,25.91-43.18,0-65.93-22.96-65.93-66.14Z"/><path class="cls-3" d="m589.48,32.09l60.66,1.68,35.81,120.69-55.82,5.69-3.58-23.38h-20.64l-3.16,24.01-55.4-4.21,42.13-124.48Zm40.65,78.99l-10.53-43.6h-3.79l-8.43,43.6h22.75Z"/><path class="cls-3" d="m777.35,116.97l32.23,27.59-39.81,32.23-39.39-50.34-1.26.21.63,34.75-49.5-2.11-1.69-118.38c17.48-5.27,40.65-10.11,61.29-9.9,34.75.42,58.13,18.96,58.13,46.13,0,17.06-8,32.02-20.64,38.97v.84Zm-42.97-17.9c9.9,0,15.8-5.06,15.8-15.17s-5.27-15.8-14.95-15.8c-6.53,0-10.53,1.69-13.27,4l.84,26.54c4.84.42,6.74.42,11.58.42Z"/><path class="cls-3" d="m805.37,68.74l48.87-3.16,3.58,95.84-56.66-4.21,4.21-88.47Zm.21-43.81l47.18-3.79,2.74,34.96-52.03,1.26,2.11-32.44Z"/><path class="cls-3" d="m937.64,31.03c31.17.84,45.5,9.9,45.5,35.39,0,15.8-8.64,24.01-21.27,27.8v.84c16.43,5.48,25.28,12.01,25.28,30.75,0,23.59-17.27,34.54-54.76,34.54-18.11,0-55.82-3.16-71.4-5.69l5.27-120.27c11.16-.84,42.55-4.21,71.4-3.37Zm-27.59,95.84c2.95,2.11,6.32,3.79,13.27,3.79,10.32,0,16.01-5.27,16.01-14.74s-5.9-14.11-17.06-14.11c-5.06,0-6.11,0-11.37.42l-.84,24.64Zm10.11-42.34c8.85,0,13.69-4.42,13.69-13.06s-2.95-14.11-12.22-14.11c-4.21,0-8,1.47-11.16,2.74l.42,23.59c2.95.21,5.27.84,9.27.84Z"/><path class="cls-3" d="m1060.64,31.03c31.17.84,45.5,9.9,45.5,35.39,0,15.8-8.64,24.01-21.27,27.8v.84c16.43,5.48,25.28,12.01,25.28,30.75,0,23.59-17.27,34.54-54.76,34.54-18.11,0-55.82-3.16-71.4-5.69l5.27-120.27c11.16-.84,42.55-4.21,71.4-3.37Zm-27.59,95.84c2.95,2.11,6.32,3.79,13.27,3.79,10.32,0,16.01-5.27,16.01-14.74s-5.9-14.11-17.06-14.11c-5.06,0-6.11,0-11.37.42l-.84,24.64Zm10.11-42.34c8.85,0,13.69-4.42,13.69-13.06s-2.95-14.11-12.22-14.11c-4.21,0-8,1.47-11.16,2.74l.42,23.59c2.95.21,5.27.84,9.27.84Z"/><path class="cls-3" d="m1106.98,34.4l100.26-2.74,1.68,38.97-52.03-2.74.21,14.32,37.7-2.74-1.26,26.33-36.02.63.21,14.11,56.24-5.9-4.63,46.13-100.26-2.53-2.11-123.85Z"/><path class="cls-3" d="m1245.57,32.09l60.66,1.68,35.81,120.69-55.82,5.69-3.58-23.38h-20.64l-3.16,24.01-55.4-4.21,42.13-124.48Zm40.65,78.99l-10.53-43.6h-3.79l-8.43,43.6h22.75Z"/><path class="cls-3" d="m1340.98,36.51l45.71-4.42,22.96,57.92,3.37-1.47-7.58-54.98,52.24.63-2.74,122.17-45.71,4.42-32.86-65.09-2.95.63,12.64,65.09-56.66-4,11.58-120.9Z"/><path class="cls-3" d="m1564.67,31.45l13.06,89.31h3.79l8.42-90.78,56.87,5.69-34.54,123.01-67.19,2.11-36.86-126.8,56.45-2.53Z"/><path class="cls-3" d="m1661.56,32.09l60.66,1.68,35.81,120.69-55.82,5.69-3.58-23.38h-20.64l-3.16,24.01-55.4-4.21,42.13-124.48Zm40.65,78.99l-10.53-43.6h-3.79l-8.43,43.6h22.75Z"/><path class="cls-3" d="m1739.06,95.49c0-39.6,26.33-66.56,64.45-66.56,23.8,0,40.86,6.53,55.4,20.64l-21.69,33.07c-7.79-8.21-18.54-13.27-28.86-13.27-14.74,0-22.54,10.74-22.54,23.59,0,13.69,7.79,24.01,23.59,24.01,10.32,0,20.85-6.11,31.38-17.06l21.7,35.81c-16.43,17.69-34.33,25.91-57.5,25.91-43.18,0-65.93-22.96-65.93-66.14Z"/><path class="cls-3" d="m1887.76,32.09l60.66,1.68,35.81,120.69-55.82,5.69-3.58-23.38h-20.64l-3.16,24.01-55.4-4.21,42.13-124.48Zm40.65,78.99l-10.53-43.6h-3.79l-8.43,43.6h22.75Z"/><path class="cls-3" d="m1995.81,161.41l2.53-84.46-39.39.63,3.79-45.92,118.8,4.84,3.58,38.97-39.81.63,2.95,81.09-52.45,4.21Z"/><path class="cls-3" d="m2087.22,68.74l48.87-3.16,3.58,95.84-56.66-4.21,4.21-88.47Zm.21-43.81l47.18-3.79,2.74,34.96-52.03,1.26,2.11-32.44Z"/><path class="cls-3" d="m2201.59,30.82c37.28,0,64.24,25.7,64.24,64.66s-26.96,64.66-64.24,64.66-64.03-25.7-64.03-64.66,26.54-64.66,64.03-64.66Zm-2.53,91.41c13.9,0,24.01-10.32,24.01-25.07s-10.11-24.85-24.01-24.85-24.22,9.9-24.22,24.85,9.9,25.07,24.22,25.07Z"/><path class="cls-3" d="m2268.99,36.51l45.71-4.42,22.96,57.92,3.37-1.47-7.58-54.98,52.24.63-2.74,122.17-45.71,4.42-32.86-65.09-2.95.63,12.64,65.09-56.66-4,11.58-120.9Z"/><path class="cls-3" d="m810.21,263.24c0-39.6,26.33-66.56,64.45-66.56,23.8,0,40.86,6.53,55.4,20.64l-21.7,33.07c-7.79-8.21-18.54-13.27-28.86-13.27-14.74,0-22.54,10.74-22.54,23.59,0,13.69,7.79,24.01,23.59,24.01,10.32,0,20.85-6.11,31.38-17.06l21.69,35.81c-16.43,17.69-34.33,25.91-57.5,25.91-43.18,0-65.93-22.96-65.93-66.14Z"/><path class="cls-3" d="m982.92,198.57c37.28,0,64.24,25.7,64.24,64.66s-26.96,64.66-64.24,64.66-64.03-25.7-64.03-64.66,26.54-64.66,64.03-64.66Zm-2.53,91.41c13.9,0,24.01-10.32,24.01-25.06s-10.11-24.86-24.01-24.86-24.22,9.9-24.22,24.86,9.9,25.06,24.22,25.06Z"/><path class="cls-3" d="m1052,204.26l45.5-5.48c-8.21,40.02-14.11,86.36,7.16,86.36s15.8-33.07,10.32-85.73l44.02,2.32c26.96,73.3,5.27,126.59-55.82,126.59s-79.62-40.44-51.18-124.06Z"/><path class="cls-3" d="m1173.75,204.26l45.71-4.42,22.96,57.92,3.37-1.47-7.58-54.97,52.24.63-2.74,122.17-45.71,4.42-32.86-65.09-2.95.63,12.64,65.09-56.66-4,11.58-120.9Z"/><path class="cls-3" d="m1325.19,329.16l2.53-84.46-39.39.63,3.79-45.92,118.8,4.85,3.58,38.97-39.81.63,2.95,81.09-52.45,4.21Z"/><path class="cls-3" d="m1411.33,205.73c16.75-4.32,34.23-7.37,51.61-7.37,6.63,0,13.27.53,19.8,1.47,32.44,4.85,57.08,21.27,57.08,63.61,0,46.97-29.91,64.56-72.46,64.56-18.54,0-36.65-3.37-54.76-8.53l-1.26-113.74Zm48.24,78.99c2.11,2.32,8.21,3.79,12.64,3.79,8.64,0,16.64-10.74,16.64-25.7s-6.95-25.49-16.22-25.49c-5.06,0-9.48.42-13.69,2.11l.63,45.29Z"/><path class="cls-3" d="m1595.42,198.57c37.28,0,64.24,25.7,64.24,64.66s-26.96,64.66-64.24,64.66-64.03-25.7-64.03-64.66,26.54-64.66,64.03-64.66Zm-2.53,91.41c13.9,0,24.01-10.32,24.01-25.06s-10.11-24.86-24.01-24.86-24.22,9.9-24.22,24.86,9.9,25.06,24.22,25.06Z"/><path class="cls-3" d="m1698.41,199.41l12.01,76.25h3.79l10.74-70.77,42.97-2.11,11.79,79.62h3.79l7.58-86.57,56.87,5.69-31.38,123.85-64.88,2.11-5.69-46.97-1.9.42-9.27,47.6-59.19-2.11-32.86-124.48,55.61-2.53Z"/><path class="cls-3" d="m1844.8,204.26l45.71-4.42,22.96,57.92,3.37-1.47-7.58-54.97,52.24.63-2.74,122.17-45.71,4.42-32.86-65.09-2.95.63,12.64,65.09-56.66-4,11.58-120.9Z"/></g></svg>