<?xml version="1.0" encoding="UTF-8"?><svg id="Layer_2" xmlns="http://www.w3.org/2000/svg" xmlns:xlink="http://www.w3.org/1999/xlink" viewBox="0 0 500 500"><defs><style>.cls-1,.cls-2{stroke-width:0px;}.cls-3{filter:url(#drop-shadow-1);}.cls-2{fill:#fff;}</style><filter id="drop-shadow-1" filterUnits="userSpaceOnUse"><feOffset dx="-4" dy="0"/><feGaussianBlur result="blur" stdDeviation="2"/><feFlood flood-color="#000" flood-opacity=".75"/><feComposite in2="blur" operator="in"/><feComposite in="SourceGraphic"/></filter></defs><g id="Layer_1-2"><circle class="cls-2" cx="250" cy="250" r="241.65"/><path class="cls-1" d="m250,500C112.15,500,0,387.85,0,250S112.15,0,250,0s250,112.15,250,250-112.15,250-250,250Zm0-483.3C121.36,16.7,16.7,121.36,16.7,250s104.66,233.3,233.3,233.3,233.3-104.66,233.3-233.3S378.64,16.7,250,16.7Z"/><path class="cls-1" d="m377.33,128.38c-29.86-23.94-71.16-35.92-123.9-35.92h-120.26v251.79l50.84,56.55-2.2,1.98h43.66v-.2c3.56.72,7.24,1.11,11.01,1.11h4c12.73.61,21.89.91,27.5.91,47.74,0,86.77-14.85,117.08-44.56,30.31-29.7,45.47-68.05,45.47-115.03s-17.73-87.98-53.2-116.63Z"/><path class="cls-2" d="m271.19,87.8h82.75v183.86c0,33.78-8.85,61.29-26.55,82.53-10.18,12.24-23.12,21.98-38.83,29.21-15.71,7.22-31.83,10.84-48.34,10.84-32.89,0-60.62-11.06-83.19-33.19-22.57-22.13-33.85-49.26-33.85-81.42s11.21-58.04,33.63-80.75c22.42-22.71,48.97-34.07,79.65-34.07,4.87,0,12.24.44,22.12,1.33v91.15c-6.79-5.31-13.57-7.96-20.35-7.96-8.56,0-15.89,3.14-22.01,9.4-6.12,6.27-9.18,13.83-9.18,22.68s3.17,15.89,9.51,22.01c6.34,6.12,13.94,9.18,22.79,9.18,21.24,0,31.86-14.68,31.86-44.03V87.8Z"/><g class="cls-3"><path class="cls-2" d="m269.99,106.07c18.31,9.16,34.22,20.95,47.72,35.38,13.5,14.43,24.13,31.12,31.89,50.05,7.76,18.94,11.64,39.11,11.64,60.53s-3.88,41.52-11.64,60.29c-7.76,18.78-18.39,35.31-31.89,49.58-13.5,14.28-29.41,25.84-47.72,34.69-18.32,8.85-37.87,14.05-58.66,15.6h-21.88l-78.22-88v-38.18l89.86,100.57h10.24c17.69-1.55,34.14-6.05,49.35-13.5,15.2-7.45,28.4-17.15,39.57-29.1,11.17-11.94,20.02-25.76,26.54-41.44,6.52-15.67,9.78-32.51,9.78-50.51s-3.26-34.92-9.78-50.75c-6.52-15.83-15.36-29.87-26.54-42.14-11.17-12.26-24.37-22.19-39.57-29.8-15.21-7.6-31.66-12.18-49.35-13.73h-74.49v123.38l71.7,81.01v38.18l-97.31-109.41V90.01h100.1c20.79,1.56,40.34,6.91,58.66,16.06Z"/></g></g></svg>