<?xml version="1.0" encoding="UTF-8"?><svg id="Layer_2" xmlns="http://www.w3.org/2000/svg" xmlns:xlink="http://www.w3.org/1999/xlink" viewBox="0 0 88 127.49"><defs><style>.cls-1,.cls-2,.cls-3{fill-rule:evenodd;}.cls-1,.cls-4,.cls-5{fill:url(#radial-gradient);}.cls-2,.cls-6{fill:url(#radial-gradient-2);}.cls-7{clip-path:url(#clippath-2);}.cls-4,.cls-8,.cls-6{clip-rule:evenodd;}.cls-4,.cls-8,.cls-6,.cls-9,.cls-5,.cls-10{stroke-width:0px;}.cls-8,.cls-3{fill:url(#radial-gradient-4);}.cls-11{clip-path:url(#clippath-1);}.cls-12{clip-path:url(#clippath);}.cls-9{fill:url(#radial-gradient-5);}.cls-10{fill:url(#radial-gradient-3);}</style><radialGradient id="radial-gradient" cx="44" cy="51.81" fx="44" fy="51.81" r="48.07" gradientUnits="userSpaceOnUse"><stop offset=".2" stop-color="#def037"/><stop offset=".7" stop-color="#9924f5"/><stop offset="1" stop-color="#7d579b"/></radialGradient><clipPath id="clippath"><path class="cls-4" d="m41.85,95.37c-.35-10.56-.04-24.36,4.08-38.95-3.41-1.69-7.67-2.64-7.67-2.64,1.59,1.54,2.38,2.32,2.38,2.32-3.75-1.92-6.32-2.25-7.31-2.43,1.19.7,2.72,2.4,2.72,2.4-3.47-1.13-5.67-1.47-7.15-1.59,7.38.96,13.31,7.22,13.83,16-1.94-3.53-5.62-7.14-5.62-7.14.54,2.15.8,3.23.8,3.23-2.18-3.61-4.19-5.24-4.94-5.93.64,1.22,1.05,3.48,1.05,3.48-3.36-4-5.37-5.24-6.52-6.03.57.76,1.29,1.95,1.54,2.86-1.34-1.32-4.23-3.34-6.93-4.5,9.77,13.01,16.71,27.12,19.74,38.92m-20.99-41.97c1.92-8.8,11-13.58,20.27-10.11-3.67.31-8.03,2.03-8.03,2.03,1.98.35,2.99.53,2.99.53-3.82.48-5.93,1.55-6.77,1.92,1.26-.07,3.28.42,3.28.42-3.28.95-5.14,1.85-6.31,2.53,6.54-3.15,14.6-1.33,19.8,5.2,2.69-9.35,6.96-19.01,13.61-28.32-2.61,1.26-5.35,3.34-6.62,4.68.21-.91.89-2.12,1.43-2.92-1.13.83-3.09,2.15-6.32,6.28,0,0,.33-2.27.92-3.53-.72.72-2.67,2.43-4.73,6.12,0,0,.22-1.09.68-3.27,0,0-3.55,3.75-5.37,7.36.18-7.29,4.1-12.98,9.62-15.43.77-.52,1.67-.98,2.4-1.29-1.81.14-4.89.25-11.27,2.6,0,0,1.92-2.29,3.42-3.26-1.27.3-4.6.85-9.4,3.5,0,0,1-1.04,2.98-3.13,0,0-6.48,1.71-10.95,4.44,6.75-10.33,18.67-13.29,28.01-8.19.13.02.27.05.39.07-1.43-.82-3.81-2.31-9.82-3.83,0,0,2.62-.74,4.25-.69-1.12-.44-3.92-1.73-8.9-2.19,0,0,1.3-.27,3.87-.82,0,0-5.77-2.03-10.54-2.27,12.05-5.02,24.28,1,26.95,12.69-.36-2.97-1.47-6.32-2.35-8.01.82.52,1.79,1.6,2.38,2.39-.44-1.38-1.06-3.75-4.02-8.31,0,0,2.11,1.08,3.15,2.09-.46-.94-1.48-3.45-4.4-6.71,0,0,.99.6,2.96,1.78,0,0-2.48-4.74-5.4-7.75,10.22,3.8,14.54,14.13,10.35,22.96,6.97-6.42,17.83-5.61,24.65,2.61-3.79-1.76-9.1-2.54-9.1-2.54,1.77,1.48,2.66,2.22,2.66,2.22-4.06-1.68-6.75-1.82-7.78-1.94,1.28.64,3.01,2.27,3.01,2.27-5.28-1.27-7.72-1.08-9.18-1.02.19.05.38.12.59.19,9.39-.23,17.71,6.75,19.25,17.62-2.64-4-7.34-7.9-7.34-7.9.84,2.48,1.26,3.73,1.26,3.73-2.93-4.04-5.46-5.8-6.42-6.52.88,1.39,1.58,4.01,1.58,4.01-4.36-4.4-6.87-5.68-8.31-6.5.09.11.18.2.26.31,9.16,5.42,12.69,17.19,7.27,28.27.06-5.24-1.78-11.7-1.78-11.7-.77,2.79-1.17,4.17-1.17,4.17-.16-5.49-1.39-8.64-1.78-9.89-.07,1.8-1.06,4.61-1.06,4.61-1.24-6.68-2.73-9.38-3.51-11.01.15,1.23.21,3.04-.09,4.22-.17-.57-.41-1.26-.72-2.01,1.1,6.27-1.76,13-8.26,17.07,2.17-3.42,3.6-8.4,3.6-8.4-1.65,1.52-2.46,2.27-2.46,2.27,2.13-3.67,2.6-6.24,2.84-7.22-.78,1.15-2.56,2.6-2.56,2.6,1.9-4.9,2.02-7.28,2.16-8.68-.4.87-1.1,2.08-1.78,2.74.33-1.16.61-3.03.7-4.98-12.72,22.24-13.52,53.03-11.18,72.09-3.26-.75-6.54-1.4-9.87-1.81-.75-.09-1.5-.17-2.24-.23-1.01-12.37-7.43-30.03-16.22-44.08-.18,2.94.34,6.44.93,8.23-.7-.62-1.43-1.8-1.87-2.64.19,1.38.4,3.74,2.47,8.52,0,0-1.83-1.36-2.64-2.48.29.96.84,3.5,3.08,7.07,0,0-.84-.72-2.51-2.16,0,0,1.57,4.9,3.87,8.22-7.92-4.57-10.8-13.14-7.82-20.36,0-.06,0-.12,0-.17-.56,1.27-1.62,3.39-2.4,8.55,0,0-.84-2.13-.93-3.5-.27.97-1.13,3.42-1.1,7.63,0,0-.33-1.06-1.01-3.16,0,0-1.23,5-1.04,9.02-4.48-8.35-2.09-17.48,4.78-21.9.07-.08.13-.15.19-.23-1.07.67-2.96,1.72-6.19,5.22,0,0,.47-2.03,1.1-3.13-.7.6-2.61,2-4.75,5.2,0,0,.28-.98.86-2.9,0,0-3.49,3.14-5.41,6.27.98-9.26,8.45-15.12,16.61-13.89-1.29-.27-2.56-.39-3.38-.36.56-.35,1.52-.61,2.17-.73-.97-.15-2.62-.48-6.29-.03,0,0,1.3-.98,2.22-1.29-.72,0-2.55-.13-5.42.69,0,0,.66-.44,1.98-1.29,0,0-3.64.11-6.36,1,5.14-4.9,12.31-4.73,16.57-.16-2.15-5.5.41-11.83,6.62-14.65-1.85,2.19-3.29,5.52-3.29,5.52,1.28-.89,1.93-1.35,1.93-1.35-1.82,2.36-2.4,4.11-2.66,4.77.65-.73,2.03-1.58,2.03-1.58-1.78,3.25-2.09,4.89-2.33,5.84.37-.56.97-1.35,1.5-1.74-.38.87-.79,2.36-1.04,3.9Z"/></clipPath><radialGradient id="radial-gradient-2" cx="44.78" cy="120.42" fx="44.78" fy="120.42" r="29.05" gradientUnits="userSpaceOnUse"><stop offset="0" stop-color="#00579b"/><stop offset="1" stop-color="#49e5f5"/></radialGradient><clipPath id="clippath-1"><path class="cls-6" d="m4.32,120.59c30.22-22.42,69.2,16.46,80.93-5.2-10.8,31-50.29-9.09-80.93,5.2"/></clipPath><radialGradient id="radial-gradient-3" cy="122.28" fy="122.28" r="33.31" xlink:href="#radial-gradient-2"/><radialGradient id="radial-gradient-4" cx="45.34" cy="104" fx="45.34" fy="104" r="31.4" gradientUnits="userSpaceOnUse"><stop offset="0" stop-color="#00579b"/><stop offset=".16" stop-color="#025b9d"/><stop offset=".33" stop-color="#0867a5"/><stop offset=".5" stop-color="#137cb2"/><stop offset=".68" stop-color="#2299c5"/><stop offset=".85" stop-color="#35bedc"/><stop offset="1" stop-color="#49e5f5"/></radialGradient><clipPath id="clippath-2"><path class="cls-8" d="m4,120.2c17.36-16.14,43.61-6.24,61.87-3.2,28.8,4.78,24.5-29.2,6.54-29.2-7.12,0-13.12,6.03-14.39,12.79,1.94-3.84,5.93-6.49,10.52-6.49,13.02,0,13.23,15.72,2.33,16.65-15.39,1.32-48.71-20.47-66.86,9.45"/></clipPath><radialGradient id="radial-gradient-5" cx="49.33" cy="104.79" fx="49.33" fy="104.79" r="34.23" xlink:href="#radial-gradient-4"/></defs><g id="Layer_1-2"><path class="cls-1" d="m41.85,95.37c-.35-10.56-.04-24.36,4.08-38.95-3.41-1.69-7.67-2.64-7.67-2.64,1.59,1.54,2.38,2.32,2.38,2.32-3.75-1.92-6.32-2.25-7.31-2.43,1.19.7,2.72,2.4,2.72,2.4-3.47-1.13-5.67-1.47-7.15-1.59,7.38.96,13.31,7.22,13.83,16-1.94-3.53-5.62-7.14-5.62-7.14.54,2.15.8,3.23.8,3.23-2.18-3.61-4.19-5.24-4.94-5.93.64,1.22,1.05,3.48,1.05,3.48-3.36-4-5.37-5.24-6.52-6.03.57.76,1.29,1.95,1.54,2.86-1.34-1.32-4.23-3.34-6.93-4.5,9.77,13.01,16.71,27.12,19.74,38.92m-20.99-41.97c1.92-8.8,11-13.58,20.27-10.11-3.67.31-8.03,2.03-8.03,2.03,1.98.35,2.99.53,2.99.53-3.82.48-5.93,1.55-6.77,1.92,1.26-.07,3.28.42,3.28.42-3.28.95-5.14,1.85-6.31,2.53,6.54-3.15,14.6-1.33,19.8,5.2,2.69-9.35,6.96-19.01,13.61-28.32-2.61,1.26-5.35,3.34-6.62,4.68.21-.91.89-2.12,1.43-2.92-1.13.83-3.09,2.15-6.32,6.28,0,0,.33-2.27.92-3.53-.72.72-2.67,2.43-4.73,6.12,0,0,.22-1.09.68-3.27,0,0-3.55,3.75-5.37,7.36.18-7.29,4.1-12.98,9.62-15.43.77-.52,1.67-.98,2.4-1.29-1.81.14-4.89.25-11.27,2.6,0,0,1.92-2.29,3.42-3.26-1.27.3-4.6.85-9.4,3.5,0,0,1-1.04,2.98-3.13,0,0-6.48,1.71-10.95,4.44,6.75-10.33,18.67-13.29,28.01-8.19.13.02.27.05.39.07-1.43-.82-3.81-2.31-9.82-3.83,0,0,2.62-.74,4.25-.69-1.12-.44-3.92-1.73-8.9-2.19,0,0,1.3-.27,3.87-.82,0,0-5.77-2.03-10.54-2.27,12.05-5.02,24.28,1,26.95,12.69-.36-2.97-1.47-6.32-2.35-8.01.82.52,1.79,1.6,2.38,2.39-.44-1.38-1.06-3.75-4.02-8.31,0,0,2.11,1.08,3.15,2.09-.46-.94-1.48-3.45-4.4-6.71,0,0,.99.6,2.96,1.78,0,0-2.48-4.74-5.4-7.75,10.22,3.8,14.54,14.13,10.35,22.96,6.97-6.42,17.83-5.61,24.65,2.61-3.79-1.76-9.1-2.54-9.1-2.54,1.77,1.48,2.66,2.22,2.66,2.22-4.06-1.68-6.75-1.82-7.78-1.94,1.28.64,3.01,2.27,3.01,2.27-5.28-1.27-7.72-1.08-9.18-1.02.19.05.38.12.59.19,9.39-.23,17.71,6.75,19.25,17.62-2.64-4-7.34-7.9-7.34-7.9.84,2.48,1.26,3.73,1.26,3.73-2.93-4.04-5.46-5.8-6.42-6.52.88,1.39,1.58,4.01,1.58,4.01-4.36-4.4-6.87-5.68-8.31-6.5.09.11.18.2.26.31,9.16,5.42,12.69,17.19,7.27,28.27.06-5.24-1.78-11.7-1.78-11.7-.77,2.79-1.17,4.17-1.17,4.17-.16-5.49-1.39-8.64-1.78-9.89-.07,1.8-1.06,4.61-1.06,4.61-1.24-6.68-2.73-9.38-3.51-11.01.15,1.23.21,3.04-.09,4.22-.17-.57-.41-1.26-.72-2.01,1.1,6.27-1.76,13-8.26,17.07,2.17-3.42,3.6-8.4,3.6-8.4-1.65,1.52-2.46,2.27-2.46,2.27,2.13-3.67,2.6-6.24,2.84-7.22-.78,1.15-2.56,2.6-2.56,2.6,1.9-4.9,2.02-7.28,2.16-8.68-.4.87-1.1,2.08-1.78,2.74.33-1.16.61-3.03.7-4.98-12.72,22.24-13.52,53.03-11.18,72.09-3.26-.75-6.54-1.4-9.87-1.81-.75-.09-1.5-.17-2.24-.23-1.01-12.37-7.43-30.03-16.22-44.08-.18,2.94.34,6.44.93,8.23-.7-.62-1.43-1.8-1.87-2.64.19,1.38.4,3.74,2.47,8.52,0,0-1.83-1.36-2.64-2.48.29.96.84,3.5,3.08,7.07,0,0-.84-.72-2.51-2.16,0,0,1.57,4.9,3.87,8.22-7.92-4.57-10.8-13.14-7.82-20.36,0-.06,0-.12,0-.17-.56,1.27-1.62,3.39-2.4,8.55,0,0-.84-2.13-.93-3.5-.27.97-1.13,3.42-1.1,7.63,0,0-.33-1.06-1.01-3.16,0,0-1.23,5-1.04,9.02-4.48-8.35-2.09-17.48,4.78-21.9.07-.08.13-.15.19-.23-1.07.67-2.96,1.72-6.19,5.22,0,0,.47-2.03,1.1-3.13-.7.6-2.61,2-4.75,5.2,0,0,.28-.98.86-2.9,0,0-3.49,3.14-5.41,6.27.98-9.26,8.45-15.12,16.61-13.89-1.29-.27-2.56-.39-3.38-.36.56-.35,1.52-.61,2.17-.73-.97-.15-2.62-.48-6.29-.03,0,0,1.3-.98,2.22-1.29-.72,0-2.55-.13-5.42.69,0,0,.66-.44,1.98-1.29,0,0-3.64.11-6.36,1,5.14-4.9,12.31-4.73,16.57-.16-2.15-5.5.41-11.83,6.62-14.65-1.85,2.19-3.29,5.52-3.29,5.52,1.28-.89,1.93-1.35,1.93-1.35-1.82,2.36-2.4,4.11-2.66,4.77.65-.73,2.03-1.58,2.03-1.58-1.78,3.25-2.09,4.89-2.33,5.84.37-.56.97-1.35,1.5-1.74-.38.87-.79,2.36-1.04,3.9Z"/><g class="cls-12"><rect class="cls-5" width="88" height="103.62"/></g><path class="cls-2" d="m4.32,120.59c30.22-22.42,69.2,16.46,80.93-5.2-10.8,31-50.29-9.09-80.93,5.2"/><g class="cls-11"><rect class="cls-10" x="4.32" y="98.17" width="80.93" height="48.22"/></g><path class="cls-3" d="m4,120.2c17.36-16.14,43.61-6.24,61.87-3.2,28.8,4.78,24.5-29.2,6.54-29.2-7.12,0-13.12,6.03-14.39,12.79,1.94-3.84,5.93-6.49,10.52-6.49,13.02,0,13.23,15.72,2.33,16.65-15.39,1.32-48.71-20.47-66.86,9.45"/><g class="cls-7"><rect class="cls-9" x="4" y="87.8" width="90.67" height="33.98"/></g></g></svg>