<?xml version="1.0" encoding="UTF-8"?><svg id="Layer_2" xmlns="http://www.w3.org/2000/svg" xmlns:xlink="http://www.w3.org/1999/xlink" viewBox="0 0 94.91 146.46"><defs><style>.cls-1{fill:none;}.cls-1,.cls-2{fill-rule:evenodd;}.cls-1,.cls-3,.cls-4{stroke:#000;stroke-linecap:round;stroke-linejoin:round;}.cls-2,.cls-5,.cls-3,.cls-4{fill:#def037;}.cls-6{clip-path:url(#clippath-2);}.cls-7,.cls-5{stroke-width:0px;}.cls-8{clip-path:url(#clippath-1);}.cls-3,.cls-4{clip-rule:evenodd;}.cls-9{clip-path:url(#clippath-3);}.cls-4{clip-path:url(#clippath);}</style><clipPath id="clippath"><path class="cls-3" d="m42.13,95.32c-.35-10.49-.04-24.21,4.05-38.71-3.39-1.68-7.62-2.63-7.62-2.63,1.58,1.53,2.36,2.3,2.36,2.3-3.73-1.91-6.29-2.23-7.27-2.42,1.18.7,2.7,2.38,2.7,2.38-3.45-1.12-5.63-1.46-7.1-1.58,7.34.96,13.23,7.18,13.75,15.91-1.93-3.51-5.59-7.09-5.59-7.09.54,2.14.8,3.21.8,3.21-2.16-3.59-4.16-5.21-4.91-5.89.63,1.22,1.04,3.46,1.04,3.46-3.34-3.97-5.34-5.21-6.49-6,.57.76,1.28,1.94,1.53,2.84-1.33-1.31-4.21-3.32-6.89-4.47,9.71,12.93,16.61,26.96,19.62,38.69"/></clipPath><clipPath id="clippath-1"><path class="cls-4" d="m21.26,53.61c1.9-8.75,10.94-13.49,20.14-10.05-3.65.3-7.98,2.02-7.98,2.02,1.97.35,2.97.52,2.97.52-3.8.48-5.89,1.54-6.73,1.91,1.25-.07,3.26.42,3.26.42-3.26.95-5.11,1.83-6.27,2.51,6.5-3.13,14.51-1.32,19.68,5.16,2.67-9.29,6.91-18.89,13.53-28.15-2.59,1.25-5.31,3.32-6.58,4.65.21-.9.89-2.1,1.43-2.9-1.12.83-3.07,2.14-6.29,6.24,0,0,.33-2.26.91-3.51-.71.71-2.65,2.42-4.7,6.09,0,0,.22-1.09.68-3.25,0,0-3.53,3.73-5.34,7.31.18-7.24,4.08-12.9,9.56-15.34.77-.51,1.66-.97,2.38-1.29-1.8.14-4.86.25-11.2,2.58,0,0,1.9-2.28,3.4-3.24-1.26.29-4.58.84-9.34,3.48,0,0,.99-1.03,2.97-3.11,0,0-6.44,1.7-10.89,4.42,6.71-10.27,18.56-13.22,27.84-8.14.13.02.27.05.38.07-1.43-.82-3.78-2.3-9.77-3.81,0,0,2.6-.74,4.23-.69-1.11-.43-3.89-1.72-8.85-2.17,0,0,1.29-.27,3.84-.82,0,0-5.74-2.02-10.48-2.26,11.98-4.99,24.13.99,26.79,12.61-.36-2.96-1.46-6.29-2.34-7.96.82.51,1.78,1.59,2.36,2.37-.43-1.37-1.05-3.73-3.99-8.26,0,0,2.1,1.08,3.13,2.08-.46-.94-1.47-3.42-4.37-6.67,0,0,.98.6,2.94,1.77,0,0-2.47-4.71-5.36-7.7,10.16,3.77,14.45,14.04,10.29,22.82,6.93-6.38,17.73-5.57,24.5,2.59-3.77-1.75-9.04-2.52-9.04-2.52,1.76,1.47,2.64,2.21,2.64,2.21-4.03-1.67-6.71-1.81-7.74-1.93,1.27.63,2.99,2.26,2.99,2.26-5.25-1.26-7.68-1.08-9.13-1.02.19.05.38.12.59.19,9.34-.23,17.61,6.71,19.14,17.52-2.63-3.97-7.29-7.85-7.29-7.85.84,2.46,1.25,3.7,1.25,3.7-2.91-4.02-5.43-5.76-6.38-6.49.88,1.38,1.57,3.98,1.57,3.98-4.33-4.37-6.83-5.64-8.26-6.46.09.11.18.2.26.3,9.1,5.39,12.62,17.08,7.22,28.1.06-5.21-1.77-11.63-1.77-11.63-.77,2.77-1.16,4.15-1.16,4.15-.16-5.46-1.38-8.59-1.77-9.83-.07,1.79-1.05,4.58-1.05,4.58-1.24-6.64-2.71-9.32-3.49-10.95.15,1.23.21,3.03-.09,4.19-.17-.57-.41-1.25-.71-2,1.1,6.23-1.75,12.92-8.21,16.97,2.16-3.4,3.58-8.35,3.58-8.35-1.64,1.51-2.44,2.25-2.44,2.25,2.11-3.65,2.58-6.2,2.83-7.17-.77,1.14-2.55,2.58-2.55,2.58,1.89-4.87,2.01-7.23,2.15-8.62-.4.86-1.09,2.07-1.77,2.72.33-1.16.61-3.01.7-4.95-12.64,22.11-13.44,52.71-11.11,71.65-3.24-.75-6.5-1.39-9.81-1.8-.75-.09-1.49-.16-2.22-.23-1-12.29-7.38-29.85-16.12-43.82-.18,2.92.34,6.4.92,8.18-.7-.62-1.43-1.79-1.86-2.63.19,1.37.4,3.71,2.45,8.47,0,0-1.82-1.35-2.62-2.46.28.96.83,3.48,3.06,7.02,0,0-.83-.71-2.5-2.15,0,0,1.56,4.87,3.84,8.17-7.87-4.54-10.74-13.06-7.77-20.24,0-.06,0-.12,0-.16-.56,1.26-1.61,3.37-2.38,8.5,0,0-.83-2.12-.92-3.48-.27.96-1.12,3.4-1.1,7.58,0,0-.33-1.05-1-3.14,0,0-1.23,4.97-1.03,8.96-4.45-8.3-2.08-17.38,4.76-21.77.07-.08.13-.15.19-.23-1.06.67-2.94,1.71-6.16,5.19,0,0,.47-2.02,1.1-3.11-.7.6-2.59,1.99-4.72,5.16,0,0,.28-.97.85-2.89,0,0-3.47,3.12-5.38,6.23.97-9.21,8.4-15.03,16.51-13.81-1.28-.27-2.54-.39-3.36-.36.56-.35,1.51-.61,2.16-.73-.97-.15-2.6-.48-6.25-.03,0,0,1.3-.97,2.21-1.29-.71,0-2.54-.13-5.39.69,0,0,.66-.43,1.96-1.29,0,0-3.62.11-6.32.99,5.11-4.87,12.24-4.7,16.47-.16-2.14-5.47.41-11.76,6.58-14.56-1.83,2.17-3.27,5.49-3.27,5.49,1.28-.89,1.92-1.34,1.92-1.34-1.81,2.35-2.38,4.09-2.64,4.74.64-.72,2.02-1.57,2.02-1.57-1.77,3.23-2.08,4.86-2.31,5.81.36-.56.96-1.34,1.49-1.73-.38.86-.79,2.35-1.03,3.88Z"/></clipPath><clipPath id="clippath-2"><path class="cls-3" d="m4.82,120.39c30.04-22.28,68.79,16.36,80.45-5.16-10.74,30.81-49.99-9.03-80.45,5.16"/></clipPath><clipPath id="clippath-3"><path class="cls-3" d="m4.51,120c17.26-16.04,43.35-6.2,61.5-3.18,28.63,4.76,24.35-29.03,6.5-29.03-7.08,0-13.04,6-14.3,12.71,1.93-3.82,5.89-6.45,10.46-6.45,12.94,0,13.15,15.62,2.31,16.55-15.3,1.31-48.42-20.34-66.46,9.39"/></clipPath></defs><g id="Layer_1-2"><path class="cls-2" d="m42.13,95.32c-.35-10.49-.04-24.21,4.05-38.71-3.39-1.68-7.62-2.63-7.62-2.63,1.58,1.53,2.36,2.3,2.36,2.3-3.73-1.91-6.29-2.23-7.27-2.42,1.18.7,2.7,2.38,2.7,2.38-3.45-1.12-5.63-1.46-7.1-1.58,7.34.96,13.23,7.18,13.75,15.91-1.93-3.51-5.59-7.09-5.59-7.09.54,2.14.8,3.21.8,3.21-2.16-3.59-4.16-5.21-4.91-5.89.63,1.22,1.04,3.46,1.04,3.46-3.34-3.97-5.34-5.21-6.49-6,.57.76,1.28,1.94,1.53,2.84-1.33-1.31-4.21-3.32-6.89-4.47,9.71,12.93,16.61,26.96,19.62,38.69"/><path class="cls-2" d="m21.26,53.61c1.9-8.75,10.94-13.49,20.14-10.05-3.65.3-7.98,2.02-7.98,2.02,1.97.35,2.97.52,2.97.52-3.8.48-5.89,1.54-6.73,1.91,1.25-.07,3.26.42,3.26.42-3.26.95-5.11,1.83-6.27,2.51,6.5-3.13,14.51-1.32,19.68,5.16,2.67-9.29,6.91-18.89,13.53-28.15-2.59,1.25-5.31,3.32-6.58,4.65.21-.9.89-2.1,1.43-2.9-1.12.83-3.07,2.14-6.29,6.24,0,0,.33-2.26.91-3.51-.71.71-2.65,2.42-4.7,6.09,0,0,.22-1.09.68-3.25,0,0-3.53,3.73-5.34,7.31.18-7.24,4.08-12.9,9.56-15.34.77-.51,1.66-.97,2.38-1.29-1.8.14-4.86.25-11.2,2.58,0,0,1.9-2.28,3.4-3.24-1.26.29-4.58.84-9.34,3.48,0,0,.99-1.03,2.97-3.11,0,0-6.44,1.7-10.89,4.42,6.71-10.27,18.56-13.22,27.84-8.14.13.02.27.05.38.07-1.43-.82-3.78-2.3-9.77-3.81,0,0,2.6-.74,4.23-.69-1.11-.43-3.89-1.72-8.85-2.17,0,0,1.29-.27,3.84-.82,0,0-5.74-2.02-10.48-2.26,11.98-4.99,24.13.99,26.79,12.61-.36-2.96-1.46-6.29-2.34-7.96.82.51,1.78,1.59,2.36,2.37-.43-1.37-1.05-3.73-3.99-8.26,0,0,2.1,1.08,3.13,2.08-.46-.94-1.47-3.42-4.37-6.67,0,0,.98.6,2.94,1.77,0,0-2.47-4.71-5.36-7.7,10.16,3.77,14.45,14.04,10.29,22.82,6.93-6.38,17.73-5.57,24.5,2.59-3.77-1.75-9.04-2.52-9.04-2.52,1.76,1.47,2.64,2.21,2.64,2.21-4.03-1.67-6.71-1.81-7.74-1.93,1.27.63,2.99,2.26,2.99,2.26-5.25-1.26-7.68-1.08-9.13-1.02.19.05.38.12.59.19,9.34-.23,17.61,6.71,19.14,17.52-2.63-3.97-7.29-7.85-7.29-7.85.84,2.46,1.25,3.7,1.25,3.7-2.91-4.02-5.43-5.76-6.38-6.49.88,1.38,1.57,3.98,1.57,3.98-4.33-4.37-6.83-5.64-8.26-6.46.09.11.18.2.26.3,9.1,5.39,12.62,17.08,7.22,28.1.06-5.21-1.77-11.63-1.77-11.63-.77,2.77-1.16,4.15-1.16,4.15-.16-5.46-1.38-8.59-1.77-9.83-.07,1.79-1.05,4.58-1.05,4.58-1.24-6.64-2.71-9.32-3.49-10.95.15,1.23.21,3.03-.09,4.19-.17-.57-.41-1.25-.71-2,1.1,6.23-1.75,12.92-8.21,16.97,2.16-3.4,3.58-8.35,3.58-8.35-1.64,1.51-2.44,2.25-2.44,2.25,2.11-3.65,2.58-6.2,2.83-7.17-.77,1.14-2.55,2.58-2.55,2.58,1.89-4.87,2.01-7.23,2.15-8.62-.4.86-1.09,2.07-1.77,2.72.33-1.16.61-3.01.7-4.95-12.64,22.11-13.44,52.71-11.11,71.65-3.24-.75-6.5-1.39-9.81-1.8-.75-.09-1.49-.16-2.22-.23-1-12.29-7.38-29.85-16.12-43.82-.18,2.92.34,6.4.92,8.18-.7-.62-1.43-1.79-1.86-2.63.19,1.37.4,3.71,2.45,8.47,0,0-1.82-1.35-2.62-2.46.28.96.83,3.48,3.06,7.02,0,0-.83-.71-2.5-2.15,0,0,1.56,4.87,3.84,8.17-7.87-4.54-10.74-13.06-7.77-20.24,0-.06,0-.12,0-.16-.56,1.26-1.61,3.37-2.38,8.5,0,0-.83-2.12-.92-3.48-.27.96-1.12,3.4-1.1,7.58,0,0-.33-1.05-1-3.14,0,0-1.23,4.97-1.03,8.96-4.45-8.3-2.08-17.38,4.76-21.77.07-.08.13-.15.19-.23-1.06.67-2.94,1.71-6.16,5.19,0,0,.47-2.02,1.1-3.11-.7.6-2.59,1.99-4.72,5.16,0,0,.28-.97.85-2.89,0,0-3.47,3.12-5.38,6.23.97-9.21,8.4-15.03,16.51-13.81-1.28-.27-2.54-.39-3.36-.36.56-.35,1.51-.61,2.16-.73-.97-.15-2.6-.48-6.25-.03,0,0,1.3-.97,2.21-1.29-.71,0-2.54-.13-5.39.69,0,0,.66-.43,1.96-1.29,0,0-3.62.11-6.32.99,5.11-4.87,12.24-4.7,16.47-.16-2.14-5.47.41-11.76,6.58-14.56-1.83,2.17-3.27,5.49-3.27,5.49,1.28-.89,1.92-1.34,1.92-1.34-1.81,2.35-2.38,4.09-2.64,4.74.64-.72,2.02-1.57,2.02-1.57-1.77,3.23-2.08,4.86-2.31,5.81.36-.56.96-1.34,1.49-1.73-.38.86-.79,2.35-1.03,3.88Z"/><g class="cls-8"><rect class="cls-5" x=".53" y=".52" width="87.47" height="103"/><path class="cls-7" d="m.57,103.49c19.5-.19,46.15-.27,65.65-.37,5.42-.06,16.37-.03,21.79,0,0,0-.41.41-.41.41l.2-51.5c.03-6.41.07-19.34.02-25.75,0,0-.08-25.75-.08-25.75,0,0,.27.27.27.27-21.8.15-65.68.23-87.47.25,0,0,.52-.52.52-.52-.03,28.71-.28,73.93-.49,102.97h0Zm-.07.07C.41,74.32-.08,29.43.01.52,0,.23.24,0,.53,0c21.81.02,65.68.11,87.47.25.15,0,.27.12.27.27l-.08,25.75c-.06,6.43-.02,19.33.02,25.75,0,0,.2,51.5.2,51.5,0,.23-.18.41-.41.41-5.48.02-16.47.05-21.95,0-19.47-.1-46.1-.18-65.56-.37H.5Z"/></g><path class="cls-1" d="m42.13,95.32c-.35-10.49-.04-24.21,4.05-38.71-3.39-1.68-7.62-2.63-7.62-2.63,1.58,1.53,2.36,2.3,2.36,2.3-3.73-1.91-6.29-2.23-7.27-2.42,1.18.7,2.7,2.38,2.7,2.38-3.45-1.12-5.63-1.46-7.1-1.58,7.34.96,13.23,7.18,13.75,15.91-1.93-3.51-5.59-7.09-5.59-7.09.54,2.14.8,3.21.8,3.21-2.16-3.59-4.16-5.21-4.91-5.89.63,1.22,1.04,3.46,1.04,3.46-3.34-3.97-5.34-5.21-6.49-6,.57.76,1.28,1.94,1.53,2.84-1.33-1.31-4.21-3.32-6.89-4.47,9.71,12.93,16.61,26.96,19.62,38.69"/><path class="cls-1" d="m21.26,53.61c1.9-8.75,10.94-13.49,20.14-10.05-3.65.3-7.98,2.02-7.98,2.02,1.97.35,2.97.52,2.97.52-3.8.48-5.89,1.54-6.73,1.91,1.25-.07,3.26.42,3.26.42-3.26.95-5.11,1.83-6.27,2.51,6.5-3.13,14.51-1.32,19.68,5.16,2.67-9.29,6.91-18.89,13.53-28.15-2.59,1.25-5.31,3.32-6.58,4.65.21-.9.89-2.1,1.43-2.9-1.12.83-3.07,2.14-6.29,6.24,0,0,.33-2.26.91-3.51-.71.71-2.65,2.42-4.7,6.09,0,0,.22-1.09.68-3.25,0,0-3.53,3.73-5.34,7.31.18-7.24,4.08-12.9,9.56-15.34.77-.51,1.66-.97,2.38-1.29-1.8.14-4.86.25-11.2,2.58,0,0,1.9-2.28,3.4-3.24-1.26.29-4.58.84-9.34,3.48,0,0,.99-1.03,2.97-3.11,0,0-6.44,1.7-10.89,4.42,6.71-10.27,18.56-13.22,27.84-8.14.13.02.27.05.38.07-1.43-.82-3.78-2.3-9.77-3.81,0,0,2.6-.74,4.23-.69-1.11-.43-3.89-1.72-8.85-2.17,0,0,1.29-.27,3.84-.82,0,0-5.74-2.02-10.48-2.26,11.98-4.99,24.13.99,26.79,12.61-.36-2.96-1.46-6.29-2.34-7.96.82.51,1.78,1.59,2.36,2.37-.43-1.37-1.05-3.73-3.99-8.26,0,0,2.1,1.08,3.13,2.08-.46-.94-1.47-3.42-4.37-6.67,0,0,.98.6,2.94,1.77,0,0-2.47-4.71-5.36-7.7,10.16,3.77,14.45,14.04,10.29,22.82,6.93-6.38,17.73-5.57,24.5,2.59-3.77-1.75-9.04-2.52-9.04-2.52,1.76,1.47,2.64,2.21,2.64,2.21-4.03-1.67-6.71-1.81-7.74-1.93,1.27.63,2.99,2.26,2.99,2.26-5.25-1.26-7.68-1.08-9.13-1.02.19.05.38.12.59.19,9.34-.23,17.61,6.71,19.14,17.52-2.63-3.97-7.29-7.85-7.29-7.85.84,2.46,1.25,3.7,1.25,3.7-2.91-4.02-5.43-5.76-6.38-6.49.88,1.38,1.57,3.98,1.57,3.98-4.33-4.37-6.83-5.64-8.26-6.46.09.11.18.2.26.3,9.1,5.39,12.62,17.08,7.22,28.1.06-5.21-1.77-11.63-1.77-11.63-.77,2.77-1.16,4.15-1.16,4.15-.16-5.46-1.38-8.59-1.77-9.83-.07,1.79-1.05,4.58-1.05,4.58-1.24-6.64-2.71-9.32-3.49-10.95.15,1.23.21,3.03-.09,4.19-.17-.57-.41-1.25-.71-2,1.1,6.23-1.75,12.92-8.21,16.97,2.16-3.4,3.58-8.35,3.58-8.35-1.64,1.51-2.44,2.25-2.44,2.25,2.11-3.65,2.58-6.2,2.83-7.17-.77,1.14-2.55,2.58-2.55,2.58,1.89-4.87,2.01-7.23,2.15-8.62-.4.86-1.09,2.07-1.77,2.72.33-1.16.61-3.01.7-4.95-12.64,22.11-13.44,52.71-11.11,71.65-3.24-.75-6.5-1.39-9.81-1.8-.75-.09-1.49-.16-2.22-.23-1-12.29-7.38-29.85-16.12-43.82-.18,2.92.34,6.4.92,8.18-.7-.62-1.43-1.79-1.86-2.63.19,1.37.4,3.71,2.45,8.47,0,0-1.82-1.35-2.62-2.46.28.96.83,3.48,3.06,7.02,0,0-.83-.71-2.5-2.15,0,0,1.56,4.87,3.84,8.17-7.87-4.54-10.74-13.06-7.77-20.24,0-.06,0-.12,0-.16-.56,1.26-1.61,3.37-2.38,8.5,0,0-.83-2.12-.92-3.48-.27.96-1.12,3.4-1.1,7.58,0,0-.33-1.05-1-3.14,0,0-1.23,4.97-1.03,8.96-4.45-8.3-2.08-17.38,4.76-21.77.07-.08.13-.15.19-.23-1.06.67-2.94,1.71-6.16,5.19,0,0,.47-2.02,1.1-3.11-.7.6-2.59,1.99-4.72,5.16,0,0,.28-.97.85-2.89,0,0-3.47,3.12-5.38,6.23.97-9.21,8.4-15.03,16.51-13.81-1.28-.27-2.54-.39-3.36-.36.56-.35,1.51-.61,2.16-.73-.97-.15-2.6-.48-6.25-.03,0,0,1.3-.97,2.21-1.29-.71,0-2.54-.13-5.39.69,0,0,.66-.43,1.96-1.29,0,0-3.62.11-6.32.99,5.11-4.87,12.24-4.7,16.47-.16-2.14-5.47.41-11.76,6.58-14.56-1.83,2.17-3.27,5.49-3.27,5.49,1.28-.89,1.92-1.34,1.92-1.34-1.81,2.35-2.38,4.09-2.64,4.74.64-.72,2.02-1.57,2.02-1.57-1.77,3.23-2.08,4.86-2.31,5.81.36-.56.96-1.34,1.49-1.73-.38.86-.79,2.35-1.03,3.88Z"/><path class="cls-2" d="m4.82,120.39c30.04-22.28,68.79,16.36,80.45-5.16-10.74,30.81-49.99-9.03-80.45,5.16"/><g class="cls-6"><rect class="cls-5" x="4.82" y="98.1" width="80.45" height="47.93"/><path class="cls-7" d="m4.86,146c26.98-.31,53.53-.56,80.42-.24,0,0-.28.28-.28.28,0,0,.09-11.98.09-11.98.06-7.6-.04-28.09-.09-35.95,0,0,.27.27.27.27-10.03.09-30.2.19-40.23.22-10.01.04-30.21.01-40.23-.02,0,0,.48-.48.48-.48,0,0-.44,47.9-.44,47.9h0Zm-.07.07c-.12-11.95-.37-36.01-.44-47.97,0-.26.21-.48.48-.48,10.04-.03,30.19-.06,40.23-.02,10.02.04,30.21.13,40.23.22.15,0,.27.12.27.27-.05,7.96-.15,28.26-.09,35.95,0,0,.09,11.98.09,11.98,0,.15-.12.28-.27.28-26.75.31-53.83.07-80.49-.24h0Z"/></g><path class="cls-1" d="m4.82,120.39c30.04-22.28,68.79,16.36,80.45-5.16-10.74,30.81-49.99-9.03-80.45,5.16"/><path class="cls-2" d="m4.51,120c17.26-16.04,43.35-6.2,61.5-3.18,28.63,4.76,24.35-29.03,6.5-29.03-7.08,0-13.04,6-14.3,12.71,1.93-3.82,5.89-6.45,10.46-6.45,12.94,0,13.15,15.62,2.31,16.55-15.3,1.31-48.42-20.34-66.46,9.39"/><g class="cls-9"><rect class="cls-5" x="4.51" y="87.8" width="90.13" height="33.78"/><path class="cls-7" d="m4.54,121.54c28.36-.18,62.44-.86,89.91.03.15-9.77-.08-23.87-.09-33.78,0,0,.27.27.27.27-15.02.12-30.04.21-45.06.24-13.25.04-32-.02-45.06-.13,0,0,.38-.38.38-.38-.04,8.41-.25,25.34-.35,33.75h0Zm-.07.07c-.1-8.43-.3-25.39-.35-33.82,0-.21.17-.38.38-.38,7.51-.05,15.02-.14,22.53-.13,21.83.23,46.46-.47,67.87.51-.16,9.96-.1,23.96-.09,33.78,0,.1-.08.18-.18.18l-22.6.18c-20.82.18-46.63-.12-67.56-.33h0Z"/></g><path class="cls-1" d="m4.51,120c17.26-16.04,43.35-6.2,61.5-3.18,28.63,4.76,24.35-29.03,6.5-29.03-7.08,0-13.04,6-14.3,12.71,1.93-3.82,5.89-6.45,10.46-6.45,12.94,0,13.15,15.62,2.31,16.55-15.3,1.31-48.42-20.34-66.46,9.39"/></g></svg>