<?xml version="1.0" encoding="UTF-8"?><svg id="Layer_2" xmlns="http://www.w3.org/2000/svg" viewBox="0 0 1199.35 223.07"><defs><style>.cls-1{fill:#0284c7;}.cls-1,.cls-2,.cls-3{stroke-width:0px;}.cls-3{fill:none;}</style></defs><g id="Layer_1-2"><path class="cls-3" d="m365.13,198.35c-18.04,0-31.64-13.82-31.64-32.14s13.6-32.01,31.64-32.01,31.51,13.76,31.51,32.01-13.55,32.14-31.51,32.14Z"/><path class="cls-3" d="m365.13,151.51c-8.47,0-14.33,5.86-14.33,14.7s5.86,14.83,14.33,14.83,14.21-6.11,14.21-14.83-5.98-14.7-14.21-14.7Z"/><path class="cls-3" d="m200.88,89.44c-3.06,0-4.74,0-8.35-.31l-15.31-1.33-1.25-39.42,6.39-5.4c5.07-4.29,11.47-6.46,19.03-6.46,15.16,0,26.16,11.21,26.16,26.65s-10.96,26.28-26.65,26.28Z"/><polygon class="cls-3" points="104.75 96.54 116.43 36.13 146.58 36.13 161.17 96.54 104.75 96.54"/><path class="cls-3" d="m656.12,197.48c-3.07,0-13.6-.57-20.28-7.9l-4.42-4.85-.63-45.25,11.04-4.42c5.5-2.2,10.66-2.48,14.53-2.48,15.34,0,26.9,13.92,26.9,32.39s-11.93,32.51-27.15,32.51Z"/><path class="cls-3" d="m656.37,149.89c-2.99,0-5.61.25-8.1,1.25l.37,26.79c1.25,1.37,4.86,2.24,7.48,2.24,5.11,0,9.84-6.35,9.84-15.2s-4.11-15.08-9.6-15.08Z"/><path class="cls-3" d="m312.66,108.13c-7,0-12.69-1.74-17.91-5.47l-7.56-5.4,1.34-39.3,15.39-1.23c3.64-.29,4.77-.3,8.1-.3,16.13,0,27.4,10.55,27.4,25.66s-11.26,26.03-26.78,26.03Z"/><path class="cls-3" d="m310.79,80.84c-2.65,0-4.63-.27-5.94-.44-.26-.03-.5-.08-.77-.1l-15.66-1.24-.42-15.71-.46-25.9,11.09-4.44c2.5-1,7.15-2.86,13.03-2.86,14.45,0,24.54,10.55,24.54,25.66s-10.45,25.03-25.41,25.03Z"/><polygon class="cls-3" points="492.96 96.54 504.63 36.13 534.78 36.13 549.37 96.54 492.96 96.54"/><path class="cls-3" d="m383.57,80.84c-2.65,0-4.63-.27-5.94-.44-.26-.03-.5-.08-.77-.1l-15.66-1.24-.42-15.71-.46-25.9,11.09-4.44c2.5-1,7.15-2.86,13.03-2.86,14.45,0,24.54,10.55,24.54,25.66s-10.45,25.03-25.41,25.03Z"/><path class="cls-3" d="m1071.24,103.15c-18.04,0-31.64-13.82-31.64-32.14s13.6-32.01,31.64-32.01,31.51,13.76,31.51,32.01-13.55,32.14-31.51,32.14Z"/><path class="cls-3" d="m385.44,108.13c-7,0-12.69-1.74-17.91-5.47l-7.56-5.4,1.34-39.3,15.39-1.23c3.64-.29,4.77-.3,8.11-.3,16.13,0,27.4,10.55,27.4,25.66s-11.26,26.03-26.78,26.03Z"/><path class="cls-3" d="m727.53,198.35c-18.04,0-31.64-13.82-31.64-32.14s13.6-32.01,31.64-32.01,31.51,13.76,31.51,32.01-13.55,32.14-31.51,32.14Z"/><path class="cls-3" d="m727.53,151.51c-8.47,0-14.33,5.86-14.33,14.7s5.86,14.83,14.33,14.83,14.21-6.11,14.21-14.83-5.98-14.7-14.21-14.7Z"/><polygon class="cls-2" points="984.49 122.54 988.52 37.91 1050.61 33.9 1054.12 127.71 984.49 122.54"/><path class="cls-3" d="m63.53,63.16c0,.33.01.63.03.89.78-.17,1.69-.53,2.68-1.09-.87-.23-1.79-.4-2.69-.49-.02.2-.03.43-.03.7Z"/><path class="cls-2" d="m1199.35,16.66l-47.58-.58-.81-2.06-18.8,1.82-1.29-.02.02.14-34.12,3.3-.02.15c-7.19-3.22-15.3-4.97-24-4.97s-15.97,1.58-22.82,4.46l-.9-11.53-60.12,4.83-.33,5.05-73.03-2.98-.14,1.69-40.64-1.13-2.61,7.71c-9.85-6.26-21.21-9.24-34.94-9.24-12.69,0-23.99,3.67-33.03,10.15l-2.06-6.93-38.05-1.06,2.16-8.46-71.62-7.03-.23,2.4-57.85,2.54,3.07,11.63-40.66-.49-.82-2.06-18.8,1.82-1.29-.02.02.14-25.25,2.44-.55-1.86-55.02-1.53-.02-.53-86.01,2.35c-4.76-1.29-10.31-2.08-16.78-2.26-2.04-.06-4.1-.09-6.16-.09-13.3,0-26.25,1.12-33.99,1.79-1.57.14-2.89.25-3.91.33l-10.09.76c-5.16-1.6-11.31-2.6-18.64-2.8-2.04-.06-4.1-.09-6.16-.09-10.3,0-20.39.67-28.01,1.29l-.66-8.4-60.12,4.83-.41,6.28c-6.54-2.44-13.94-3.82-22-3.92h-.95c-14.73,0-29.44,3.43-38.12,5.9l-1.17-3.93-61.21-1.7-.04.11c-10.23-7.99-25.24-12.35-42.88-12.35C25.2,2.61,0,28.71,0,64.66c0,38.69,22.68,61.79,60.67,61.79,8.3,0,15.91-1.14,22.93-3.44l40.81,3.1.16,1.05,5.82-.59,7.63.58.18-1.38,13.7-1.4,54.66,2.33,12.47,15.94,23.02-18.64,49.88,3.71-.13-3.45c9.35.82,19.49,1.44,26.22,1.44,10.13,0,18.76-1.3,25.86-3.9l1.91.31c9.75,1.58,32.9,3.59,45.01,3.59,6.53,0,12.43-.53,17.69-1.6l89.02,2.24.14-1.38,14.96,1.14.16,1.05,5.82-.59,7.63.58.18-1.38,21.11-2.15,42.34,2.99.2.4,2.33-.23,15.38,1.09-.49-2.53,36.9-3.57,1.82-81.01,22.59,85.6,67.78-2.06.04-.18,26.08,1.98.16,1.05,5.82-.59,7.63.58.18-1.38,36.85-3.76c6.59,2.65,14.8,4.44,24.96,4.44,7.32,0,14.1-1.06,20.43-3.22l37.82,2.88.16,1.05,5.82-.59,7.63.58.18-1.38,23.13-2.36-.13,4.4,66.81-5.37-1.7-46.88,19.56-.31c2.38,29.45,24.76,50.31,54.97,50.31,6.25,0,12.23-.92,17.8-2.65l52.13,3.68.2.4,2.33-.22,15.38,1.09-.49-2.53,36.91-3.57,2.36-105.12ZM63.56,64.05c-.02-.26-.03-.55-.03-.89,0-.26.01-.49.03-.7.9.09,1.81.26,2.69.49-1,.56-1.9.92-2.68,1.09Z"/><polygon class="cls-1" points="518.91 53.44 513.93 79.24 527.39 79.24 521.16 53.44 518.91 53.44"/><path class="cls-1" d="m384.82,73.75c-2.99,0-3.61,0-6.73.25l-.5,14.58c1.74,1.25,3.74,2.24,7.85,2.24,6.11,0,9.47-3.11,9.47-8.72s-3.49-8.35-10.09-8.35Z"/><path class="cls-1" d="m310.79,63.53c5.23,0,8.1-2.62,8.1-7.73s-1.75-8.35-7.23-8.35c-2.49,0-4.73.87-6.6,1.62l.25,13.96c1.74.12,3.12.5,5.48.5Z"/><path class="cls-1" d="m383.57,63.53c5.23,0,8.1-2.62,8.1-7.73s-1.75-8.35-7.23-8.35c-2.49,0-4.73.87-6.6,1.62l.25,13.96c1.74.12,3.12.5,5.48.5Z"/><path class="cls-1" d="m312.04,73.75c-2.99,0-3.61,0-6.73.25l-.5,14.58c1.74,1.25,3.74,2.24,7.85,2.24,6.11,0,9.47-3.11,9.47-8.72s-3.49-8.35-10.09-8.35Z"/><path class="cls-1" d="m1071.24,56.31c-8.47,0-14.33,5.86-14.33,14.7s5.86,14.83,14.33,14.83,14.21-6.11,14.21-14.83-5.98-14.7-14.21-14.7Z"/><polygon class="cls-1" points="768.78 53.44 763.8 79.24 777.26 79.24 771.03 53.44 768.78 53.44"/><path class="cls-1" d="m201.37,53.82c-3.86,0-6.23,1-7.85,2.37l.5,15.7c2.87.25,3.99.25,6.85.25,5.86,0,9.35-2.99,9.35-8.97s-3.12-9.35-8.85-9.35Z"/><polygon class="cls-1" points="130.71 53.44 125.73 79.24 139.19 79.24 132.96 53.44 130.71 53.44"/><polygon class="cls-1" points="902.63 53.44 897.64 79.24 911.1 79.24 904.87 53.44 902.63 53.44"/><polygon class="cls-1" points="270.91 26.03 243 28.27 241.75 47.46 272.53 46.71 270.91 26.03"/><path class="cls-1" d="m242.88,54.19l-1.96,41.06-14.63-12.52v-.5c7.48-4.11,12.21-12.96,12.21-23.05,0-16.07-13.83-27.04-34.39-27.29-12.21-.13-25.92,2.74-36.26,5.86l.79,55.14-17.61-59.37-35.89-1-17.44,51.53-10.86-16.52c-7.23,8.85-15.95,13.96-24.3,13.96-10.09,0-16.32-6.85-16.32-18.32,0-10.84,6.48-18.07,16.07-18.07,6.6,0,14.08,2.37,19.07,6.11l12.83-20.81c-6.85-6.73-19.31-10.47-34.27-10.47-25.3,0-42.62,18.07-42.62,44.73,0,29.03,14.95,44.49,43.36,44.49,13.26,0,23.51-3.61,32.14-10.67l-2.6,7.68,32.77,2.49,1.87-14.21h12.21l2.12,13.83,29.63-3.02.04,2.52,29.28,1.25-.37-20.56.75-.12,23.3,29.78,18.75-15.17-.17,3.59,33.52,2.49-2.12-56.7-28.91,1.87Zm-117.15,25.05l4.98-25.79h2.24l6.23,25.79h-13.46Zm75.15-7.1c-2.87,0-3.99,0-6.85-.25l-.5-15.7c1.62-1.37,3.99-2.37,7.85-2.37,5.73,0,8.85,3.36,8.85,9.35s-3.49,8.97-9.35,8.97Z"/><path class="cls-1" d="m602.41,65.9l-1.99.87-13.58-34.27-27.04,2.62-4.9,51.18-15.66-52.8-35.89-1-19.61,57.96.92-9.11-33.27,3.49-.13-8.35,21.31-.37.75-15.58-22.31,1.62-.12-8.47,30.78,1.62-1-23.05-59.31,1.62.8,46.77c-1.98-5.74-6.71-8.48-13.89-10.88v-.5c7.48-2.24,12.59-7.1,12.59-16.45,0-15.08-8.47-20.44-26.92-20.93-17.07-.5-35.64,1.5-42.24,1.99l-2.08,47.54c-1.82-6.27-6.63-9.15-14.13-11.65v-.5c7.48-2.24,12.59-7.1,12.59-16.45,0-15.08-8.47-20.44-26.92-20.93-17.07-.5-35.64,1.5-42.24,1.99l-3.12,71.15c9.22,1.5,31.53,3.36,42.24,3.36,17.42,0,27.43-4.02,30.94-12.49l-.4,9.13c9.22,1.5,31.53,3.36,42.24,3.36,18.6,0,28.76-4.58,31.56-14.28l.22,13.04,59.31,1.5.22-2.21,29.07,2.21,1.87-14.21h12.21l2.12,13.83,25.65-2.61-.1.99,33.52,2.37-7.48-38.5,1.74-.37,19.44,38.5,27.04-2.62,1.62-72.27-30.9-.37,4.49,32.52Zm-290.75-18.44c5.48,0,7.23,3.49,7.23,8.35,0,5.11-2.87,7.73-8.1,7.73-2.37,0-3.74-.37-5.48-.5l-.25-13.96c1.87-.75,4.11-1.62,6.6-1.62Zm1,43.36c-4.11,0-6.11-1-7.85-2.24l.5-14.58c3.12-.25,3.74-.25,6.73-.25,6.6,0,10.09,2.87,10.09,8.35s-3.36,8.72-9.47,8.72Zm71.78-43.36c5.48,0,7.23,3.49,7.23,8.35,0,5.11-2.87,7.73-8.1,7.73-2.37,0-3.74-.37-5.48-.5l-.25-13.96c1.87-.75,4.11-1.62,6.6-1.62Zm1,43.36c-4.11,0-6.11-1-7.85-2.24l.5-14.58c3.12-.25,3.74-.25,6.73-.25,6.6,0,10.09,2.87,10.09,8.35s-3.36,8.72-9.47,8.72Zm128.49-11.59l4.98-25.79h2.24l6.23,25.79h-13.46Z"/><polygon class="cls-1" points="710.21 18.92 703.98 84.97 701.74 84.97 692.76 19.8 658.75 21.29 681.8 108.64 722.79 107.4 744.48 22.29 710.21 18.92"/><path class="cls-1" d="m1003.82,58.18l-2.12-23.05-70.28-2.87-1.93,23.34-6.55-22.09-35.89-1-18.67,55.18-9.12-15.05c-6.23,6.48-12.46,10.09-18.57,10.09-9.35,0-13.96-6.11-13.96-14.21,0-7.6,4.61-13.96,13.33-13.96,6.11,0,12.46,2.99,17.07,7.85l12.83-19.56c-8.6-8.35-18.69-12.21-32.77-12.21-21.73,0-36.93,14.82-38.02,36.85l-10.08-33.98-35.89-1-24.92,73.64,32.77,2.49,1.87-14.21h12.21l2.12,13.83,33.02-3.36-1.92-6.47c6.56,7.04,16.5,10.7,29.71,10.7,9.93,0,18.22-2.57,25.73-7.95l-1.68,4.96,32.77,2.49,1.87-14.21h12.21l2.12,13.83,33.02-3.36-13.5-45.51,21.86-.35-1.5,49.97,31.03-2.49-1.74-47.98,23.55-.37Zm-240.02,21.06l4.98-25.79h2.24l6.23,25.79h-13.46Zm133.84,0l4.98-25.79h2.24l6.23,25.79h-13.46Z"/><polygon class="cls-1" points="1033.11 26.03 1005.2 28.27 1003.95 47.46 1034.73 46.71 1033.11 26.03"/><polygon class="cls-1" points="1005.07 54.19 1002.58 106.52 1036.1 109.02 1033.98 52.32 1005.07 54.19"/><path class="cls-1" d="m1150.75,33.38l4.49,32.52-1.99.87-13.58-34.27-27.04,2.62-2.57,26.85c-3.28-18.48-17.93-30.22-37.31-30.22-22.18,0-37.88,15.2-37.88,38.25s15.7,38.26,37.88,38.26c16.39,0,29.39-8.4,35-22.17l-1.97,20.55,33.52,2.37-7.48-38.5,1.74-.37,19.44,38.5,27.04-2.62,1.62-72.27-30.9-.37Zm-79.51,52.46c-8.47,0-14.33-6.11-14.33-14.83s5.86-14.7,14.33-14.7,14.21,5.86,14.21,14.7-5.98,14.83-14.21,14.83Z"/><path class="cls-2" d="m201.37,53.82c-3.86,0-6.23,1-7.85,2.37l.5,15.7c2.87.25,3.99.25,6.85.25,5.86,0,9.35-2.99,9.35-8.97s-3.12-9.35-8.85-9.35Z"/><polygon class="cls-2" points="130.71 53.44 125.73 79.24 139.19 79.24 132.96 53.44 130.71 53.44"/><path class="cls-2" d="m322.13,82.1c0-5.48-3.49-8.35-10.09-8.35-2.99,0-3.61,0-6.73.25l-.5,14.58c1.74,1.25,3.74,2.24,7.85,2.24,6.11,0,9.47-3.11,9.47-8.72Z"/><path class="cls-2" d="m310.79,63.53c5.23,0,8.1-2.62,8.1-7.73s-1.75-8.35-7.23-8.35c-2.49,0-4.73.87-6.6,1.62l.25,13.96c1.74.12,3.12.5,5.48.5Z"/><polygon class="cls-2" points="521.16 53.44 518.91 53.44 513.93 79.24 527.39 79.24 521.16 53.44"/><path class="cls-2" d="m383.57,63.53c5.23,0,8.1-2.62,8.1-7.73s-1.75-8.35-7.23-8.35c-2.49,0-4.73.87-6.6,1.62l.25,13.96c1.74.12,3.12.5,5.48.5Z"/><path class="cls-2" d="m1071.24,56.31c-8.47,0-14.33,5.86-14.33,14.7s5.86,14.83,14.33,14.83,14.21-6.11,14.21-14.83-5.98-14.7-14.21-14.7Z"/><path class="cls-2" d="m394.91,82.1c0-5.48-3.49-8.35-10.09-8.35-2.99,0-3.61,0-6.73.25l-.5,14.58c1.74,1.25,3.74,2.24,7.85,2.24,6.11,0,9.47-3.11,9.47-8.72Z"/><polygon class="cls-2" points="768.78 53.44 763.8 79.24 777.26 79.24 771.03 53.44 768.78 53.44"/><polygon class="cls-2" points="902.63 53.44 897.64 79.24 911.1 79.24 904.87 53.44 902.63 53.44"/><path class="cls-2" d="m909.17,221.99l-2.33.22-.2-.4-39.14-2.76-41.56,1.35-.25,1.27-18.6-.66-.87.03v-.06s-43.16-1.54-43.16-1.54l-2.13-8.08c-8.87,6-19.78,9.42-31.89,9.42-13.46,0-25.62-4.2-35.08-11.67-8.77,6.68-21.68,11.73-40.69,11.73-10.97,0-22.52-1.7-35.26-5.19l.07,2-66.81,5.36.14-4.83-24.4,2.36.49,2.53-15.37-1.09-2.33.22-.2-.4-51.85-3.66c-6.08,1.9-12.77,2.88-19.96,2.88-17.44,0-29.32-4.67-37.41-10.96-9.3,6.86-20.99,10.71-33.75,10.71s-23.3-3.39-32.36-9.63c-10.75,7.05-23.16,10.51-37.55,10.51-37.99,0-60.67-23.1-60.67-61.8,0-35.95,25.2-62.04,59.93-62.04,19.79,0,36.26,5.48,46.39,15.42l1.05,1.03c6.95-2.99,14.78-4.62,23.22-4.62,10.04,0,19.36,2.34,27.38,6.62l.62-1.83,30.99-3.73-.17-1.6,9.37.49,21.38-2.57-.75,3.66,27.66,1.46.16.43,14.52-1.41-.02-.14,1.29.02,18.81-1.82.82,2.06,14.84.18.16-1.97,87.76,3.58c10.55-2.38,20.14-3.54,29.19-3.54,4.62,0,9.4.35,14.2,1.05,12.56,1.87,21.84,5.97,28.71,11.06,9.51-7.67,21.81-11.98,35.47-11.98,6.06,0,11.87.84,17.3,2.46l58.33-2.65.62,3.92,23.29-1.14.52-5.87,56.71,5.67,9.05-.88-.02-.14,1.29.02,18.8-1.82.81,2.06,47.58.58-2.35,105.12-36.91,3.57.49,2.53-15.37-1.09Zm-609.58-64.32c-.02.2-.03.43-.03.7,0,.33.01.63.03.89.78-.17,1.69-.53,2.68-1.09-.87-.23-1.79-.4-2.69-.49Z"/><path class="cls-1" d="m919.2,161.1l-1.99.87-13.58-34.27-25.56,2.47.37-1.48-33.64-3.36-4.49,51.22h-2.24l-6.98-47.1-25.42,1.25-6.36,41.87h-2.24l-7.1-45.11-32.9,1.5,3.67,13.92c-6.62-10.02-17.98-15.92-31.72-15.92-16.83,0-29.91,8.77-35.25,23.07-4.85-13.93-16.78-20.13-31.42-22.32-3.86-.56-7.79-.87-11.71-.87-10.28,0-20.62,1.81-30.53,4.36l.02,2.19-.28-3.06-70.28-2.87-1.33,16.16.33-14.67-30.9-.37,4.49,32.52-1.99.87-13.58-34.27-27.04,2.62-2.37,24.76c-.81-8.07-2.91-16.89-6.36-26.26l-26.04-1.37c3.24,31.15,6.48,50.72-6.11,50.72s-9.1-27.41-4.24-51.09l-26.92,3.24c-2.42,7.11-4.24,13.67-5.53,19.73-5.4-14.32-18.6-23.1-35.35-23.1-22.18,0-37.88,15.2-37.88,38.25,0,2.55.22,4.99.59,7.34l-6.46-9.83c-7.23,8.85-15.95,13.96-24.3,13.96-10.09,0-16.32-6.85-16.32-18.32,0-10.84,6.48-18.07,16.07-18.07,6.6,0,14.08,2.37,19.07,6.11l12.83-20.81c-6.85-6.73-19.31-10.47-34.27-10.47-25.3,0-42.62,18.07-42.62,44.73,0,29.03,14.95,44.49,43.36,44.49,16.58,0,28.48-5.65,38.35-16.64,6.57,9.92,17.82,15.77,31.56,15.77,16.21,0,29.09-8.23,34.8-21.73,4.2,14.73,16.43,21.98,36.36,21.98s31.72-8.84,36.98-23.58l-2.08,21.71,33.52,2.37-7.48-38.5,1.74-.37,19.44,38.5,27.04-2.62,1.04-46.62,22.64-.36-1.5,49.97,31.03-2.49-1.74-47.98,21.94-.35.5,45.08c10.72,3.05,21.43,5.05,32.4,5.05,19.87,0,35.07-6.49,40.6-22.89,5.39,14.16,18.43,22.83,35.17,22.83,21.64,0,37.37-14.66,37.95-36.99l9.53,36.12,35.02,1.25,5.48-28.16,1.12-.25,3.36,27.79,38.38-1.25,15.83-62.48-5.98,62.35,33.52,2.37-7.48-38.5,1.74-.37,19.44,38.5,27.04-2.62,1.62-72.27-30.9-.37,4.49,32.52Zm-554.07,19.94c-8.47,0-14.33-6.11-14.33-14.83s5.86-14.7,14.33-14.7,14.21,5.86,14.21,14.7-5.98,14.83-14.21,14.83Zm291-.87c-2.62,0-6.23-.87-7.48-2.24l-.37-26.79c2.49-1,5.11-1.25,8.1-1.25,5.48,0,9.6,6.48,9.6,15.08s-4.73,15.2-9.84,15.2Zm71.41.87c-8.47,0-14.33-6.11-14.33-14.83s5.86-14.7,14.33-14.7,14.21,5.86,14.21,14.7-5.98,14.83-14.21,14.83Z"/></g></svg>